<svg width="36" height="40" viewBox="0 0 36 40" fill="none" xmlns="http://www.w3.org/2000/svg">
<path d="M9.96973 1V6.38192" stroke="#005FFF" stroke-width="1.79397" stroke-miterlimit="10" stroke-linecap="round" stroke-linejoin="round"/>
<path d="M24.3218 1V6.38192" stroke="#005FFF" stroke-width="1.79397" stroke-miterlimit="10" stroke-linecap="round" stroke-linejoin="round"/>
<path d="M1.89697 13.7192H32.3945" stroke="#005FFF" stroke-width="1.79397" stroke-miterlimit="10" stroke-linecap="round" stroke-linejoin="round"/>
<path d="M27.9098 38.6733C31.8729 38.6733 35.0857 35.4606 35.0857 31.4974C35.0857 27.5343 31.8729 24.3215 27.9098 24.3215C23.9466 24.3215 20.7339 27.5343 20.7339 31.4974C20.7339 35.4606 23.9466 38.6733 27.9098 38.6733Z" stroke="#005FFF" stroke-width="1.79397" stroke-miterlimit="10" stroke-linecap="round" stroke-linejoin="round"/>
<path d="M30.5819 31.5872H25.2358" stroke="#005FFF" stroke-width="1.79397" stroke-miterlimit="10" stroke-linecap="round" stroke-linejoin="round"/>
<path d="M27.9092 28.968V34.332" stroke="#005FFF" stroke-width="1.79397" stroke-miterlimit="10" stroke-linecap="round" stroke-linejoin="round"/>
<path d="M33.2915 12.6608V26.7614C31.9819 25.2724 30.0624 24.3216 27.9096 24.3216C23.9449 24.3216 20.7337 27.5328 20.7337 31.4975C20.7337 32.843 21.1104 34.1167 21.7742 35.1931C22.1509 35.8389 22.6353 36.413 23.1914 36.8794H9.96987C3.69096 36.8794 1 33.2915 1 27.9096V12.6608C1 7.27886 3.69096 3.69092 9.96987 3.69092H24.3217C30.6006 3.69092 33.2915 7.27886 33.2915 12.6608Z" stroke="#005FFF" stroke-width="1.79397" stroke-miterlimit="10" stroke-linecap="round" stroke-linejoin="round"/>
<path d="M17.1376 21.9895H17.1537" stroke="#005FFF" stroke-width="1.79397" stroke-linecap="round" stroke-linejoin="round"/>
<path d="M10.498 21.9895H10.5141" stroke="#005FFF" stroke-width="1.79397" stroke-linecap="round" stroke-linejoin="round"/>
<path d="M10.498 27.3714H10.5141" stroke="#005FFF" stroke-width="1.79397" stroke-linecap="round" stroke-linejoin="round"/>
</svg>
