<svg width="27" height="30" viewBox="0 0 27 30" fill="none" xmlns="http://www.w3.org/2000/svg">
<g clip-path="url(#clip0_17885_4794)">
<g clip-path="url(#clip1_17885_4794)">
<g clip-path="url(#clip2_17885_4794)">
<path d="M26.6484 6.67969H1.10156C1.00832 6.67969 0.918901 6.64265 0.85297 6.57672C0.78704 6.51079 0.75 6.42137 0.75 6.32812V4.92188C0.75 4.82863 0.78704 4.73921 0.85297 4.67328C0.918901 4.60735 1.00832 4.57031 1.10156 4.57031H26.6484C26.7417 4.57031 26.8311 4.60735 26.897 4.67328C26.963 4.73921 27 4.82863 27 4.92188V6.32812C27 6.42137 26.963 6.51079 26.897 6.57672C26.8311 6.64265 26.7417 6.67969 26.6484 6.67969ZM26.6484 16.0547H1.10156C1.00832 16.0547 0.918901 16.0176 0.85297 15.9517C0.78704 15.8858 0.75 15.7964 0.75 15.7031V14.2969C0.75 14.2036 0.78704 14.1142 0.85297 14.0483C0.918901 13.9824 1.00832 13.9453 1.10156 13.9453H26.6484C26.7417 13.9453 26.8311 13.9824 26.897 14.0483C26.963 14.1142 27 14.2036 27 14.2969V15.7031C27 15.7964 26.963 15.8858 26.897 15.9517C26.8311 16.0176 26.7417 16.0547 26.6484 16.0547ZM26.6484 25.4297H1.10156C1.00832 25.4297 0.918901 25.3926 0.85297 25.3267C0.78704 25.2608 0.75 25.1714 0.75 25.0781V23.6719C0.75 23.5786 0.78704 23.4892 0.85297 23.4233C0.918901 23.3574 1.00832 23.3203 1.10156 23.3203H26.6484C26.7417 23.3203 26.8311 23.3574 26.897 23.4233C26.963 23.4892 27 23.5786 27 23.6719V25.0781C27 25.1714 26.963 25.2608 26.897 25.3267C26.8311 25.3926 26.7417 25.4297 26.6484 25.4297Z" fill="black"/>
</g>
</g>
</g>
<defs>
<clipPath id="clip0_17885_4794">
<rect width="26.25" height="30" fill="white" transform="translate(0.75)"/>
</clipPath>
<clipPath id="clip1_17885_4794">
<rect width="26.25" height="30" fill="white" transform="translate(0.75)"/>
</clipPath>
<clipPath id="clip2_17885_4794">
<rect width="26.25" height="30" fill="white" transform="translate(0.75)"/>
</clipPath>
</defs>
</svg>
