<svg width="30" height="30" viewBox="0 0 30 30" fill="none" xmlns="http://www.w3.org/2000/svg">
<path d="M13.695 2.68994V5.13994" stroke="white" stroke-width="2.33333" stroke-linecap="round" stroke-linejoin="round"/>
<path d="M6.345 2.68994V5.13994" stroke="white" stroke-width="2.33333" stroke-linecap="round" stroke-linejoin="round"/>
<path d="M6.34501 3.91504H5.12001C4.47023 3.91504 3.84707 4.17316 3.3876 4.63263C2.92814 5.09209 2.67001 5.71526 2.67001 6.36504V11.265C2.67001 13.2144 3.44439 15.0839 4.82278 16.4623C6.20117 17.8407 8.07067 18.615 10.02 18.615C11.9694 18.615 13.8389 17.8407 15.2172 16.4623C16.5956 15.0839 17.37 13.2144 17.37 11.265V6.36504C17.37 5.71526 17.1119 5.09209 16.6524 4.63263C16.193 4.17316 15.5698 3.91504 14.92 3.91504H13.695" stroke="white" stroke-width="2.33333" stroke-linecap="round" stroke-linejoin="round"/>
<path d="M10.02 18.6149C10.02 20.5643 10.7944 22.4338 12.1728 23.8122C13.5511 25.1906 15.4206 25.9649 17.37 25.9649C19.3193 25.9649 21.1888 25.1906 22.5672 23.8122C23.9456 22.4338 24.72 20.5643 24.72 18.6149V14.9399" stroke="white" stroke-width="2.33333" stroke-linecap="round" stroke-linejoin="round"/>
<path d="M24.72 14.94C26.0731 14.94 27.17 13.8431 27.17 12.49C27.17 11.1369 26.0731 10.04 24.72 10.04C23.3669 10.04 22.27 11.1369 22.27 12.49C22.27 13.8431 23.3669 14.94 24.72 14.94Z" stroke="white" stroke-width="2.33333" stroke-linecap="round" stroke-linejoin="round"/>
</svg>
