<svg width="30" height="29" viewBox="0 0 30 29" fill="none" xmlns="http://www.w3.org/2000/svg">
<path d="M24.5534 12.1265C24.5534 18.1264 17.8973 24.3751 15.6622 26.305C15.454 26.4616 15.2005 26.5462 14.94 26.5462C14.6795 26.5462 14.426 26.4616 14.2178 26.305C11.9827 24.3751 5.32669 18.1264 5.32669 12.1265C5.32669 9.5769 6.33952 7.13171 8.14237 5.32886C9.94522 3.52601 12.3904 2.51318 14.94 2.51318C17.4896 2.51318 19.9348 3.52601 21.7377 5.32886C23.5405 7.13171 24.5534 9.5769 24.5534 12.1265Z" stroke="white" stroke-width="2.33333" stroke-linecap="round" stroke-linejoin="round"/>
<path d="M14.94 15.7315C16.931 15.7315 18.545 14.1175 18.545 12.1265C18.545 10.1355 16.931 8.52148 14.94 8.52148C12.949 8.52148 11.335 10.1355 11.335 12.1265C11.335 14.1175 12.949 15.7315 14.94 15.7315Z" stroke="white" stroke-width="2.33333" stroke-linecap="round" stroke-linejoin="round"/>
</svg>
