<svg width="29" height="29" viewBox="0 0 29 29" fill="none" xmlns="http://www.w3.org/2000/svg">
<path d="M17.66 2.91309H10.66C10.0157 2.91309 9.49335 3.43542 9.49335 4.07975V6.41309C9.49335 7.05742 10.0157 7.57975 10.66 7.57975H17.66C18.3043 7.57975 18.8267 7.05742 18.8267 6.41309V4.07975C18.8267 3.43542 18.3043 2.91309 17.66 2.91309Z" stroke="white" stroke-width="2.33333" stroke-linecap="round" stroke-linejoin="round"/>
<path d="M18.8267 5.24658H21.16C21.7788 5.24658 22.3723 5.49241 22.8099 5.93C23.2475 6.36758 23.4933 6.96108 23.4933 7.57992V23.9132C23.4933 24.5321 23.2475 25.1256 22.8099 25.5632C22.3723 26.0007 21.7788 26.2466 21.16 26.2466H7.15999C6.54115 26.2466 5.94766 26.0007 5.51008 25.5632C5.07249 25.1256 4.82666 24.5321 4.82666 23.9132V7.57992C4.82666 6.96108 5.07249 6.36758 5.51008 5.93C5.94766 5.49241 6.54115 5.24658 7.15999 5.24658H9.49333" stroke="white" stroke-width="2.33333" stroke-linecap="round" stroke-linejoin="round"/>
<path d="M14.16 13.4131H18.8267" stroke="white" stroke-width="2.33333" stroke-linecap="round" stroke-linejoin="round"/>
<path d="M14.16 19.2466H18.8267" stroke="white" stroke-width="2.33333" stroke-linecap="round" stroke-linejoin="round"/>
<path d="M9.49335 13.4131H9.50501" stroke="white" stroke-width="2.33333" stroke-linecap="round" stroke-linejoin="round"/>
<path d="M9.49335 19.2466H9.50501" stroke="white" stroke-width="2.33333" stroke-linecap="round" stroke-linejoin="round"/>
</svg>
