<svg width="20" height="21" viewBox="0 0 20 21" fill="none" xmlns="http://www.w3.org/2000/svg">
<path d="M17.7914 9.91048H10.1497V12.1855H15.5747C15.2997 15.3605 12.6581 16.7189 10.1581 16.7189C6.96641 16.7189 4.16641 14.2022 4.16641 10.6605C4.16641 7.24382 6.83307 4.60215 10.1664 4.60215C12.7414 4.60215 14.2497 6.24382 14.2497 6.24382L15.8331 4.59382C15.8331 4.59382 13.7997 2.32715 10.0831 2.32715C5.34974 2.32715 1.69141 6.32715 1.69141 10.6605C1.69141 14.8689 5.13307 18.9939 10.2081 18.9939C14.6664 18.9939 17.9164 15.9355 17.9164 11.4189C17.9164 10.4605 17.7914 9.91048 17.7914 9.91048Z" fill="white"/>
</svg>
