<svg width="24" height="25" viewBox="0 0 24 25" fill="none" xmlns="http://www.w3.org/2000/svg">
<path d="M2.50001 17.6602C1.80143 14.3634 1.80143 10.9569 2.50001 7.66016C2.5918 7.32537 2.76914 7.02023 3.01461 6.77476C3.26008 6.52929 3.56522 6.35194 3.90001 6.26016C9.26346 5.37161 14.7366 5.37161 20.1 6.26016C20.4348 6.35194 20.7399 6.52929 20.9854 6.77476C21.2309 7.02023 21.4082 7.32537 21.5 7.66016C22.1986 10.9569 22.1986 14.3634 21.5 17.6602C21.4082 17.9949 21.2309 18.3001 20.9854 18.5455C20.7399 18.791 20.4348 18.9684 20.1 19.0602C14.7366 19.9489 9.26344 19.9489 3.90001 19.0602C3.56522 18.9684 3.26008 18.791 3.01461 18.5455C2.76914 18.3001 2.5918 17.9949 2.50001 17.6602Z" stroke="white" stroke-width="2" stroke-linecap="round" stroke-linejoin="round"/>
<path d="M10 15.6602L15 12.6602L10 9.66016V15.6602Z" stroke="white" stroke-width="2" stroke-linecap="round" stroke-linejoin="round"/>
</svg>
