<svg width="20" height="21" viewBox="0 0 20 21" fill="none" xmlns="http://www.w3.org/2000/svg">
<path d="M6.50032 2.32715H13.5003C16.167 2.32715 18.3337 4.49382 18.3337 7.16048V14.1605C18.3337 15.4424 17.8244 16.6718 16.918 17.5782C16.0116 18.4846 14.7822 18.9939 13.5003 18.9939H6.50032C3.83366 18.9939 1.66699 16.8272 1.66699 14.1605V7.16048C1.66699 5.87861 2.17622 4.64923 3.08264 3.7428C3.98907 2.83638 5.21845 2.32715 6.50032 2.32715ZM6.33366 3.99382C5.53801 3.99382 4.77495 4.30989 4.21234 4.8725C3.64973 5.43511 3.33366 6.19817 3.33366 6.99382V14.3272C3.33366 15.9855 4.67532 17.3272 6.33366 17.3272H13.667C14.4626 17.3272 15.2257 17.0111 15.7883 16.4485C16.3509 15.8859 16.667 15.1228 16.667 14.3272V6.99382C16.667 5.33548 15.3253 3.99382 13.667 3.99382H6.33366ZM14.3753 5.24382C14.6516 5.24382 14.9165 5.35357 15.1119 5.54892C15.3072 5.74427 15.417 6.00922 15.417 6.28548C15.417 6.56175 15.3072 6.8267 15.1119 7.02205C14.9165 7.2174 14.6516 7.32715 14.3753 7.32715C14.0991 7.32715 13.8341 7.2174 13.6388 7.02205C13.4434 6.8267 13.3337 6.56175 13.3337 6.28548C13.3337 6.00922 13.4434 5.74427 13.6388 5.54892C13.8341 5.35357 14.0991 5.24382 14.3753 5.24382ZM10.0003 6.49382C11.1054 6.49382 12.1652 6.9328 12.9466 7.71421C13.728 8.49561 14.167 9.55542 14.167 10.6605C14.167 11.7656 13.728 12.8254 12.9466 13.6068C12.1652 14.3882 11.1054 14.8272 10.0003 14.8272C8.89526 14.8272 7.83545 14.3882 7.05405 13.6068C6.27264 12.8254 5.83366 11.7656 5.83366 10.6605C5.83366 9.55542 6.27264 8.49561 7.05405 7.71421C7.83545 6.9328 8.89526 6.49382 10.0003 6.49382ZM10.0003 8.16048C9.33728 8.16048 8.7014 8.42388 8.23256 8.89272C7.76372 9.36156 7.50032 9.99744 7.50032 10.6605C7.50032 11.3236 7.76372 11.9595 8.23256 12.4283C8.7014 12.8971 9.33728 13.1605 10.0003 13.1605C10.6634 13.1605 11.2993 12.8971 11.7681 12.4283C12.2369 11.9595 12.5003 11.3236 12.5003 10.6605C12.5003 9.99744 12.2369 9.36156 11.7681 8.89272C11.2993 8.42388 10.6634 8.16048 10.0003 8.16048Z" fill="white"/>
</svg>
