<svg width="74" height="74" viewBox="0 0 74 74" fill="none" xmlns="http://www.w3.org/2000/svg">
<path d="M6.66699 37.607C6.5154 29.3843 9.57827 21.6213 15.2793 15.7984C20.9809 10.0058 28.6224 6.82088 36.8457 6.82086C53.6512 6.82086 67.3329 20.5027 67.333 37.3082V54.8834C67.333 55.8714 66.5085 56.6959 65.5205 56.6959C64.5326 56.6957 63.708 55.8713 63.708 54.8834V37.3082C63.7079 22.51 51.6755 10.4459 36.8457 10.4459C29.5915 10.4459 22.8635 13.242 17.8652 18.3345C12.9928 23.2983 10.3352 29.8553 10.2881 36.8824L10.292 37.564V55.1607C10.292 56.1881 9.48955 57.0042 8.47949 57.0045C7.49156 57.0045 6.66714 56.1799 6.66699 55.192V37.607Z" fill="#54A6FF" stroke="#54A6FF"/>
<path d="M18.3153 38.3875H17.9145C11.4395 38.3875 6.16699 43.66 6.16699 50.135V55.9317C6.16699 62.4067 11.4395 67.6792 17.9145 67.6792H18.3153C24.7903 67.6792 30.0628 62.4067 30.0628 55.9317V50.135C30.0628 43.66 24.7903 38.3875 18.3153 38.3875Z" fill="#54A6FF"/>
<path d="M56.0858 38.3875H55.685C49.21 38.3875 43.9375 43.66 43.9375 50.135V55.9317C43.9375 62.4067 49.21 67.6792 55.685 67.6792H56.0858C62.5608 67.6792 67.8333 62.4067 67.8333 55.9317V50.135C67.8333 43.66 62.5608 38.3875 56.0858 38.3875Z" fill="#54A6FF"/>
</svg>
