<svg width="1440" height="935" viewBox="0 0 1440 935" fill="none" xmlns="http://www.w3.org/2000/svg">
<g clip-path="url(#clip0_2052_88511)">
<rect width="1440" height="934" transform="translate(0 0.97998)" fill="#002991"/>
<mask id="mask0_2052_88511" style="mask-type:alpha" maskUnits="userSpaceOnUse" x="-1171" y="-610" width="2754" height="2153">
<path d="M54.7626 -101.194C54.7626 64.7144 -54.9323 199.21 -190.248 199.21C-325.563 199.21 -1171 -382.696 -1171 -548.605C-1171 -714.513 43.7278 -486.109 179.043 -486.109C314.359 -486.109 54.7626 -267.103 54.7626 -101.194Z" fill="url(#paint0_linear_2052_88511)"/>
<path d="M855.085 1106.71C893.308 1295.63 822.574 1469.36 697.097 1494.75C571.619 1520.14 -136.307 1617.53 -174.53 1428.61C-212.752 1239.69 -251.623 781.724 -126.146 756.337C-0.668483 730.95 816.862 917.792 855.085 1106.71Z" fill="url(#paint1_radial_2052_88511)"/>
<path d="M774.001 285.963C1061.81 675.694 931.479 482.741 1235.77 536.08C1281.39 554.858 1361.9 571.644 1318.97 488.566C1265.3 384.719 1301.22 326.349 1231.25 210.874C1161.28 95.3987 1126.7 -14.5156 1022.65 -196.706C918.602 -378.897 882.311 -253.473 732.08 -296.537C581.85 -339.601 647.594 -306.275 391.39 -124.524C135.186 57.2265 486.197 -103.768 774.001 285.963Z" fill="#D9D9D9"/>
<path d="M803.742 786.829C347.525 1002.69 570.896 907.994 454.031 1202.76C425.526 1244.95 391.881 1322.45 485.348 1294.87C602.181 1260.4 654.27 1307.2 786.301 1258.57C918.331 1209.93 1037.42 1195.7 1244.43 1125.32C1451.44 1054.94 1331.1 995.342 1405.85 852.917C1480.59 710.492 1433.12 770.134 1300.59 479.901C1168.05 189.668 1259.96 570.973 803.742 786.829Z" fill="#D9D9D9"/>
</mask>
<g mask="url(#mask0_2052_88511)">
<line x1="-162.396" y1="646.226" x2="1540.6" y2="646.226" stroke="white" stroke-opacity="0.25" stroke-width="1.42035"/>
<line x1="-162.396" y1="282.616" x2="1540.6" y2="282.616" stroke="white" stroke-opacity="0.25" stroke-width="1.42035"/>
<line x1="-162.396" y1="464.42" x2="1540.6" y2="464.42" stroke="white" stroke-opacity="0.25" stroke-width="1.42035"/>
<line x1="-162.396" y1="828.029" x2="1540.6" y2="828.029" stroke="white" stroke-opacity="0.25" stroke-width="1.42035"/>
<line x1="-162.396" y1="100.811" x2="1540.6" y2="100.811" stroke="white" stroke-opacity="0.25" stroke-width="1.42035"/>
<line x1="-162.396" y1="555.323" x2="1540.6" y2="555.323" stroke="white" stroke-opacity="0.25" stroke-width="1.42035"/>
<line x1="-162.396" y1="918.932" x2="1540.6" y2="918.932" stroke="white" stroke-opacity="0.25" stroke-width="1.42035"/>
<line x1="-162.396" y1="191.714" x2="1540.6" y2="191.714" stroke="white" stroke-opacity="0.25" stroke-width="1.42035"/>
<line x1="-162.396" y1="373.517" x2="1540.6" y2="373.517" stroke="white" stroke-opacity="0.25" stroke-width="1.42035"/>
<line x1="-162.396" y1="737.129" x2="1540.6" y2="737.129" stroke="white" stroke-opacity="0.25" stroke-width="1.42035"/>
<line x1="-162.396" y1="9.9075" x2="1540.6" y2="9.9075" stroke="white" stroke-opacity="0.25" stroke-width="1.42035"/>
<line x1="598.295" y1="-136.901" x2="598.295" y2="1030.5" stroke="white" stroke-opacity="0.25" stroke-width="1.2607"/>
<line x1="238.295" y1="-136.902" x2="238.295" y2="1030.5" stroke="white" stroke-opacity="0.25" stroke-width="1.2607"/>
<line x1="958.295" y1="-136.901" x2="958.295" y2="1030.5" stroke="white" stroke-opacity="0.25" stroke-width="1.2607"/>
<line x1="1318.3" y1="-136.901" x2="1318.3" y2="1030.5" stroke="white" stroke-opacity="0.25" stroke-width="1.2607"/>
<line x1="58.2953" y1="-136.901" x2="58.2952" y2="1030.5" stroke="white" stroke-opacity="0.25" stroke-width="1.2607"/>
<line x1="778.295" y1="-136.901" x2="778.295" y2="1030.5" stroke="white" stroke-opacity="0.25" stroke-width="1.2607"/>
<line x1="418.295" y1="-136.901" x2="418.295" y2="1030.5" stroke="white" stroke-opacity="0.25" stroke-width="1.2607"/>
<line x1="1138.3" y1="-136.902" x2="1138.3" y2="1030.5" stroke="white" stroke-opacity="0.25" stroke-width="1.2607"/>
<line x1="688.295" y1="-136.902" x2="688.295" y2="1030.5" stroke="white" stroke-opacity="0.25" stroke-width="1.2607"/>
<line x1="328.295" y1="-136.901" x2="328.295" y2="1030.5" stroke="white" stroke-opacity="0.25" stroke-width="1.2607"/>
<line x1="1048.3" y1="-136.901" x2="1048.3" y2="1030.5" stroke="white" stroke-opacity="0.25" stroke-width="1.2607"/>
<line x1="1408.3" y1="-136.901" x2="1408.3" y2="1030.5" stroke="white" stroke-opacity="0.25" stroke-width="1.2607"/>
<line x1="148.295" y1="-136.901" x2="148.295" y2="1030.5" stroke="white" stroke-opacity="0.25" stroke-width="1.2607"/>
<line x1="868.295" y1="-136.901" x2="868.295" y2="1030.5" stroke="white" stroke-opacity="0.25" stroke-width="1.2607"/>
<line x1="508.295" y1="-136.901" x2="508.295" y2="1030.5" stroke="white" stroke-opacity="0.25" stroke-width="1.2607"/>
<line x1="1228.3" y1="-136.901" x2="1228.3" y2="1030.5" stroke="white" stroke-opacity="0.25" stroke-width="1.2607"/>
<g opacity="0.7">
<rect x="867.957" y="827.965" width="90.3859" height="90.3859" fill="#111787" fill-opacity="0.36"/>
<rect x="327.444" y="827.965" width="90.3859" height="90.3859" fill="#3038D3" fill-opacity="0.25"/>
<rect x="1164.08" y="192.681" width="90.3859" height="89.0947" fill="#3038D3" fill-opacity="0.11"/>
<rect x="435.831" y="102.295" width="90.3859" height="89.0947" fill="#3038D3" fill-opacity="0.31"/>
<rect x="868.406" y="283.067" width="90.3859" height="89.0947" fill="#9399FF" fill-opacity="0.11"/>
<rect x="344.153" y="192.681" width="90.3859" height="89.0947" fill="#3038D3" fill-opacity="0.31"/>
<rect x="868.406" y="192.681" width="90.3859" height="89.0947" fill="#9399FF" fill-opacity="0.11"/>
<rect x="344.153" y="102.295" width="90.3859" height="89.0947" fill="#3038D3" fill-opacity="0.31"/>
<rect x="237.059" y="827.965" width="90.3859" height="90.3859" fill="#3038D3" fill-opacity="0.25"/>
<rect x="237.059" y="918.351" width="90.3859" height="91.6772" fill="#3038D3" fill-opacity="0.25"/>
<rect x="1228" y="317.98" width="90" height="327" fill="url(#paint2_linear_2052_88511)" fill-opacity="0.6"/>
<rect x="1138" y="277.98" width="90" height="327" fill="url(#paint3_linear_2052_88511)" fill-opacity="0.2"/>
<rect x="1048" y="187.98" width="90" height="327" fill="url(#paint4_linear_2052_88511)" fill-opacity="0.4"/>
<rect x="58.9954" y="827.579" width="90.3859" height="90.3859" fill="#3038D3" fill-opacity="0.25"/>
<rect x="1047.19" y="100.366" width="92" height="92" fill="#3E46DF"/>
<rect x="1138.19" y="191.366" width="92" height="92" fill="#3E46DF"/>
<rect x="1228" y="282.98" width="90.3859" height="90.3859" fill="#3E46DF"/>
<rect x="1048" y="373.98" width="90.3859" height="90.3859" fill="#3038D3"/>
<rect x="72.9955" y="99.7124" width="91.6772" height="92.9684" fill="#3038D3" fill-opacity="0.24"/>
<rect x="-18.6815" y="9.32617" width="91.6772" height="90.3859" fill="#3038D3" fill-opacity="0.24"/>
<rect x="-18.6815" y="99.7124" width="91.6772" height="92.9684" fill="#3038D3" fill-opacity="0.24"/>
<rect x="326.445" y="-81.0596" width="91.6772" height="90.3859" fill="#3038D3"/>
<rect x="72.9955" y="281.775" width="90.3859" height="91.6772" fill="#3038D3" fill-opacity="0.24"/>
<rect x="1228.08" y="737.579" width="90.3859" height="90.3859" fill="#6369E4" fill-opacity="0.26"/>
<rect x="1318.47" y="827.964" width="90.3859" height="90.3859" fill="#3038D3" fill-opacity="0.26"/>
</g>
</g>
</g>
<defs>
<linearGradient id="paint0_linear_2052_88511" x1="-585.816" y1="-465.514" x2="-73.7792" y2="-192.807" gradientUnits="userSpaceOnUse">
<stop stop-color="white"/>
<stop offset="1" stop-color="white" stop-opacity="0"/>
</linearGradient>
<radialGradient id="paint1_radial_2052_88511" cx="0" cy="0" r="1" gradientUnits="userSpaceOnUse" gradientTransform="translate(138.241 1260.1) rotate(-46.111) scale(877.426 1649.97)">
<stop stop-color="white"/>
<stop offset="1" stop-color="white" stop-opacity="0"/>
</radialGradient>
<linearGradient id="paint2_linear_2052_88511" x1="1273" y1="317.98" x2="1273" y2="644.98" gradientUnits="userSpaceOnUse">
<stop stop-color="#111787"/>
<stop offset="1" stop-color="#111787" stop-opacity="0"/>
</linearGradient>
<linearGradient id="paint3_linear_2052_88511" x1="1183" y1="277.98" x2="1183" y2="604.98" gradientUnits="userSpaceOnUse">
<stop stop-color="#111787"/>
<stop offset="1" stop-color="#111787" stop-opacity="0"/>
</linearGradient>
<linearGradient id="paint4_linear_2052_88511" x1="1093" y1="187.98" x2="1093" y2="514.98" gradientUnits="userSpaceOnUse">
<stop stop-color="#111787"/>
<stop offset="1" stop-color="#111787" stop-opacity="0"/>
</linearGradient>
<clipPath id="clip0_2052_88511">
<rect width="1440" height="934" fill="white" transform="translate(0 0.97998)"/>
</clipPath>
</defs>
</svg>
