<svg width="74" height="74" viewBox="0 0 74 74" fill="none" xmlns="http://www.w3.org/2000/svg">
<path d="M37 6.66669C53.7129 6.66669 67.3338 20.2868 67.334 36.9997C67.334 53.7127 53.713 67.3337 37 67.3337C20.2871 67.3335 6.66699 53.7126 6.66699 36.9997C6.66717 20.2869 20.2872 6.66687 37 6.66669ZM38.3643 46.0349C37.5014 45.6754 36.4997 45.6754 35.6367 46.0349C35.2128 46.2115 34.8254 46.4583 34.4766 46.7722L34.457 46.7897L34.4395 46.8093C34.1255 47.1581 33.8788 47.5455 33.7021 47.9694C33.5267 48.3906 33.417 48.857 33.417 49.3337C33.417 49.7508 33.501 50.1599 33.6396 50.5378L33.7021 50.697C33.884 51.1646 34.137 51.5211 34.4395 51.8571L34.457 51.8766L34.4766 51.8942C34.8254 52.2082 35.2128 52.4549 35.6367 52.6315C36.0577 52.8069 36.5235 52.9166 37 52.9167C37.4767 52.9167 37.9431 52.807 38.3643 52.6315C38.7882 52.4549 39.1756 52.2082 39.5244 51.8942L39.5439 51.8766L39.5615 51.8571C39.8639 51.5211 40.1169 51.1646 40.2988 50.697C40.4742 50.276 40.5839 49.8101 40.584 49.3337C40.584 48.857 40.4743 48.3905 40.2988 47.9694C40.1222 47.5455 39.8755 47.1581 39.5615 46.8093L39.5439 46.7897L39.5244 46.7722L39.2549 46.5495C38.9791 46.3395 38.6821 46.1673 38.3643 46.0349ZM37 21.8542C35.4598 21.8544 34.1875 23.1265 34.1875 24.6667V40.0837C34.1877 41.6237 35.4599 42.896 37 42.8962C38.5402 42.8962 39.8123 41.6238 39.8125 40.0837V24.6667C39.8125 23.1264 38.5403 21.8542 37 21.8542Z" fill="#54A6FF" stroke="#9CD323"/>
</svg>
