<svg width="156" height="24" viewBox="0 0 156 24" fill="none" xmlns="http://www.w3.org/2000/svg">
<g clip-path="url(#clip0_95_158512)">
<g clip-path="url(#clip1_95_158512)">
<g clip-path="url(#clip2_95_158512)">
<mask id="mask0_95_158512" style="mask-type:luminance" maskUnits="userSpaceOnUse" x="0" y="0" width="156" height="24">
<path d="M155.298 0.000976562H0V23.6597H155.298V0.000976562Z" fill="white"/>
</mask>
<g mask="url(#mask0_95_158512)">
<path d="M21.0587 1.30078H0V10.4264H21.0587V1.30078Z" fill="white"/>
<path d="M8.18948 12.7666H0V22.3602H8.18948V12.7666Z" fill="#008CFF"/>
<path d="M21.0591 12.7666H10.5298V22.3602H21.0591V12.7666Z" fill="#60CDFF"/>
<path d="M31.6624 19.2238V4.40648H37.5749C38.7129 4.40648 39.6795 4.595 40.4747 4.97203C41.2767 5.34906 41.8834 5.89061 42.2947 6.59669C42.706 7.29591 42.9117 8.11513 42.9117 9.05423C42.9117 10.0003 42.706 10.8297 42.2947 11.5426C41.8834 12.2488 41.2767 12.7971 40.4747 13.1879C39.6726 13.5718 38.706 13.7637 37.5749 13.7637H34.9837V19.2238H31.6624ZM37.2768 11.1519C37.7635 11.1519 38.1816 11.0731 38.5313 10.9154C38.8877 10.7509 39.1619 10.5144 39.3538 10.2059C39.5458 9.89744 39.6417 9.51351 39.6417 9.05423C39.6417 8.60183 39.5458 8.22477 39.3538 7.92312C39.1619 7.61467 38.8877 7.38845 38.5313 7.2445C38.1816 7.10054 37.7635 7.02856 37.2768 7.02856H34.9837V11.1519H37.2768ZM44.2998 19.2238V4.3962H47.4977V9.34213H47.5388C47.8953 8.75946 48.3512 8.31386 48.9064 8.00541C49.4686 7.69008 50.1266 7.53238 50.8807 7.53238C51.6965 7.53238 52.3957 7.70376 52.9784 8.04652C53.5679 8.38927 54.0204 8.90341 54.3357 9.58892C54.651 10.2676 54.8087 11.1039 54.8087 12.0979V19.2238H51.6108V12.5298C51.6108 11.8237 51.4394 11.2753 51.0967 10.8845C50.7608 10.487 50.2877 10.2882 49.6776 10.2882C49.232 10.2882 48.8448 10.391 48.5157 10.5966C48.1866 10.7954 47.933 11.0765 47.7548 11.4398C47.5834 11.7963 47.4977 12.2042 47.4977 12.6635V19.2238H44.2998ZM59.7341 19.4089C59.0075 19.4089 58.3768 19.2718 57.8421 18.9976C57.3143 18.7233 56.9098 18.3395 56.6287 17.8459C56.3476 17.3523 56.2072 16.7799 56.2072 16.1287C56.2072 15.0936 56.5397 14.2949 57.2045 13.7328C57.8764 13.1707 58.7949 12.7937 59.9603 12.6018L62.3562 12.2213C62.5687 12.187 62.7366 12.1424 62.86 12.0877C62.9834 12.0259 63.076 11.9471 63.1376 11.8511C63.1994 11.7552 63.2302 11.6352 63.2302 11.4912C63.2302 11.1828 63.1582 10.9154 63.0142 10.6892C62.8772 10.4561 62.6715 10.2779 62.3973 10.1545C62.1231 10.0242 61.7975 9.95911 61.4205 9.95911C61.0571 9.95911 60.7418 10.0242 60.4745 10.1545C60.2139 10.2779 60.0048 10.4561 59.8472 10.6892C59.6964 10.9154 59.6004 11.1862 59.5593 11.5015H56.4848C56.567 10.6789 56.8173 9.96938 57.2354 9.37303C57.6535 8.77661 58.2225 8.32074 58.9423 8.00541C59.6621 7.69008 60.5019 7.53238 61.4616 7.53238C62.4418 7.53238 63.2953 7.68321 64.022 7.98486C64.7486 8.2865 65.3142 8.7355 65.7186 9.33185C66.1231 9.92827 66.3253 10.6481 66.3253 11.4912V19.2238H63.2302V17.6197H63.1891C62.8463 18.1955 62.3733 18.6377 61.7701 18.9462C61.1737 19.2546 60.495 19.4089 59.7341 19.4089ZM60.8138 17.0336C61.3005 17.0336 61.7255 16.9136 62.0888 16.6737C62.459 16.4269 62.7401 16.0979 62.932 15.6866C63.1308 15.2684 63.2302 14.8126 63.2302 14.319V13.8871C63.1342 13.9488 63.0074 14.0036 62.8497 14.0516C62.6989 14.0927 62.5275 14.1339 62.3356 14.175L60.5772 14.4629C60.2003 14.5315 59.8917 14.6686 59.6518 14.8742C59.4188 15.0799 59.3023 15.3747 59.3023 15.7585C59.3023 16.0191 59.3605 16.2452 59.477 16.4372C59.5936 16.6223 59.7649 16.7697 59.9912 16.8794C60.2242 16.9822 60.4984 17.0336 60.8138 17.0336ZM68.1556 19.2238V7.77917H71.3535V9.76377H71.3741C71.6894 9.10569 72.111 8.59836 72.6389 8.24192C73.1735 7.88541 73.8042 7.70723 74.531 7.70723C74.846 7.70723 75.0929 7.72439 75.2711 7.75862V10.6789C75.175 10.6584 75.0589 10.6412 74.9214 10.6275C74.7846 10.6138 74.6508 10.6069 74.5207 10.6069C73.8968 10.6069 73.3449 10.7372 72.8651 10.9977C72.3921 11.2582 72.0219 11.6283 71.7545 12.1082C71.4872 12.588 71.3535 13.1502 71.3535 13.7946V19.2238H68.1556ZM76.423 19.2238V7.77917H79.6206V9.12624H79.631C79.8232 8.79716 80.0731 8.51614 80.3814 8.28303C80.6904 8.04311 81.0498 7.85806 81.4616 7.72779C81.8726 7.59071 82.3288 7.5221 82.8286 7.5221C83.5827 7.5221 84.2208 7.67293 84.7413 7.97458C85.2625 8.27623 85.6566 8.71835 85.9242 9.30102H85.9346C86.2769 8.73203 86.7293 8.29331 87.292 7.98486C87.8539 7.6764 88.5289 7.5221 89.317 7.5221C90.0985 7.5221 90.7772 7.67981 91.3532 7.99513C91.9291 8.31046 92.3749 8.79029 92.6899 9.43469C93.0056 10.0722 93.1631 10.864 93.1631 11.81V19.2238H89.9654V12.2624C89.9654 11.6592 89.8072 11.1828 89.4922 10.8331C89.1839 10.4835 88.7551 10.3087 88.2065 10.3087C87.8295 10.3087 87.5005 10.3978 87.2195 10.5761C86.9452 10.7475 86.733 10.9943 86.5822 11.3165C86.438 11.6318 86.3663 12.0054 86.3663 12.4372V19.2238H83.2197V12.2624C83.2197 11.6592 83.0652 11.1828 82.7569 10.8331C82.4486 10.4767 82.0235 10.2985 81.4823 10.2985C81.1052 10.2985 80.7762 10.391 80.4945 10.5761C80.2202 10.7543 80.0043 11.0045 79.8469 11.3267C79.696 11.6489 79.6206 12.0191 79.6206 12.4372V19.2238H76.423ZM98.0885 19.4089C97.3617 19.4089 96.7311 19.2718 96.1965 18.9976C95.6687 18.7233 95.2642 18.3395 94.9833 17.8459C94.7023 17.3523 94.5611 16.7799 94.5611 16.1287C94.5611 15.0936 94.8938 14.2949 95.5592 13.7328C96.2306 13.1707 97.1496 12.7937 98.3148 12.6018L100.71 12.2213C100.923 12.187 101.091 12.1424 101.214 12.0877C101.338 12.0259 101.43 11.9471 101.492 11.8511C101.554 11.7552 101.585 11.6352 101.585 11.4912C101.585 11.1828 101.512 10.9154 101.369 10.6892C101.231 10.4561 101.026 10.2779 100.752 10.1545C100.477 10.0242 100.152 9.95911 99.7749 9.95911C99.4112 9.95911 99.0962 10.0242 98.8286 10.1545C98.5683 10.2779 98.3591 10.4561 98.2016 10.6892C98.0508 10.9154 97.9547 11.1862 97.9133 11.5015H94.8391C94.9212 10.6789 95.1718 9.96938 95.5896 9.37303C96.008 8.77661 96.5766 8.32074 97.2967 8.00541C98.0168 7.69008 98.8559 7.53238 99.8156 7.53238C100.796 7.53238 101.65 7.68321 102.377 7.98486C103.103 8.2865 103.668 8.7355 104.073 9.33185C104.477 9.92827 104.68 10.6481 104.68 11.4912V19.2238H101.585V17.6197H101.543C101.2 18.1955 100.728 18.6377 100.125 18.9462C99.528 19.2546 98.8493 19.4089 98.0885 19.4089ZM99.1679 17.0336C99.6552 17.0336 100.08 16.9136 100.443 16.6737C100.814 16.4269 101.095 16.0979 101.286 15.6866C101.485 15.2684 101.585 14.8126 101.585 14.319V13.8871C101.489 13.9488 101.362 14.0036 101.204 14.0516C101.053 14.0927 100.882 14.1339 100.69 14.175L98.9314 14.4629C98.5543 14.5315 98.246 14.6686 98.0064 14.8742C97.7728 15.0799 97.6567 15.3747 97.6567 15.7585C97.6567 16.0191 97.7151 16.2452 97.8312 16.4372C97.948 16.6223 98.1196 16.7697 98.3458 16.8794C98.5787 16.9822 98.853 17.0336 99.1679 17.0336ZM111.96 19.4706C110.733 19.4706 109.684 19.2855 108.813 18.9154C107.942 18.5383 107.267 17.9796 106.788 17.2393C106.308 16.4989 106.037 15.5974 105.975 14.5349H109.44C109.461 14.9873 109.567 15.3883 109.759 15.738C109.951 16.0807 110.232 16.3515 110.603 16.5503C110.98 16.7422 111.442 16.8383 111.99 16.8383C112.457 16.8383 112.855 16.7765 113.184 16.6531C113.513 16.5297 113.77 16.3447 113.955 16.0979C114.14 15.8442 114.232 15.5392 114.232 15.1827C114.232 14.8057 114.15 14.4972 113.986 14.2573C113.828 14.0173 113.574 13.822 113.224 13.6712C112.875 13.5203 112.392 13.3935 111.774 13.2907C110.588 13.085 109.612 12.8246 108.844 12.5092C108.083 12.1939 107.494 11.7517 107.075 11.1828C106.657 10.6069 106.448 9.86314 106.448 8.95139C106.448 7.94375 106.661 7.0834 107.085 6.37047C107.518 5.65068 108.145 5.10228 108.968 4.72525C109.79 4.34136 110.781 4.14941 111.939 4.14941C113.07 4.14941 114.04 4.33108 114.849 4.69439C115.665 5.05772 116.299 5.59584 116.752 6.30877C117.211 7.01485 117.481 7.88541 117.564 8.92056H114.109C114.088 8.47496 113.986 8.0945 113.8 7.77917C113.622 7.46384 113.368 7.22051 113.039 7.04913C112.71 6.8709 112.316 6.78178 111.857 6.78178C111.439 6.78178 111.076 6.85033 110.767 6.98743C110.458 7.12453 110.219 7.32333 110.047 7.58384C109.882 7.84431 109.8 8.15283 109.8 8.50927C109.8 8.83147 109.872 9.09541 110.016 9.30102C110.167 9.50671 110.41 9.68148 110.747 9.82543C111.089 9.96258 111.566 10.0894 112.176 10.2059C113.43 10.439 114.448 10.7166 115.229 11.0388C116.018 11.361 116.624 11.8203 117.05 12.4167C117.481 13.0131 117.697 13.8014 117.697 14.7817C117.697 15.81 117.471 16.6737 117.018 17.3729C116.567 18.0721 115.912 18.5966 115.055 18.9462C114.205 19.2958 113.173 19.4706 111.96 19.4706ZM124.474 19.4706C123.329 19.4706 122.328 19.2272 121.472 18.7405C120.621 18.2469 119.966 17.5511 119.507 16.6531C119.048 15.7551 118.818 14.7166 118.818 13.5375C118.818 12.3447 119.048 11.2959 119.507 10.391C119.966 9.48615 120.621 8.78349 121.472 8.28303C122.328 7.78265 123.329 7.53238 124.474 7.53238C125.578 7.53238 126.534 7.77237 127.343 8.2522C128.158 8.73203 128.782 9.40386 129.214 10.2676C129.646 11.1313 129.862 12.1151 129.862 13.2187C129.862 13.3764 129.855 13.558 129.842 13.7637C129.827 13.9693 129.807 14.1613 129.779 14.3395H121.934C122.002 14.9359 122.147 15.4295 122.366 15.8203C122.585 16.211 122.876 16.4989 123.24 16.684C123.603 16.8691 124.035 16.9616 124.535 16.9616C124.912 16.9616 125.241 16.9102 125.522 16.8074C125.804 16.6977 126.033 16.5435 126.211 16.3447C126.397 16.1459 126.534 15.906 126.623 15.6249H129.718C129.608 16.3995 129.317 17.0782 128.844 17.6608C128.371 18.2366 127.757 18.6822 127.003 18.9976C126.249 19.3129 125.406 19.4706 124.474 19.4706ZM126.736 12.2624C126.695 11.7483 126.582 11.3096 126.397 10.9463C126.211 10.5761 125.955 10.2985 125.625 10.1133C125.296 9.9214 124.906 9.82543 124.453 9.82543C124.021 9.82543 123.634 9.90772 123.291 10.0722C122.949 10.2299 122.66 10.4904 122.427 10.8537C122.201 11.217 122.047 11.6866 121.965 12.2624H126.736ZM131.373 19.2238V7.77917H134.571V9.76377H134.592C134.907 9.10569 135.329 8.59836 135.857 8.24192C136.391 7.88541 137.022 7.70723 137.749 7.70723C138.064 7.70723 138.311 7.72439 138.489 7.75862V10.6789C138.393 10.6584 138.277 10.6412 138.139 10.6275C138.002 10.6138 137.869 10.6069 137.738 10.6069C137.114 10.6069 136.563 10.7372 136.083 10.9977C135.61 11.2582 135.239 11.6283 134.973 12.1082C134.705 12.588 134.571 13.1502 134.571 13.7946V19.2238H131.373ZM143.301 19.2238L139.024 7.77917H142.304L144.165 13.702C144.275 14.0791 144.384 14.456 144.494 14.8331C144.611 15.2033 144.713 15.5392 144.803 15.8408H144.823C144.912 15.5392 145.008 15.2033 145.111 14.8331C145.22 14.456 145.334 14.0791 145.45 13.702L147.271 7.77917H150.55L146.366 19.2238H143.301Z" fill="white"/>
</g>
</g>
</g>
</g>
<defs>
<clipPath id="clip0_95_158512">
<rect width="156" height="23.66" fill="white"/>
</clipPath>
<clipPath id="clip1_95_158512">
<rect width="156" height="23.66" fill="white"/>
</clipPath>
<clipPath id="clip2_95_158512">
<rect width="156" height="23.6588" fill="white" transform="translate(0 0.000976562)"/>
</clipPath>
</defs>
</svg>
