<svg width="30" height="22" viewBox="0 0 30 22" fill="none" xmlns="http://www.w3.org/2000/svg">
<path d="M14.728 0.701172L13.8443 6.35578C13.5695 8.02469 12.9607 9.7819 12.0183 11.6275C11.0954 13.4535 9.92709 15.2108 8.51332 16.8993C7.11918 18.5878 5.57782 20.0408 3.88917 21.2581L0.00134277 18.1362C1.43474 16.4477 2.73067 14.6512 3.88917 12.7467C5.04767 10.8422 5.82327 8.74133 6.21597 6.44414L7.18795 0.701172H14.728ZM29.7196 0.701172L28.8361 6.35578C28.5612 8.02469 27.9525 9.7819 27.0099 11.6275C26.0871 13.4535 24.9188 15.2108 23.505 16.8993C22.1109 18.5878 20.5597 20.0408 18.8514 21.2581L14.9636 18.1362C16.397 16.4477 17.6929 14.6512 18.8514 12.7467C20.0295 10.8422 20.815 8.74133 21.2077 6.44414L22.1796 0.701172H29.7196Z" fill="#001C64"/>
</svg>
