<svg width="36" height="36" viewBox="0 0 36 36" fill="none" xmlns="http://www.w3.org/2000/svg">
<g clip-path="url(#clip0_3009_108837)">
<g clip-path="url(#clip1_3009_108837)">
<path d="M28.125 22.973V26.951C28.1249 27.2357 28.017 27.5097 27.8229 27.7179C27.6288 27.9261 27.363 28.053 27.079 28.073C26.587 28.107 26.186 28.125 25.875 28.125C15.933 28.125 7.875 20.067 7.875 10.125C7.875 9.815 7.892 9.413 7.927 8.921C7.947 8.63688 8.07403 8.37091 8.28245 8.17678C8.49087 7.98265 8.76517 7.8748 9.05 7.875H13.027C13.1664 7.87503 13.3009 7.92679 13.4043 8.02027C13.5078 8.11375 13.5729 8.24229 13.587 8.381C13.614 8.64 13.637 8.846 13.66 9.002C13.883 10.562 14.341 12.08 15.019 13.503C15.0707 13.6119 15.0824 13.7355 15.052 13.8522C15.0217 13.9689 14.9512 14.0711 14.853 14.141L12.426 15.876C13.9104 19.335 16.667 22.0916 20.126 23.576L21.858 21.152C21.9289 21.0533 22.0322 20.9825 22.1498 20.952C22.2674 20.9215 22.3921 20.9332 22.502 20.985C23.9252 21.6608 25.4423 22.1176 27.002 22.34C27.159 22.363 27.365 22.387 27.621 22.412C27.7595 22.4263 27.8878 22.4915 27.9811 22.595C28.0744 22.6984 28.126 22.8327 28.126 22.972L28.125 22.973Z" fill="#001C64"/>
<path d="M28.125 22.973V26.951C28.1249 27.2357 28.017 27.5097 27.8229 27.7179C27.6288 27.9261 27.363 28.053 27.079 28.073C26.587 28.107 26.186 28.125 25.875 28.125C15.933 28.125 7.875 20.067 7.875 10.125C7.875 9.815 7.892 9.413 7.927 8.921C7.947 8.63688 8.07403 8.37091 8.28245 8.17678C8.49087 7.98265 8.76517 7.8748 9.05 7.875H13.027C13.1664 7.87503 13.3009 7.92679 13.4043 8.02027C13.5078 8.11375 13.5729 8.24229 13.587 8.381C13.614 8.64 13.637 8.846 13.66 9.002C13.883 10.562 14.341 12.08 15.019 13.503C15.0707 13.6119 15.0824 13.7355 15.052 13.8522C15.0217 13.9689 14.9512 14.0711 14.853 14.141L12.426 15.876C13.9104 19.335 16.667 22.0916 20.126 23.576L21.858 21.152C21.9289 21.0533 22.0322 20.9825 22.1498 20.952C22.2674 20.9215 22.3921 20.9332 22.502 20.985C23.9252 21.6608 25.4423 22.1176 27.002 22.34C27.159 22.363 27.365 22.387 27.621 22.412C27.7595 22.4263 27.8878 22.4915 27.9811 22.595C28.0744 22.6984 28.126 22.8327 28.126 22.972L28.125 22.973Z" fill="url(#paint0_linear_3009_108837)" fill-opacity="0.24"/>
</g>
</g>
<defs>
<linearGradient id="paint0_linear_3009_108837" x1="18.001" y1="7.875" x2="18.001" y2="28.125" gradientUnits="userSpaceOnUse">
<stop stop-color="white"/>
<stop offset="1" stop-color="white" stop-opacity="0"/>
</linearGradient>
<clipPath id="clip0_3009_108837">
<rect width="36" height="36" fill="white"/>
</clipPath>
<clipPath id="clip1_3009_108837">
<rect width="36" height="36" fill="white"/>
</clipPath>
</defs>
</svg>
