<svg width="36" height="36" viewBox="0 0 36 36" fill="none" xmlns="http://www.w3.org/2000/svg">
<g clip-path="url(#clip0_3009_108852)">
<g clip-path="url(#clip1_3009_108852)">
<path d="M25.16 24.0349L18 31.1939L10.84 24.0339C9.42415 22.6178 8.45999 20.8137 8.06944 18.8497C7.67889 16.8857 7.87949 14.85 8.64587 13C9.41225 11.15 10.71 9.56874 12.375 8.45626C14.04 7.34378 15.9975 6.75 18 6.75C20.0025 6.75 21.96 7.34378 23.625 8.45626C25.29 9.56874 26.5878 11.15 27.3541 13C28.1205 14.85 28.3211 16.8857 27.9306 18.8497C27.54 20.8137 26.5759 22.6188 25.16 24.0349ZM18 21.3749C19.1935 21.3749 20.3381 20.9008 21.182 20.0569C22.0259 19.213 22.5 18.0684 22.5 16.8749C22.5 15.6814 22.0259 14.5368 21.182 13.6929C20.3381 12.849 19.1935 12.3749 18 12.3749C16.8065 12.3749 15.6619 12.849 14.818 13.6929C13.9741 14.5368 13.5 15.6814 13.5 16.8749C13.5 18.0684 13.9741 19.213 14.818 20.0569C15.6619 20.9008 16.8065 21.3749 18 21.3749ZM18 19.1249C17.4033 19.1249 16.831 18.8879 16.409 18.4659C15.9871 18.0439 15.75 17.4716 15.75 16.8749C15.75 16.2782 15.9871 15.7059 16.409 15.2839C16.831 14.862 17.4033 14.6249 18 14.6249C18.5967 14.6249 19.169 14.862 19.591 15.2839C20.013 15.7059 20.25 16.2782 20.25 16.8749C20.25 17.4716 20.013 18.0439 19.591 18.4659C19.169 18.8879 18.5967 19.1249 18 19.1249Z" fill="#001C64"/>
<path d="M25.16 24.0349L18 31.1939L10.84 24.0339C9.42415 22.6178 8.45999 20.8137 8.06944 18.8497C7.67889 16.8857 7.87949 14.85 8.64587 13C9.41225 11.15 10.71 9.56874 12.375 8.45626C14.04 7.34378 15.9975 6.75 18 6.75C20.0025 6.75 21.96 7.34378 23.625 8.45626C25.29 9.56874 26.5878 11.15 27.3541 13C28.1205 14.85 28.3211 16.8857 27.9306 18.8497C27.54 20.8137 26.5759 22.6188 25.16 24.0349ZM18 21.3749C19.1935 21.3749 20.3381 20.9008 21.182 20.0569C22.0259 19.213 22.5 18.0684 22.5 16.8749C22.5 15.6814 22.0259 14.5368 21.182 13.6929C20.3381 12.849 19.1935 12.3749 18 12.3749C16.8065 12.3749 15.6619 12.849 14.818 13.6929C13.9741 14.5368 13.5 15.6814 13.5 16.8749C13.5 18.0684 13.9741 19.213 14.818 20.0569C15.6619 20.9008 16.8065 21.3749 18 21.3749ZM18 19.1249C17.4033 19.1249 16.831 18.8879 16.409 18.4659C15.9871 18.0439 15.75 17.4716 15.75 16.8749C15.75 16.2782 15.9871 15.7059 16.409 15.2839C16.831 14.862 17.4033 14.6249 18 14.6249C18.5967 14.6249 19.169 14.862 19.591 15.2839C20.013 15.7059 20.25 16.2782 20.25 16.8749C20.25 17.4716 20.013 18.0439 19.591 18.4659C19.169 18.8879 18.5967 19.1249 18 19.1249Z" fill="url(#paint0_linear_3009_108852)" fill-opacity="0.24"/>
</g>
</g>
<defs>
<linearGradient id="paint0_linear_3009_108852" x1="18" y1="6.74991" x2="18" y2="31.1939" gradientUnits="userSpaceOnUse">
<stop stop-color="white"/>
<stop offset="1" stop-color="white" stop-opacity="0"/>
</linearGradient>
<clipPath id="clip0_3009_108852">
<rect width="36" height="36" fill="white"/>
</clipPath>
<clipPath id="clip1_3009_108852">
<rect width="36" height="36" fill="white"/>
</clipPath>
</defs>
</svg>
