<svg width="36" height="36" viewBox="0 0 36 36" fill="none" xmlns="http://www.w3.org/2000/svg">
<g clip-path="url(#clip0_3009_108822)">
<g clip-path="url(#clip1_3009_108822)">
<path d="M7.875 7.875H28.125C28.4234 7.875 28.7095 7.99353 28.9205 8.2045C29.1315 8.41548 29.25 8.70163 29.25 9V27C29.25 27.2984 29.1315 27.5845 28.9205 27.7955C28.7095 28.0065 28.4234 28.125 28.125 28.125H7.875C7.57663 28.125 7.29048 28.0065 7.0795 27.7955C6.86853 27.5845 6.75 27.2984 6.75 27V9C6.75 8.70163 6.86853 8.41548 7.0795 8.2045C7.29048 7.99353 7.57663 7.875 7.875 7.875ZM18.067 17.643L10.854 11.518L9.397 13.232L18.082 20.607L26.611 13.227L25.139 11.524L18.069 17.644L18.067 17.643Z" fill="#001C64"/>
<path d="M7.875 7.875H28.125C28.4234 7.875 28.7095 7.99353 28.9205 8.2045C29.1315 8.41548 29.25 8.70163 29.25 9V27C29.25 27.2984 29.1315 27.5845 28.9205 27.7955C28.7095 28.0065 28.4234 28.125 28.125 28.125H7.875C7.57663 28.125 7.29048 28.0065 7.0795 27.7955C6.86853 27.5845 6.75 27.2984 6.75 27V9C6.75 8.70163 6.86853 8.41548 7.0795 8.2045C7.29048 7.99353 7.57663 7.875 7.875 7.875ZM18.067 17.643L10.854 11.518L9.397 13.232L18.082 20.607L26.611 13.227L25.139 11.524L18.069 17.644L18.067 17.643Z" fill="url(#paint0_linear_3009_108822)" fill-opacity="0.24"/>
</g>
</g>
<defs>
<linearGradient id="paint0_linear_3009_108822" x1="18" y1="7.875" x2="18" y2="28.125" gradientUnits="userSpaceOnUse">
<stop stop-color="white"/>
<stop offset="1" stop-color="white" stop-opacity="0"/>
</linearGradient>
<clipPath id="clip0_3009_108822">
<rect width="36" height="36" fill="white"/>
</clipPath>
<clipPath id="clip1_3009_108822">
<rect width="36" height="36" fill="white"/>
</clipPath>
</defs>
</svg>
