<svg width="32" height="32" viewBox="0 0 32 32" fill="none" xmlns="http://www.w3.org/2000/svg">
<path d="M12.498 24.0001H19.502C18.8404 25.5824 17.5823 26.8405 16 27.5021C14.4177 26.8405 13.1596 25.5824 12.498 24.0001ZM22 18.8051L24 21.0731V23.0001H8V21.0731L10 18.8051V13.0001C10 9.51708 12.504 6.55308 16 5.45508C19.496 6.55308 22 9.51708 22 13.0001V18.8051ZM16 15.0001C16.5304 15.0001 17.0391 14.7894 17.4142 14.4143C17.7893 14.0392 18 13.5305 18 13.0001C18 12.4696 17.7893 11.9609 17.4142 11.5859C17.0391 11.2108 16.5304 11.0001 16 11.0001C15.4696 11.0001 14.9609 11.2108 14.5858 11.5859C14.2107 11.9609 14 12.4696 14 13.0001C14 13.5305 14.2107 14.0392 14.5858 14.4143C14.9609 14.7894 15.4696 15.0001 16 15.0001Z" fill="#001C64"/>
<path d="M12.498 24.0001H19.502C18.8404 25.5824 17.5823 26.8405 16 27.5021C14.4177 26.8405 13.1596 25.5824 12.498 24.0001ZM22 18.8051L24 21.0731V23.0001H8V21.0731L10 18.8051V13.0001C10 9.51708 12.504 6.55308 16 5.45508C19.496 6.55308 22 9.51708 22 13.0001V18.8051ZM16 15.0001C16.5304 15.0001 17.0391 14.7894 17.4142 14.4143C17.7893 14.0392 18 13.5305 18 13.0001C18 12.4696 17.7893 11.9609 17.4142 11.5859C17.0391 11.2108 16.5304 11.0001 16 11.0001C15.4696 11.0001 14.9609 11.2108 14.5858 11.5859C14.2107 11.9609 14 12.4696 14 13.0001C14 13.5305 14.2107 14.0392 14.5858 14.4143C14.9609 14.7894 15.4696 15.0001 16 15.0001Z" fill="url(#paint0_linear_2998_107972)" fill-opacity="0.24"/>
<defs>
<linearGradient id="paint0_linear_2998_107972" x1="16" y1="5.45508" x2="16" y2="27.5021" gradientUnits="userSpaceOnUse">
<stop stop-color="white"/>
<stop offset="1" stop-color="white" stop-opacity="0"/>
</linearGradient>
</defs>
</svg>
