<svg width="32" height="32" viewBox="0 0 32 32" fill="none" xmlns="http://www.w3.org/2000/svg">
<path d="M15.9994 27C14.4965 26.9999 13.0284 26.5483 11.7853 25.7037C10.5422 24.8592 9.58146 23.6606 9.02771 22.2635C8.47395 20.8664 8.35269 19.3352 8.67964 17.8683C9.0066 16.4015 9.76669 15.0667 10.8614 14.037C12.2034 12.774 15.4994 10.5 14.9994 5.5C20.9994 9.5 23.9994 13.5 17.9994 19.5C18.9994 19.5 20.4994 19.5 22.9994 17.03C23.2694 17.803 23.4994 18.634 23.4994 19.5C23.4994 21.4891 22.7092 23.3968 21.3027 24.8033C19.8961 26.2098 17.9885 27 15.9994 27Z" fill="#001C64"/>
<path d="M15.9994 27C14.4965 26.9999 13.0284 26.5483 11.7853 25.7037C10.5422 24.8592 9.58146 23.6606 9.02771 22.2635C8.47395 20.8664 8.35269 19.3352 8.67964 17.8683C9.0066 16.4015 9.76669 15.0667 10.8614 14.037C12.2034 12.774 15.4994 10.5 14.9994 5.5C20.9994 9.5 23.9994 13.5 17.9994 19.5C18.9994 19.5 20.4994 19.5 22.9994 17.03C23.2694 17.803 23.4994 18.634 23.4994 19.5C23.4994 21.4891 22.7092 23.3968 21.3027 24.8033C19.8961 26.2098 17.9885 27 15.9994 27Z" fill="url(#paint0_linear_2998_107949)" fill-opacity="0.24"/>
<defs>
<linearGradient id="paint0_linear_2998_107949" x1="15.9994" y1="5.5" x2="15.9994" y2="27" gradientUnits="userSpaceOnUse">
<stop stop-color="white"/>
<stop offset="1" stop-color="white" stop-opacity="0"/>
</linearGradient>
</defs>
</svg>
