<svg width="32" height="33" viewBox="0 0 32 33" fill="none" xmlns="http://www.w3.org/2000/svg">
<g clip-path="url(#clip0_3031_210184)">
<g clip-path="url(#clip1_3031_210184)">
<g clip-path="url(#clip2_3031_210184)">
<path d="M11 15.2793C9.80626 15.2793 8.66141 14.8051 7.81731 13.961C6.97321 13.1169 6.499 11.9721 6.499 10.7783C6.499 9.5846 6.97321 8.43976 7.81731 7.59566C8.66141 6.75155 9.80626 6.27734 11 6.27734C12.1937 6.27734 13.3386 6.75155 14.1827 7.59566C15.0268 8.43976 15.501 9.5846 15.501 10.7783C15.501 11.9721 15.0268 13.1169 14.1827 13.961C13.3386 14.8051 12.1937 15.2793 11 15.2793ZM21.5 19.2793C20.4391 19.2793 19.4217 18.8579 18.6716 18.1078C17.9214 17.3576 17.5 16.3402 17.5 15.2793C17.5 14.2185 17.9214 13.2011 18.6716 12.4509C19.4217 11.7008 20.4391 11.2793 21.5 11.2793C22.5609 11.2793 23.5783 11.7008 24.3284 12.4509C25.0786 13.2011 25.5 14.2185 25.5 15.2793C25.5 16.3402 25.0786 17.3576 24.3284 18.1078C23.5783 18.8579 22.5609 19.2793 21.5 19.2793ZM21.5 20.2793C22.6935 20.2793 23.8381 20.7534 24.682 21.5974C25.5259 22.4413 26 23.5859 26 24.7793V25.2793H17V24.7793C17 23.5859 17.4741 22.4413 18.318 21.5974C19.1619 20.7534 20.3065 20.2793 21.5 20.2793ZM11 16.2793C12.3261 16.2793 13.5979 16.8061 14.5355 17.7438C15.4732 18.6815 16 19.9533 16 21.2793V25.2793H6V21.2793C6 19.9533 6.52678 18.6815 7.46447 17.7438C8.40215 16.8061 9.67392 16.2793 11 16.2793Z" fill="#001C64"/>
<path d="M11 15.2793C9.80626 15.2793 8.66141 14.8051 7.81731 13.961C6.97321 13.1169 6.499 11.9721 6.499 10.7783C6.499 9.5846 6.97321 8.43976 7.81731 7.59566C8.66141 6.75155 9.80626 6.27734 11 6.27734C12.1937 6.27734 13.3386 6.75155 14.1827 7.59566C15.0268 8.43976 15.501 9.5846 15.501 10.7783C15.501 11.9721 15.0268 13.1169 14.1827 13.961C13.3386 14.8051 12.1937 15.2793 11 15.2793ZM21.5 19.2793C20.4391 19.2793 19.4217 18.8579 18.6716 18.1078C17.9214 17.3576 17.5 16.3402 17.5 15.2793C17.5 14.2185 17.9214 13.2011 18.6716 12.4509C19.4217 11.7008 20.4391 11.2793 21.5 11.2793C22.5609 11.2793 23.5783 11.7008 24.3284 12.4509C25.0786 13.2011 25.5 14.2185 25.5 15.2793C25.5 16.3402 25.0786 17.3576 24.3284 18.1078C23.5783 18.8579 22.5609 19.2793 21.5 19.2793ZM21.5 20.2793C22.6935 20.2793 23.8381 20.7534 24.682 21.5974C25.5259 22.4413 26 23.5859 26 24.7793V25.2793H17V24.7793C17 23.5859 17.4741 22.4413 18.318 21.5974C19.1619 20.7534 20.3065 20.2793 21.5 20.2793ZM11 16.2793C12.3261 16.2793 13.5979 16.8061 14.5355 17.7438C15.4732 18.6815 16 19.9533 16 21.2793V25.2793H6V21.2793C6 19.9533 6.52678 18.6815 7.46447 17.7438C8.40215 16.8061 9.67392 16.2793 11 16.2793Z" fill="url(#paint0_linear_3031_210184)" fill-opacity="0.24"/>
</g>
</g>
</g>
<defs>
<linearGradient id="paint0_linear_3031_210184" x1="16" y1="6.27934" x2="16" y2="25.2793" gradientUnits="userSpaceOnUse">
<stop stop-color="white"/>
<stop offset="1" stop-color="white" stop-opacity="0"/>
</linearGradient>
<clipPath id="clip0_3031_210184">
<rect width="32" height="32" fill="white" transform="translate(0 0.279297)"/>
</clipPath>
<clipPath id="clip1_3031_210184">
<rect width="32" height="32" fill="white" transform="translate(0 0.279297)"/>
</clipPath>
<clipPath id="clip2_3031_210184">
<rect width="32" height="32" fill="white" transform="translate(0 0.279297)"/>
</clipPath>
</defs>
</svg>
