<svg width="32" height="33" viewBox="0 0 32 33" fill="none" xmlns="http://www.w3.org/2000/svg">
<g clip-path="url(#clip0_3031_210166)">
<g clip-path="url(#clip1_3031_210166)">
<g clip-path="url(#clip2_3031_210166)">
<path d="M12.498 24.2794H19.502C18.8404 25.8617 17.5823 27.1198 16 27.7814C14.4177 27.1198 13.1596 25.8617 12.498 24.2794ZM22 19.0844L24 21.3524V23.2794H8V21.3524L10 19.0844V13.2794C10 9.79638 12.504 6.83238 16 5.73438C19.496 6.83238 22 9.79638 22 13.2794V19.0844ZM16 15.2794C16.5304 15.2794 17.0391 15.0687 17.4142 14.6936C17.7893 14.3185 18 13.8098 18 13.2794C18 12.7489 17.7893 12.2402 17.4142 11.8652C17.0391 11.4901 16.5304 11.2794 16 11.2794C15.4696 11.2794 14.9609 11.4901 14.5858 11.8652C14.2107 12.2402 14 12.7489 14 13.2794C14 13.8098 14.2107 14.3185 14.5858 14.6936C14.9609 15.0687 15.4696 15.2794 16 15.2794Z" fill="#001C64"/>
<path d="M12.498 24.2794H19.502C18.8404 25.8617 17.5823 27.1198 16 27.7814C14.4177 27.1198 13.1596 25.8617 12.498 24.2794ZM22 19.0844L24 21.3524V23.2794H8V21.3524L10 19.0844V13.2794C10 9.79638 12.504 6.83238 16 5.73438C19.496 6.83238 22 9.79638 22 13.2794V19.0844ZM16 15.2794C16.5304 15.2794 17.0391 15.0687 17.4142 14.6936C17.7893 14.3185 18 13.8098 18 13.2794C18 12.7489 17.7893 12.2402 17.4142 11.8652C17.0391 11.4901 16.5304 11.2794 16 11.2794C15.4696 11.2794 14.9609 11.4901 14.5858 11.8652C14.2107 12.2402 14 12.7489 14 13.2794C14 13.8098 14.2107 14.3185 14.5858 14.6936C14.9609 15.0687 15.4696 15.2794 16 15.2794Z" fill="url(#paint0_linear_3031_210166)" fill-opacity="0.24"/>
</g>
</g>
</g>
<defs>
<linearGradient id="paint0_linear_3031_210166" x1="16" y1="5.73438" x2="16" y2="27.7814" gradientUnits="userSpaceOnUse">
<stop stop-color="white"/>
<stop offset="1" stop-color="white" stop-opacity="0"/>
</linearGradient>
<clipPath id="clip0_3031_210166">
<rect width="32" height="32" fill="white" transform="translate(0 0.279297)"/>
</clipPath>
<clipPath id="clip1_3031_210166">
<rect width="32" height="32" fill="white" transform="translate(0 0.279297)"/>
</clipPath>
<clipPath id="clip2_3031_210166">
<rect width="32" height="32" fill="white" transform="translate(0 0.279297)"/>
</clipPath>
</defs>
</svg>
