<svg width="1438" height="52" viewBox="0 0 1438 52" fill="none" xmlns="http://www.w3.org/2000/svg">
<path d="M1424.84 -99.367L1413.51 -103.158M1424.84 -99.367H1391.27M1424.84 -99.367L1436.54 -95.45M1424.84 -99.367H1448.61M1413.51 -103.158L1417.63 -103.157L1421.71 -103.149L1425.71 -103.125L1429.57 -103.08L1433.27 -103.006L1436.77 -102.895L1440.01 -102.741L1443.02 -102.544L1445.61 -102.272L1447.96 -101.957L1448.61 -101.847V-99.367M1413.51 -103.158H1380.49M1391.27 -99.367L1380.49 -103.158M1391.27 -99.367H1357.71M1391.27 -99.367L1394.03 -98.4L1402.42 -95.45M1436.54 -95.45H1402.42M1436.54 -95.45L1448.61 -91.411M1436.54 -95.45H1448.61M1448.61 -99.367V-95.45M1380.49 -103.158H1347.46M1347.46 -103.158H1314.44M1347.46 -103.158L1357.71 -99.367M1314.44 -103.158H1281.41M1314.44 -103.158L1324.15 -99.367M1357.71 -99.367H1324.15M1357.71 -99.367L1368.3 -95.45M1281.41 -103.158H1248.39M1281.41 -103.158L1290.58 -99.367M1324.15 -99.367H1290.58M1324.15 -99.367L1334.18 -95.45M1248.39 -103.158H1215.37M1248.39 -103.158L1257.02 -99.367M1290.58 -99.367H1257.02M1290.58 -99.367L1300.06 -95.45M1215.37 -103.158H1182.34M1215.37 -103.158L1223.46 -99.367M1257.02 -99.367H1223.46M1257.02 -99.367L1259.22 -98.4L1260.33 -97.914L1265.94 -95.45M1182.34 -103.158H1149.32M1182.34 -103.158L1189.89 -99.367M1223.46 -99.367H1189.89M1223.46 -99.367L1225.52 -98.4L1231.81 -95.45M1149.32 -103.158H1116.29M1149.32 -103.158L1156.33 -99.367M1189.89 -99.367H1156.33M1189.89 -99.367L1197.69 -95.45M1116.29 -103.158H1083.27M1116.29 -103.158L1122.76 -99.367M1156.33 -99.367H1122.76M1156.33 -99.367L1158.12 -98.4L1159.02 -97.914L1163.57 -95.45M1083.27 -103.158H1050.24M1083.27 -103.158L1089.2 -99.367M1122.76 -99.367H1089.2M1122.76 -99.367L1129.45 -95.45M1050.24 -103.158H1017.22M1050.24 -103.158L1055.64 -99.367M1089.2 -99.367H1055.64M1089.2 -99.367L1090.71 -98.4L1091.48 -97.914L1095.33 -95.45M1017.22 -103.158H984.195M1017.22 -103.158L1018.42 -102.222L1020.23 -100.803L1022.07 -99.367M1055.64 -99.367H1022.07M1055.64 -99.367L1056.32 -98.885L1057.01 -98.4L1061.21 -95.45M984.195 -103.158H951.171M984.195 -103.158L985.26 -102.222L988.509 -99.367M1022.07 -99.367H988.509M1022.07 -99.367L1023.31 -98.4L1023.93 -97.914L1027.09 -95.45M951.171 -103.158H918.146M951.171 -103.158L954.946 -99.367M988.509 -99.367H954.946M988.509 -99.367L992.967 -95.45M918.146 -103.158H885.122M918.146 -103.158L919.347 -101.751L920.564 -100.327L920.972 -99.847L921.383 -99.367M954.946 -99.367H921.383M954.946 -99.367L955.427 -98.885L955.909 -98.4L956.394 -97.914L958.847 -95.45M885.122 -103.158H852.097M885.122 -103.158L886.123 -101.751L886.459 -101.278L886.797 -100.803L887.819 -99.367M921.383 -99.367H887.819M921.383 -99.367L922.208 -98.4L922.623 -97.914L923.04 -97.425L924.726 -95.45M852.097 -103.158H819.073M852.097 -103.158L854.255 -99.367M887.819 -99.367H854.255M887.819 -99.367L888.506 -98.4L889.9 -96.442L890.251 -95.947L890.605 -95.45M819.073 -103.158L819.273 -102.691L819.472 -102.222L820.486 -99.847L820.691 -99.367M819.073 -103.158H786.049M854.255 -99.367H820.691M854.255 -99.367L854.53 -98.885L854.805 -98.4L855.082 -97.914L856.483 -95.45M820.691 -99.367H787.128M820.691 -99.367L822.362 -95.45M786.049 -103.158H753.024M786.049 -103.158L787.128 -99.367M753.024 -103.158H720M753.024 -103.158L753.225 -101.751L753.564 -99.367M787.128 -99.367H753.564M787.128 -99.367L787.265 -98.885L787.402 -98.4L787.541 -97.914L788.242 -95.45M720 -103.158H686.976M720 -103.158V-99.367M753.564 -99.367H720M753.564 -99.367L754.121 -95.45M686.976 -103.158H653.951M686.976 -103.158L686.776 -101.751L686.436 -99.367M720 -99.367H686.436M720 -99.367V-95.45M653.951 -103.158H620.927M653.951 -103.158L652.873 -99.367M686.436 -99.367H652.873M686.436 -99.367L685.879 -95.45M620.927 -103.158L620.727 -102.691L620.528 -102.222L619.514 -99.847L619.309 -99.367M620.927 -103.158H587.903M652.873 -99.367H619.309M652.873 -99.367L652.735 -98.885L652.598 -98.4L652.459 -97.914L652.04 -96.442L651.758 -95.45M619.309 -99.367H585.745M619.309 -99.367L617.638 -95.45M587.903 -103.158H554.878M587.903 -103.158L586.019 -99.847L585.745 -99.367M554.878 -103.158H521.854M554.878 -103.158L553.877 -101.751L553.541 -101.278L552.864 -100.327L552.523 -99.847L552.181 -99.367M585.745 -99.367H552.181M585.745 -99.367L585.47 -98.885L585.195 -98.4L584.918 -97.914L583.516 -95.45M521.854 -103.158H488.829M521.854 -103.158L520.653 -101.751L519.436 -100.327L519.028 -99.847L518.617 -99.367M552.181 -99.367H518.617M552.181 -99.367L551.494 -98.4L550.1 -96.442L549.395 -95.45M488.829 -103.158H455.805M488.829 -103.158L485.054 -99.367M518.617 -99.367H485.054M518.617 -99.367L517.792 -98.4L517.377 -97.914L516.96 -97.425L515.274 -95.45M455.805 -103.158H422.78M455.805 -103.158L454.74 -102.222L451.491 -99.367M485.054 -99.367L484.573 -98.885L481.153 -95.45M485.054 -99.367H451.491M422.78 -103.158H389.756M422.78 -103.158L417.927 -99.367M451.491 -99.367H417.927M451.491 -99.367L450.941 -98.885L447.033 -95.45M389.756 -103.158H356.732M389.756 -103.158L384.363 -99.367M417.927 -99.367H384.363M417.927 -99.367L416.688 -98.4L416.065 -97.914L412.912 -95.45M356.732 -103.158H323.707M356.732 -103.158L350.799 -99.367M384.363 -99.367H350.799M384.363 -99.367L383.676 -98.885L382.987 -98.4L378.791 -95.45M323.707 -103.158H290.683M323.707 -103.158L317.236 -99.367M350.799 -99.367H317.236M350.799 -99.367L349.286 -98.4L348.524 -97.914L344.669 -95.45M290.683 -103.158H257.659M290.683 -103.158L283.672 -99.367M317.236 -99.367H283.672M317.236 -99.367L316.411 -98.885L310.548 -95.45M257.659 -103.158H224.635M257.659 -103.158L250.108 -99.367M283.672 -99.367H250.108M283.672 -99.367L281.883 -98.4L280.983 -97.914L276.427 -95.45M224.635 -103.158H191.61M224.635 -103.158L216.544 -99.367M250.108 -99.367H216.544M250.108 -99.367L242.307 -95.45M191.61 -103.158H158.586M191.61 -103.158L182.981 -99.367M216.544 -99.367H182.981M216.544 -99.367L214.481 -98.4L208.186 -95.45M158.586 -103.158H125.562M158.586 -103.158L149.417 -99.367M182.981 -99.367H149.417M182.981 -99.367L180.78 -98.4L179.671 -97.914L174.065 -95.45M125.562 -103.158H92.537M125.562 -103.158L115.853 -99.367M149.417 -99.367H115.853M149.417 -99.367L139.944 -95.45M92.537 -103.158H59.513M92.537 -103.158L82.29 -99.367M115.853 -99.367H82.29M115.853 -99.367L105.823 -95.45M59.513 -103.158H26.488M59.513 -103.158L48.726 -99.367M82.29 -99.367H48.726M82.29 -99.367L71.702 -95.45M26.488 -103.158L22.368 -103.157L18.288 -103.149L14.295 -103.125L10.427 -103.08L6.726 -103.006L3.232 -102.895L-0.0120001 -102.741L-3.024 -102.544L-5.608 -102.272L-7.961 -101.957L-8.608 -101.847V-99.367H15.162M26.488 -103.158L15.162 -99.367M48.726 -99.367H15.162M48.726 -99.367L45.974 -98.4L37.58 -95.45M15.162 -99.367L3.46 -95.45M71.702 -95.45L60.758 -91.401M71.702 -95.45H105.823M71.702 -95.45H37.58M105.823 -95.45L95.454 -91.401M105.823 -95.45H139.944M208.186 -95.45H242.307M208.186 -95.45H174.065M242.307 -95.45H276.427M344.669 -95.45H378.791M344.669 -95.45H310.548M378.791 -95.45L375.213 -92.935L373.029 -91.401M378.791 -95.45H412.912M481.153 -95.45L477.121 -91.401M481.153 -95.45H515.274M481.153 -95.45H447.033M515.274 -95.45L513.128 -92.935L511.818 -91.401M515.274 -95.45H549.395M617.638 -95.45L617.21 -94.451L616.564 -92.935L616.128 -91.915L615.909 -91.401M617.638 -95.45H651.758M617.638 -95.45H583.516M651.758 -95.45L651.33 -93.948L650.752 -91.915L650.606 -91.401M651.758 -95.45H685.879M754.121 -95.45L754.192 -94.952L754.263 -94.451L754.335 -93.948L754.406 -93.443L754.479 -92.935L754.697 -91.401M754.121 -95.45H788.242M754.121 -95.45H720M788.242 -95.45L788.67 -93.948L789.248 -91.915L789.394 -91.401M788.242 -95.45H822.362M890.605 -95.45L891.316 -94.451L893.485 -91.401M890.605 -95.45H924.726M890.605 -95.45H856.483M924.726 -95.45L926.872 -92.935L928.182 -91.401M924.726 -95.45H958.847M1027.09 -95.45L1031.62 -91.915L1032.27 -91.401M1027.09 -95.45H1061.21M1027.09 -95.45H992.967M1061.21 -95.45L1064.79 -92.935L1066.97 -91.401M1061.21 -95.45H1095.33M1163.57 -95.45L1171.06 -91.401M1163.57 -95.45H1197.69M1163.57 -95.45H1129.45M1197.69 -95.45L1205.76 -91.401M1197.69 -95.45H1231.81M1300.06 -95.45L1309.85 -91.401M1300.06 -95.45H1265.94M1300.06 -95.45H1334.18M1334.18 -95.45L1344.55 -91.401M1334.18 -95.45H1368.3M-8.725 -63.912H-8.608M-8.608 -63.912H25.057M-8.608 -63.912V-58.715V-53.318M-8.608 -63.912V-65.74V-68.915V-73.737V-78.389V-79.217V-82.878M25.057 -63.912L37.871 -68.916M25.057 -63.912L11.752 -58.716M25.057 -63.912H63.665M37.871 -68.916L50.221 -73.738M37.871 -68.916H75.766M11.752 -58.716L-2.073 -53.318M11.752 -58.716H51.099M11.752 -58.716H-8.608M63.665 -63.912L75.766 -68.916M63.665 -63.912L51.099 -58.716M63.665 -63.912H102.273M37.872 -68.916H-0.0249996M-0.0249996 -68.916L13.011 -73.738M-0.0249996 -68.916H-8.609M-0.0249996 -68.916L-8.609 -65.741M75.766 -68.916L87.431 -73.738M75.766 -68.916H113.663M37.717 -82.878H73.627M37.717 -82.878L49.434 -87.213M37.717 -82.878H1.81M1.81 -82.878L14.142 -87.213M1.81 -82.878H-8.608M1.81 -82.878L-8.608 -79.218M37.72 -82.878L25.586 -78.39M25.586 -78.39H62.133M25.586 -78.39L13.012 -73.738M25.586 -78.39H-8.608M73.629 -82.878L84.729 -87.213M73.629 -82.878L62.134 -78.39M73.629 -82.878H109.539M84.729 -87.213H49.436M84.729 -87.213H120.021M84.729 -87.213L95.454 -91.401M109.539 -82.878L120.021 -87.213M109.539 -82.878L98.681 -78.39M109.539 -82.878H145.447H181.356M49.436 -87.213L60.758 -91.401M49.436 -87.213H14.142M60.758 -91.401H95.454M60.758 -91.401H26.06M14.142 -87.213L26.06 -91.401M14.142 -87.213H-8.608M120.021 -87.213H155.314M120.021 -87.213L130.15 -91.401M95.454 -91.401H130.15M-8.977 15.069H-8.607M22.175 15.069L38.7 6.772M22.175 15.07L4.83 23.776M72.02 15.067H22.175H-8.608V23.777V30.523M72.02 15.067L87.364 6.77301M72.02 15.067L121.865 15.068M38.7 6.77301L54.46 -1.14001M38.7 6.77301H87.364M38.7 6.77301H-8.608V6.138V-1.13901V-8.69299V-15.201V-15.914V-22.821V-29.437V-34.029V-35.779V-41.862V-47.703V-50.766M54.46 -1.14001H6.921M54.46 -1.14001L69.506 -8.69501L83.888 -15.915M54.46 -1.14001H101.998M87.364 6.77301L101.998 -1.14001M87.364 6.77301H136.029M6.921 -1.14001L23.043 -8.694M6.921 -1.14001H-8.608M6.921 -1.14001L-8.608 6.13699M23.043 -8.694H69.506H115.97M23.043 -8.694H-8.607M38.452 -15.915H83.888M38.452 -15.915L53.193 -22.822M38.452 -15.915H-6.985L8.74 -22.823L23.799 -29.438M38.452 -15.915L23.043 -8.69501M83.888 -15.915L97.648 -22.822H53.193M83.888 -15.915H129.325M53.193 -22.822H8.74H-8.608M53.193 -22.822L67.312 -29.438M129.325 -15.915L142.1 -22.823M129.325 -15.915L115.97 -8.69501M129.325 -15.915H174.761M67.312 -29.438H23.799M67.312 -29.438L80.844 -35.779M110.824 -29.438L97.648 -22.823H142.1M142.1 -22.823L154.337 -29.438H197.849H241.362M93.826 -41.863H135.571M93.826 -41.863L106.292 -47.704M93.826 -41.863H52.082M106.292 -47.704H147.207M106.292 -47.704H65.379M106.292 -47.704L118.273 -53.318M52.082 -41.863H10.338M52.082 -41.863L65.379 -47.704M52.082 -41.863L38.234 -35.779H-4.375M93.827 -41.863L80.844 -35.779M80.844 -35.779H123.455M135.572 -41.863L147.207 -47.704M135.572 -41.863L123.455 -35.779M135.572 -41.863H177.317M147.207 -47.704L158.388 -53.318M147.207 -47.704H188.121M123.455 -35.779L110.824 -29.439M123.455 -35.779H166.065M177.317 -41.863L166.065 -35.779M177.317 -41.863H219.062M65.379 -47.704H24.466M65.379 -47.704L78.157 -53.318M118.273 -53.318H158.387M118.273 -53.318H78.157M118.273 -53.318L129.793 -58.716M140.881 -63.912H179.489M140.881 -63.912L151.559 -68.916M140.881 -63.912H102.273M140.881 -63.912L129.793 -58.716M179.489 -63.912L189.455 -68.916M179.489 -63.912L169.14 -58.716M179.489 -63.912H218.096M151.559 -68.916H189.455M151.559 -68.916H113.663M151.559 -68.916L161.852 -73.738M102.273 -63.912L113.663 -68.916M102.273 -63.912L90.446 -58.716M129.793 -58.716H169.14M129.793 -58.716H90.446M189.455 -68.916L199.061 -73.738M189.455 -68.916H227.351M169.14 -58.716L158.387 -53.318M169.14 -58.716H208.486M218.096 -63.912L227.351 -68.916M218.096 -63.912L208.486 -58.716M218.096 -63.912H256.703M113.663 -68.916L124.642 -73.738H87.431M227.351 -68.916L236.27 -73.738M227.351 -68.916H265.248M181.356 -82.878H217.266M181.356 -82.878L190.607 -87.213M181.356 -82.878L171.777 -78.39M217.266 -82.878L225.899 -87.213M217.266 -82.878L208.325 -78.39M217.266 -82.878H253.176M190.607 -87.213H225.899M190.607 -87.213L199.545 -91.401M190.607 -87.213H155.314M171.777 -78.39H208.325M171.777 -78.39L161.851 -73.738M171.777 -78.39H135.228M225.899 -87.213H261.193M225.899 -87.213L234.242 -91.401M208.325 -78.39L199.06 -73.738M208.325 -78.39H244.873M199.545 -91.401H234.241M199.545 -91.401L208.185 -95.45M199.545 -91.401H164.846M155.314 -87.213L145.446 -82.878L135.228 -78.39M155.314 -87.213L164.846 -91.401M16.929 158.896L40.186 142.549M16.929 158.896L-7.975 176.401M16.929 158.896H87.236M16.929 158.896H-8.608M40.186 142.549L61.953 127.249M40.186 142.549H108.167M40.186 142.549H-8.608M-8.608 142.549V158.897V176.402M-8.608 142.549V130.29M39.714 99.412H101.558M39.714 99.412L59.587 86.713M39.714 99.412L18.607 112.899M39.714 99.412H-8.608M101.558 99.412L119.624 86.713M101.558 99.412L82.37 112.899L61.953 127.25M101.558 99.412H163.402L179.662 86.713M59.587 86.713H119.624M59.587 86.713H-0.45M59.587 86.713L78.333 74.735M119.624 86.713L136.666 74.735M119.624 86.713H179.662M-0.45 86.713L19.999 74.735M-0.45 86.713H-8.608M-0.45 86.713L-8.608 91.491M78.333 74.735H136.666M78.333 74.735H19.999M78.333 74.735L96.043 63.419H152.766M136.666 74.735L152.766 63.419M136.666 74.735H195M179.662 86.713L195 74.735M179.662 86.713H239.7M112.802 52.71H168.002M112.802 52.71L128.685 42.562M112.802 52.71L57.602 52.709M112.802 52.71L96.043 63.42H39.32M168.002 52.71L182.441 42.562M168.002 52.71L152.766 63.419M168.002 52.71L223.202 52.709M57.602 52.709L2.402 52.71M57.602 52.709L74.929 42.561M57.602 52.709L39.32 63.42M152.766 63.419H209.49M223.202 52.709L236.196 42.561M223.202 52.709L209.49 63.42M223.202 52.709H278.402M128.685 42.561H182.441M128.685 42.561H74.929M128.685 42.561L143.757 32.929M182.441 42.561L196.143 32.929M182.441 42.561H236.196M74.929 42.561H21.173M74.929 42.561L91.372 32.929M143.757 32.929H196.143M143.757 32.929H91.372M143.757 32.929L158.081 23.777M196.143 32.929L209.164 23.778L221.554 15.068M196.143 32.929H248.529M236.196 42.561L248.529 32.929M236.196 42.561H289.952M171.709 15.069H221.554M171.709 15.069L184.693 6.772M171.709 15.069H121.865M171.709 15.069L158.081 23.777M158.081 23.777H209.164H260.248M158.081 23.777H106.997M221.554 15.068L233.357 6.77301M221.554 15.068H271.399M233.357 6.77301H184.693M233.357 6.77301L244.614 -1.14001M233.357 6.77301H282.021M271.399 15.068L282.021 6.77301M271.399 15.068H321.243M184.693 6.77301H136.029M184.693 6.77301L197.075 -1.14001M136.029 6.77301L149.537 -1.14001M136.029 6.77301L121.865 15.068M197.075 -1.14001H244.614M197.075 -1.14001H149.537M197.075 -1.14001L208.898 -8.694M244.614 -1.14001L255.362 -8.69501L265.634 -15.915M244.614 -1.14001H292.153M282.021 6.77301L292.153 -1.14001M282.021 6.77301H330.685M220.198 -15.915H265.634M220.198 -15.915L231.009 -22.822M220.198 -15.915H174.761M220.198 -15.915L208.898 -8.69501M265.634 -15.915L275.463 -22.822H231.009M265.634 -15.915H311.07M231.009 -22.822H186.555M231.009 -22.822L241.362 -29.438M174.761 -15.915L186.555 -22.822M174.761 -15.915L162.434 -8.69501M311.07 -15.915L319.916 -22.823M311.07 -15.915L301.826 -8.69501M311.07 -15.915H356.508M186.555 -22.822H142.101M241.362 -29.438L251.286 -35.779M284.875 -29.438L275.463 -22.823H319.916M319.916 -22.823L328.387 -29.438H371.899H415.412M260.806 -41.863H302.551M260.806 -41.863L269.948 -47.704M260.806 -41.863H219.062M260.806 -41.863L251.286 -35.779M302.551 -41.863L303.609 -42.606L310.862 -47.704M302.551 -41.863L293.897 -35.779M302.551 -41.863H344.297M269.948 -47.704H310.862M269.948 -47.704H229.035M269.948 -47.704L278.733 -53.318M219.062 -41.863L229.035 -47.704M219.062 -41.863L208.675 -35.779M251.286 -35.779H293.897M310.862 -47.704L318.848 -53.318M310.862 -47.704H351.776M293.897 -35.779L284.875 -29.439M293.897 -35.779H336.506M344.297 -41.863L351.776 -47.704M344.297 -41.863L336.506 -35.779M344.297 -41.863H386.041M229.035 -47.704L238.618 -53.318M278.733 -53.318H318.848M278.733 -53.318H238.618M278.733 -53.318L287.181 -58.716M318.848 -53.318L325.585 -58.053L326.528 -58.716M318.848 -53.318H358.964M351.776 -47.704L358.964 -53.318M351.776 -47.704H392.69M295.312 -63.912H333.921M295.312 -63.912L303.144 -68.916M295.312 -63.912H256.704M295.312 -63.912L287.181 -58.716M333.921 -63.912L341.04 -68.916M333.921 -63.912L331.182 -61.986L326.528 -58.716M333.921 -63.912H372.529M303.144 -68.916H341.04M303.144 -68.916H265.248M303.144 -68.916L310.691 -73.738M287.181 -58.716H326.528M287.181 -58.716H247.834M341.04 -68.916L347.901 -73.738M341.04 -68.916H378.936M326.528 -58.716H365.875M372.529 -63.912L378.936 -68.916M372.529 -63.912L370.888 -62.632L365.875 -58.716M372.529 -63.912H411.136M265.248 -68.916L273.481 -73.738M265.248 -68.916L264.196 -68.301L256.703 -63.912M310.691 -73.738H347.901M310.691 -73.738H273.481M310.691 -73.738L317.97 -78.39M347.901 -73.738L354.518 -78.39M347.901 -73.738H385.111M378.936 -68.916L385.111 -73.738M378.936 -68.916H416.832M324.994 -82.878H360.904M324.994 -82.878L331.778 -87.213M324.994 -82.878H289.086M324.994 -82.878L317.97 -78.39M360.904 -82.878L365.55 -86.143L366.312 -86.68L367.072 -87.213M360.904 -82.878L354.518 -78.39M360.904 -82.878H396.814M331.778 -87.213H367.072M331.778 -87.213L338.333 -91.401H373.029M331.778 -87.213H296.485M317.97 -78.39H354.518M317.97 -78.39H281.422M367.072 -87.213H402.364M367.072 -87.213L373.029 -91.401M354.518 -78.39H391.066M396.814 -82.878L402.364 -87.213M396.814 -82.878L391.066 -78.39M396.814 -82.878H432.724M296.485 -87.213H261.192M296.485 -87.213L289.085 -82.878M296.485 -87.213L303.635 -91.401M402.364 -87.213H437.657M402.364 -87.213L407.727 -91.401M373.029 -91.401H407.727M42.403 345.107H139.203M42.403 345.107L72.883 314.502M42.403 345.107L8.909 378.739M42.403 345.107L-8.607 345.108M139.203 345.107L165.328 314.502M139.203 345.107L110.494 378.739M139.203 345.107H236.002M72.883 314.502H165.328M72.883 314.502L100.739 286.531M72.883 314.502H-8.607M8.909 378.739H110.494M8.909 378.739L-8.607 396.329M8.909 378.739H-8.608M165.328 314.502L189.205 286.531M165.328 314.502H257.774M110.494 378.739L78.799 415.869M110.494 378.739L212.079 378.74M100.739 286.531H189.205M100.739 286.531L12.273 286.532M100.739 286.531L126.296 260.869M189.205 286.531L211.111 260.869M189.205 286.531L277.671 286.532M257.774 314.502L277.671 286.532M257.774 314.502L236.002 345.108M257.774 314.502H350.219M149.827 237.241H231.28M149.827 237.241L171.563 215.415M149.827 237.241H68.374M149.827 237.241L126.296 260.869M231.28 237.241L249.911 215.415M231.28 237.241L211.111 260.869M231.28 237.241H312.733M171.563 215.415H249.911M171.563 215.415H93.215M171.563 215.415L191.704 195.192M68.374 237.241L93.215 215.415M68.374 237.241L41.48 260.869M68.374 237.241H-8.608M126.296 260.869H211.111M126.296 260.869L41.481 260.87M249.911 215.415L267.175 195.192M249.911 215.415H328.26M211.111 260.869L295.925 260.87M93.215 215.415H14.867M93.215 215.415L116.233 195.193M191.704 195.192H267.175M191.704 195.192L116.233 195.193M191.704 195.192L210.417 176.402M267.175 195.192L283.215 176.402M267.175 195.192L342.646 195.193M227.851 158.896H298.157M227.851 158.896L244.13 142.549M227.851 158.896H157.543M227.851 158.896L210.417 176.401M298.157 158.896L312.112 142.549M298.157 158.896L283.215 176.401M298.157 158.896H368.464M244.13 142.549H312.112M244.13 142.549H176.148M244.13 142.549L259.367 127.249M312.112 142.549L325.172 127.249M312.112 142.549H380.093M176.148 142.549L193.563 127.25M176.148 142.549L157.543 158.897M380.093 142.549L390.977 127.25M380.093 142.549L368.464 158.897M380.093 142.549H448.075M287.09 99.412H348.935M287.09 99.412L299.738 86.713M287.09 99.412H225.247M287.09 99.412L273.659 112.899M348.935 99.412L359.775 86.713M348.935 99.412L337.422 112.899M348.935 99.412H410.779L419.812 86.713M299.738 86.713H359.775M299.738 86.713H239.7M299.738 86.713L311.666 74.735M225.247 99.412L239.7 86.713M225.247 99.412L209.896 112.899M359.775 86.713L370 74.735M359.775 86.713H419.812M239.7 86.713L253.333 74.735M311.666 74.735H370M311.666 74.735H253.333M311.666 74.735L322.936 63.419M370 74.735L379.66 63.419M370 74.735H428.333M419.812 86.713L428.333 74.735M419.812 86.713H479.85M333.601 52.71H388.802M333.601 52.71L343.708 42.562M333.601 52.71L278.402 52.709M333.601 52.71L322.936 63.419M388.802 52.71L397.464 42.561M388.802 52.71L379.66 63.419M388.802 52.71L444.001 52.709M278.402 52.709L289.952 42.562M278.402 52.709L266.213 63.419M322.936 63.419H379.66M397.464 42.561H343.708M397.464 42.561L405.686 32.929M397.464 42.561H451.22M379.66 63.419H436.383M444.001 52.709L451.22 42.561M444.001 52.709L436.383 63.42M444.001 52.709H499.201M343.708 42.561H289.952M343.708 42.561L353.3 32.929M289.952 42.561L300.915 32.929M353.3 32.929H405.686M353.3 32.929H300.915M353.3 32.929L362.415 23.777M405.686 32.929L413.498 23.778L420.932 15.068M405.686 32.929H458.072M451.22 42.561L458.072 32.929M451.22 42.561H504.977M371.088 15.069H420.932M371.088 15.069L379.35 6.772M371.088 15.069H321.243M371.088 15.069L362.415 23.777M362.415 23.777H413.498H464.582M362.415 23.777H311.332M420.932 15.068L428.014 6.77301M420.932 15.068H470.777M428.014 6.77301H379.35M428.014 6.77301L434.768 -1.14001M428.014 6.77301H476.678M470.777 15.068L476.678 6.77301M470.777 15.068H520.622M379.35 6.77301H330.685M379.35 6.77301L387.23 -1.14001M330.685 6.77301L339.691 -1.14001M330.685 6.77301L321.243 15.068M387.23 -1.14001H434.768M387.23 -1.14001H339.691M387.23 -1.14001L394.753 -8.694M434.768 -1.14001L441.217 -8.69501L447.381 -15.915M434.768 -1.14001H482.307M476.678 6.77301L480.227 1.784L482.307 -1.14001M476.678 6.77301H525.343M401.944 -15.915H447.381M401.944 -15.915L408.824 -22.822M401.944 -15.915H356.508M401.944 -15.915L394.753 -8.69501M447.381 -15.915L453.277 -22.822H408.824M447.381 -15.915H492.817M408.824 -22.822H364.37M408.824 -22.822L415.412 -29.438M356.508 -15.915L364.37 -22.822M356.508 -15.915L348.289 -8.69501M492.817 -15.915L497.731 -22.823M492.817 -15.915L491.554 -14.14L487.681 -8.694M364.37 -22.822H319.916M415.412 -29.438L421.727 -35.779M497.731 -22.823H453.277L458.925 -29.438L461.659 -32.642L464.338 -35.78M497.731 -22.823L502.437 -29.438H545.95H589.462M427.786 -41.863H469.531M427.786 -41.863L433.603 -47.704M427.786 -41.863H386.041M427.786 -41.863L421.727 -35.779M469.531 -41.863L468.893 -41.116L464.338 -35.779M469.531 -41.863L474.517 -47.704M469.531 -41.863H511.276M433.603 -47.704H474.517M433.603 -47.704H392.69M433.603 -47.704L439.194 -53.318M386.041 -41.863L392.69 -47.704M386.041 -41.863L379.117 -35.779M421.727 -35.779H464.338M464.338 -35.779H506.948M474.517 -47.704L479.309 -53.318M474.517 -47.704H515.431M511.276 -41.863L515.431 -47.704M511.276 -41.863L506.948 -35.779M511.276 -41.863H553.021M392.69 -47.704L399.079 -53.318M439.194 -53.318H479.309M439.194 -53.318H399.079M439.194 -53.318L444.57 -58.716M479.309 -53.318L483.918 -58.716M479.309 -53.318H519.424M515.431 -47.704L519.424 -53.318M515.431 -47.704H556.345M449.744 -63.912H488.352M449.744 -63.912L454.728 -68.916M449.744 -63.912H411.136M449.744 -63.912L444.57 -58.716M488.352 -63.912L492.624 -68.916M488.352 -63.912L486.709 -61.986L485.6 -60.687L483.918 -58.716M488.352 -63.912H526.96M454.728 -68.916H492.624M454.728 -68.916H416.832M454.728 -68.916L459.53 -73.738M411.136 -63.912L416.832 -68.916M411.136 -63.912L405.223 -58.716M444.57 -58.716H483.918M444.57 -58.716H405.223M492.624 -68.916L494.186 -70.745L495.215 -71.951L496.741 -73.738M492.624 -68.916H530.52M483.918 -58.716H523.265M526.96 -63.912L527.862 -65.181L530.52 -68.916M526.96 -63.912L526.506 -63.273L526.049 -62.632L524.667 -60.687L524.201 -60.034L523.265 -58.716M526.96 -63.912H565.568M416.832 -68.916L422.321 -73.738M459.53 -73.738H496.741M459.53 -73.738H422.321M459.53 -73.738L463.02 -77.243L464.163 -78.39M496.741 -73.738L498.744 -76.085L500.711 -78.39M496.741 -73.738H533.951M530.52 -68.916L530.956 -69.528L531.389 -70.138L533.105 -72.55L533.951 -73.738M530.52 -68.916H568.416M468.633 -82.878H504.542M468.633 -82.878L471.885 -86.143L472.95 -87.213M468.633 -82.878H432.724M468.633 -82.878L464.73 -78.96L464.163 -78.39M504.542 -82.878L507.33 -86.143L507.787 -86.68L508.243 -87.213M504.542 -82.878L502.643 -80.654L500.711 -78.39M504.542 -82.878H540.452M472.95 -87.213H508.243M472.95 -87.213L477.121 -91.401M472.95 -87.213H437.657M432.724 -82.878L437.657 -87.213M432.724 -82.878L427.614 -78.39M464.163 -78.39H500.711M464.163 -78.39H427.614M508.243 -87.213H543.536M508.243 -87.213L511.818 -91.401M500.711 -78.39H537.259M540.452 -82.878L543.536 -87.213M540.452 -82.878L537.259 -78.39M540.452 -82.878H576.362M477.121 -91.401H511.818M477.121 -91.401H442.424M437.657 -87.213L441.248 -90.367L442.424 -91.401M543.536 -87.213H578.828M543.536 -87.213L545.779 -90.367L546.515 -91.401M511.818 -91.401H546.515M429.601 345.107H526.401M429.601 345.107L442.664 314.502M429.601 345.107H332.802M429.601 345.107L415.247 378.739M526.401 345.107L535.11 314.502M526.401 345.107L516.832 378.739M526.401 345.107H623.201M442.664 314.502H535.11M442.664 314.502H350.219M442.664 314.502L454.602 286.531M415.247 378.739H516.832M415.247 378.739L399.4 415.868M415.247 378.739H313.662M535.11 314.502L543.068 286.531M535.11 314.502H627.555M516.832 378.739L506.267 415.868M516.832 378.739H618.415M623.201 345.107L627.555 314.502M623.201 345.107L618.415 378.739M623.201 345.107H720M350.219 314.502L366.137 286.531M350.219 314.502L332.802 345.108M454.602 286.531H543.068M454.602 286.531H366.137M454.602 286.531L465.555 260.869M543.068 286.531L550.37 260.869M543.068 286.531H631.534M627.555 314.502L631.534 286.531M627.555 314.502H720M475.64 237.241H557.093M475.64 237.241L484.956 215.415M475.64 237.241H394.186M475.64 237.241L465.555 260.869M557.093 237.241L563.304 215.415M557.093 237.241L550.37 260.869M557.093 237.241H638.547M484.956 215.415H563.304M484.956 215.415H406.608M484.956 215.415L493.587 195.192M465.555 260.869H550.37M465.555 260.869H380.741M563.304 215.415L569.058 195.192M563.304 215.415H641.652M550.37 260.869H635.185M638.547 237.241L635.185 260.869M638.547 237.241H720M493.587 195.192H569.058M493.587 195.192L418.117 195.193M493.587 195.192L501.607 176.402H574.405M569.058 195.192L574.405 176.402M569.058 195.192L644.529 195.193M509.079 158.896H579.386M509.079 158.896L516.056 142.549M509.079 158.896H438.772M509.079 158.896L501.607 176.401H428.81M579.386 158.896L584.037 142.549M579.386 158.896L574.405 176.401M579.386 158.896H649.693M516.056 142.549H584.037M516.056 142.549H448.075M516.056 142.549L522.586 127.249M584.037 142.549L588.391 127.249M584.037 142.549H652.019M448.075 142.549L456.781 127.25M448.075 142.549L438.772 158.897M652.019 142.549L654.195 127.25M652.019 142.549L649.693 158.897M652.019 142.549H720M534.468 99.412H596.311M534.468 99.412L539.887 86.713M534.468 99.412H472.623M534.468 99.412L528.711 112.899M596.311 99.412L599.925 86.713M596.311 99.412L592.474 112.899M596.311 99.412H658.156L659.963 86.713M539.887 86.713H599.925M539.887 86.713H479.85M539.887 86.713L545 74.735M599.925 86.713L603.333 74.735M599.925 86.713H659.963M479.85 86.713L486.666 74.735M479.85 86.713L472.623 99.413M545 74.735H603.333M545 74.735H486.666M545 74.735L549.83 63.419M603.333 74.735L606.554 63.419M603.333 74.735H661.667M659.963 86.713L661.667 74.735M659.963 86.713H720M554.4 52.71H609.601M554.4 52.71L558.732 42.562M554.4 52.71L499.201 52.709M554.4 52.71L549.83 63.419M609.601 52.71L612.488 42.561M609.601 52.71L606.554 63.419M609.601 52.71L664.8 52.709M499.201 52.709L504.977 42.562M499.201 52.709L493.106 63.419M549.83 63.419H606.554M612.488 42.561H558.732M612.488 42.561L615.229 32.929M612.488 42.561H666.244H720M606.554 63.419H663.276M664.8 52.709L666.244 42.562L667.615 32.929M664.8 52.709L663.276 63.42M664.8 52.709H720M558.732 42.561H504.977M558.732 42.561L562.843 32.929M504.977 42.561L510.457 32.929M562.843 32.929H615.229M562.843 32.929H510.457M562.843 32.929L566.75 23.777M615.229 32.929L617.833 23.778L620.311 15.068M615.229 32.929H667.615M570.466 15.069H620.311M570.466 15.069L574.007 6.772M570.466 15.069H520.622M570.466 15.069L566.75 23.777M566.75 23.777H617.833H668.916M566.75 23.777H515.666M620.311 15.068L622.672 6.77301M620.311 15.068H670.156M622.672 6.77301H574.007M622.672 6.77301L624.923 -1.14001M622.672 6.77301H671.336M670.156 15.068L671.336 6.77301M670.156 15.068H720M574.007 6.77301H525.343M574.007 6.77301L575.292 3.763L577.384 -1.14001M525.343 6.77301L529.846 -1.14001M525.343 6.77301L520.622 15.068M577.384 -1.14001H624.923M577.384 -1.14001H529.846M577.384 -1.14001L580.608 -8.694M624.923 -1.14001L627.072 -8.69501L629.127 -15.915M624.923 -1.14001H672.461M671.336 6.77301L672.461 -1.14001M671.336 6.77301H720M583.69 -15.915H629.127M583.69 -15.915L586.639 -22.822L586.998 -23.665L589.462 -29.438M583.69 -15.915H538.253M583.69 -15.915L581.392 -10.529L580.608 -8.694M629.127 -15.915H674.564M538.253 -15.915L542.185 -22.823M538.253 -15.915L537.75 -15.03L536.222 -12.345L534.144 -8.69501M580.608 -8.694H627.072H673.536M580.608 -8.694H534.144M629.127 -15.914L629.874 -18.541L631.092 -22.823M631.092 -22.823H586.639H542.185M631.092 -22.823L631.808 -25.337L632.043 -26.167L632.279 -26.99L632.975 -29.438L633.661 -31.847L633.886 -32.642L634.78 -35.779M631.092 -22.823H675.547M674.564 -15.915L675.547 -22.823M674.564 -15.915L673.536 -8.69501M674.564 -15.915H720M589.462 -29.438L592.169 -35.779M542.185 -22.823L545.95 -29.439L549.558 -35.779H506.948M675.547 -22.823L675.666 -23.665L676.488 -29.438H720H763.512M594.765 -41.863H636.51M594.765 -41.863L596.024 -44.813L596.336 -45.541L596.644 -46.266L596.953 -46.986L597.258 -47.704M594.765 -41.863H553.021M594.765 -41.863L592.169 -35.779M636.51 -41.863L637.763 -46.266L637.969 -46.986L638.172 -47.704M636.51 -41.863L634.78 -35.779M636.51 -41.863H678.255M597.258 -47.704H638.172M597.258 -47.704H556.345M597.258 -47.704L598.767 -51.239L599.064 -51.935L599.655 -53.318M553.021 -41.863L555.526 -46.266L556.345 -47.704M553.021 -41.863L551.739 -39.611L550.437 -37.324L549.558 -35.78H592.169M592.169 -35.779H634.78M638.172 -47.704L639.178 -51.239L639.377 -51.935L639.573 -52.628L639.77 -53.318M638.172 -47.704H679.086M634.78 -35.779H677.389M678.255 -41.863L679.086 -47.704M678.255 -41.863L677.935 -39.611L677.609 -37.324L677.389 -35.78M678.255 -41.863H720M556.345 -47.704L559.539 -53.318M599.655 -53.318H639.77M599.655 -53.318H559.539M599.655 -53.318L601.959 -58.716M639.77 -53.318L641.306 -58.716M639.77 -53.318H679.885M679.086 -47.704L679.885 -53.318M679.086 -47.704H720M604.176 -63.912H642.784M604.176 -63.912L606.312 -68.916M604.176 -63.912H565.568M604.176 -63.912L603.629 -62.632L602.8 -60.687L601.959 -58.716M642.784 -63.912L642.602 -63.273L641.493 -59.377L641.306 -58.716M642.784 -63.912L644.208 -68.916M642.784 -63.912H681.392M606.312 -68.916H644.208M606.312 -68.916H568.416M606.312 -68.916L608.371 -73.738M565.568 -63.912L568.066 -68.301L568.416 -68.916M565.568 -63.912L565.205 -63.273L564.839 -62.632L564.473 -61.986L562.612 -58.716M601.959 -58.716H641.306M601.959 -58.716H562.612M641.306 -58.716H680.653M644.208 -68.916L644.729 -70.745L644.9 -71.349L645.072 -71.951L645.58 -73.738M644.208 -68.916H682.104M681.392 -63.912L681.929 -67.682L682.016 -68.301L682.104 -68.916M681.392 -63.912L680.653 -58.716M681.392 -63.912H720M568.416 -68.916L571.161 -73.738M608.371 -73.738H645.58M608.371 -73.738H571.161M608.371 -73.738L608.873 -74.917L609.123 -75.502L609.372 -76.085L609.62 -76.665L609.866 -77.243L610.112 -77.817L610.355 -78.39M645.58 -73.738L645.748 -74.329L645.916 -74.917L646.248 -76.085L646.413 -76.665L646.578 -77.243L646.741 -77.817L646.904 -78.39M645.58 -73.738H682.79M682.104 -68.916L682.79 -73.738M682.104 -68.916H720M612.272 -82.878H648.181M612.272 -82.878L613.665 -86.143L614.121 -87.213M612.272 -82.878H576.362M612.272 -82.878L611.56 -81.214L611.322 -80.654L611.082 -80.092L610.355 -78.39M648.181 -82.878L648.338 -83.428L648.648 -84.522L648.957 -85.605L649.414 -87.213M648.181 -82.878L647.548 -80.654L647.388 -80.092L647.066 -78.96L646.904 -78.39M648.181 -82.878H684.09M614.121 -87.213H649.414M614.121 -87.213L615.688 -90.885L615.909 -91.401M614.121 -87.213H578.828M576.362 -82.878L578.828 -87.213M576.362 -82.878L573.807 -78.39M610.355 -78.39H646.904M610.355 -78.39H573.807M649.414 -87.213L649.566 -87.744L649.716 -88.274L649.866 -88.8L650.015 -89.325L650.459 -90.885L650.606 -91.401M649.414 -87.213H684.707M646.904 -78.39H683.452M684.09 -82.878L684.707 -87.213M684.09 -82.878L683.452 -78.39M684.09 -82.878H720M615.909 -91.401H650.606M615.909 -91.401H581.212M578.828 -87.213L580.031 -89.325L580.919 -90.885L581.212 -91.401M650.606 -91.401H685.303M684.707 -87.213L684.782 -87.744L684.858 -88.274L684.933 -88.8L685.303 -91.401M684.707 -87.213H720M816.799 345.107H913.599M816.799 345.107L812.445 314.502M816.799 345.107H720M816.799 345.107L821.585 378.739M913.599 345.107L904.891 314.502M913.599 345.107L923.168 378.739M913.599 345.107H1010.4M812.445 314.502H904.891M812.445 314.502H720M812.445 314.502L808.466 286.531M720 345.107V314.502M720 345.107V378.74M821.585 378.739H923.168M821.585 378.739L826.867 415.869M821.585 378.739L720 378.74M904.891 314.502L896.932 286.531M904.891 314.502H997.336M923.168 378.739L933.733 415.869M923.168 378.739L1024.75 378.74M720 314.502V286.532M808.466 286.531H896.932M808.466 286.531L720 286.532M808.466 286.531L804.815 260.869M896.932 286.531L889.63 260.869M896.932 286.531L985.398 286.532M997.336 314.502L985.398 286.532M997.336 314.502L1010.4 345.108M997.336 314.502H1089.78M801.453 237.241H882.907M801.453 237.241L798.348 215.415M801.453 237.241H720M801.453 237.241L804.815 260.869M882.907 237.241L876.696 215.415M882.907 237.241L889.63 260.869M882.907 237.241H964.36M798.348 215.415H876.696M798.348 215.415H720M798.348 215.415L795.471 195.192M720 237.241V215.415M720 237.241V260.87M804.815 260.869H889.63M804.815 260.869L720 260.87M876.696 215.415L870.942 195.192M876.696 215.415H955.044M889.63 260.869L974.445 260.87M720 215.415V195.193M795.471 195.192H870.942M795.471 195.192L720 195.193M795.471 195.192L792.798 176.402M870.942 195.192L865.595 176.402M870.942 195.192L946.413 195.193M790.307 158.896H860.614M790.307 158.896L787.981 142.549M790.307 158.896H720M790.307 158.896L792.798 176.401M860.614 158.896L855.963 142.549M860.614 158.896L865.595 176.401M860.614 158.896H930.921M787.981 142.549H855.963M787.981 142.549H720M787.981 142.549L785.805 127.249M855.963 142.549L851.609 127.249M855.963 142.549H923.944M720 142.549V127.25M720 142.549V158.897M923.944 142.549L917.414 127.25M923.944 142.549L930.921 158.897M923.944 142.549H991.925M781.844 99.412H843.689M781.844 99.412L780.037 86.713M781.844 99.412H720M781.844 99.412L783.763 112.899M843.689 99.412L840.075 86.713M843.689 99.412L847.526 112.899M843.689 99.412H905.532L900.113 86.713M780.037 86.713H840.075M780.037 86.713H720M780.037 86.713L778.333 74.735M840.075 86.713L836.667 74.735M840.075 86.713H900.113M720 86.713V74.735M720 86.713V99.413M778.333 74.735H836.667M778.333 74.735H720M778.333 74.735L776.724 63.419M836.667 74.735L833.446 63.419M836.667 74.735H895M900.113 86.713L895 74.735M900.113 86.713H960.15M775.2 52.71H830.399M775.2 52.71L773.756 42.562M775.2 52.71L720 52.709M775.2 52.71L776.724 63.419M830.399 52.71L827.512 42.561M830.399 52.71L833.446 63.419M830.399 52.71L885.6 52.709M720 52.709V42.561M720 52.709V63.419M776.724 63.419H833.446M827.512 42.561H773.756M827.512 42.561L824.772 32.929M827.512 42.561H881.268M833.446 63.419H890.17M885.6 52.709L881.268 42.561M885.6 52.709L890.17 63.42M885.6 52.709H940.799M773.756 42.561H720M773.756 42.561L772.385 32.929M720 42.561V32.929M772.385 32.929H824.772M772.385 32.929H720M772.385 32.929L771.242 24.897L771.084 23.777M824.772 32.929L822.167 23.778L819.689 15.068M824.772 32.929H877.157M881.268 42.561L877.157 32.929M881.268 42.561H935.023M769.844 15.069H819.689M769.844 15.069L768.664 6.772M769.844 15.069H720M769.844 15.069L771.084 23.777M771.084 23.777H822.167H873.25M771.084 23.777H720M819.689 15.068L817.328 6.77301M819.689 15.068H869.534M817.328 6.77301H768.664M817.328 6.77301L815.077 -1.14001M817.328 6.77301H865.993M869.534 15.068L865.993 6.77301M869.534 15.068H919.378M768.664 6.77301H720M768.664 6.77301L767.539 -1.14001M720 6.77301V-1.14001M720 6.77301V15.068M767.539 -1.14001H815.077M767.539 -1.14001H720M767.539 -1.14001L766.464 -8.694M815.077 -1.14001L812.928 -8.69501L810.873 -15.915M815.077 -1.14001H862.616M865.993 6.77301L865.133 4.76001L862.616 -1.14001M865.993 6.77301H914.657M765.436 -15.915H810.873M765.436 -15.915L764.453 -22.822L764.334 -23.665L763.512 -29.438M765.436 -15.915H720M765.436 -15.915L766.464 -8.69501M810.873 -15.915L809.148 -21.975L808.908 -22.823M810.873 -15.915H856.31M720 -15.915V-22.822H675.547M720 -15.915V-8.69501M808.908 -22.823H764.453H720M808.908 -22.823L808.192 -25.337L807.957 -26.167L807.721 -26.99L807.025 -29.438L806.339 -31.847L806.114 -32.642L805.221 -35.779M808.908 -22.823H853.361M856.31 -15.915L853.361 -22.823M856.31 -15.915L858.608 -10.529L859.392 -8.694M763.512 -29.438L763.283 -31.048L762.832 -34.219L762.611 -35.779M853.361 -22.823L850.538 -29.438H894.05H937.563M761.745 -41.863H803.49M761.745 -41.863L760.914 -47.704M761.745 -41.863H720M761.745 -41.863L762.065 -39.611L762.174 -38.853L762.281 -38.09L762.5 -36.554L762.611 -35.779M803.49 -41.863L802.237 -46.266L801.827 -47.704M803.49 -41.863L805.221 -35.779M803.49 -41.863H845.235M760.914 -47.704H801.827M760.914 -47.704H720M760.914 -47.704L760.115 -53.318M720 -41.863V-47.704M720 -41.863V-35.779M762.611 -35.779H805.221M801.827 -47.704L800.822 -51.239L800.623 -51.935L800.427 -52.628L800.23 -53.318M801.827 -47.704H842.742M805.221 -35.779H847.831M845.235 -41.863L843.664 -45.541L843.356 -46.267L843.047 -46.987L842.742 -47.704M845.235 -41.863L847.501 -36.553L847.831 -35.78M845.235 -41.863H886.979M720 -47.704V-53.318M760.115 -53.318H800.23M760.115 -53.318H720M760.115 -53.318L759.347 -58.716M800.23 -53.318L798.694 -58.716M800.23 -53.318H840.345M842.742 -47.704L841.532 -50.539L841.233 -51.239L840.936 -51.935L840.345 -53.318M842.742 -47.704H883.655M758.608 -63.912H797.216M758.608 -63.912L757.896 -68.916M758.608 -63.912H720M758.608 -63.912L759.347 -58.716M797.216 -63.912L797.398 -63.273L798.507 -59.377L798.694 -58.716M797.216 -63.912L795.792 -68.916M797.216 -63.912H835.824M757.896 -68.916H795.792M757.896 -68.916H720M757.896 -68.916L757.21 -73.738M720 -63.912V-68.916M720 -63.912V-58.716M759.347 -58.716H798.694M759.347 -58.716H720M798.694 -58.716H838.041M795.792 -68.916L795.271 -70.745L795.1 -71.349L794.928 -71.951L794.42 -73.738M795.792 -68.916H833.688M835.824 -63.912L833.688 -68.916M835.824 -63.912L836.371 -62.632L837.2 -60.687L838.041 -58.716M835.824 -63.912H874.432M720 -68.916V-73.738M757.21 -73.738H794.42M757.21 -73.738H720M757.21 -73.738L756.548 -78.39M794.42 -73.738L794.252 -74.329L793.752 -76.085L793.587 -76.665L793.422 -77.243L793.259 -77.817L793.096 -78.39M794.42 -73.738H831.63M833.688 -68.916L831.63 -73.738M833.688 -68.916H871.584M755.91 -82.878H791.819M755.91 -82.878L755.293 -87.213M755.91 -82.878H720M755.91 -82.878L756.548 -78.39M791.819 -82.878L791.662 -83.428L791.351 -84.522L791.197 -85.065L790.89 -86.143L790.738 -86.68L790.585 -87.213M791.819 -82.878L792.452 -80.654L792.612 -80.092L792.934 -78.96L793.096 -78.39M791.819 -82.878H827.728M755.293 -87.213L755.218 -87.744L755.142 -88.274L755.067 -88.8L754.697 -91.401M755.293 -87.213H790.585M755.293 -87.213H720M720 -82.878V-87.213M720 -82.878V-78.39M756.548 -78.39H793.096M756.548 -78.39H720M790.585 -87.213H825.879M790.585 -87.213L790.284 -88.274L790.134 -88.8L789.985 -89.325L789.541 -90.885L789.394 -91.401M793.096 -78.39H829.645M827.728 -82.878L826.335 -86.143L825.879 -87.213M827.728 -82.878L828.918 -80.092L829.645 -78.39M827.728 -82.878H863.638M754.697 -91.401H789.394M754.697 -91.401H720M720 -87.213V-91.401M825.879 -87.213H861.172M825.879 -87.213L824.532 -90.367L824.091 -91.401M789.394 -91.401H824.091M1204 345.107H1300.8M1204 345.107L1182.23 314.502M1204 345.107H1107.2M1204 345.107L1227.92 378.739M1300.8 345.107L1274.67 314.502M1300.8 345.107L1329.51 378.739M1300.8 345.107H1397.6M1182.23 314.502H1274.67M1182.23 314.502H1089.78M1182.23 314.502L1162.33 286.531M1227.92 378.739H1329.51M1227.92 378.739L1254.33 415.869M1227.92 378.739L1126.34 378.74M1274.67 314.502L1250.8 286.531M1274.67 314.502H1367.12M1329.51 378.739L1361.2 415.869M1329.51 378.739L1431.09 378.74M1089.78 314.502L1073.86 286.532M1089.78 314.502L1107.2 345.108M1162.33 286.531H1250.8M1162.33 286.531L1073.86 286.532M1162.33 286.531L1144.07 260.869M1250.8 286.531L1228.89 260.869M1250.8 286.531L1339.26 286.532M1367.12 314.502L1339.26 286.532M1367.12 314.502L1397.6 345.108M1367.12 314.502L1448.61 314.503M1127.27 237.241H1208.72M1127.27 237.241L1111.74 215.415M1127.27 237.241H1045.81M1127.27 237.241L1144.07 260.869M1208.72 237.241L1190.09 215.415M1208.72 237.241L1228.89 260.869M1208.72 237.241H1290.17M1111.74 215.415H1190.09M1111.74 215.415H1033.39M1111.74 215.415L1097.35 195.192M1144.07 260.869H1228.89M1144.07 260.869L1059.26 260.87M1190.09 215.415L1172.83 195.192M1190.09 215.415H1268.44M1228.89 260.869L1313.7 260.87M1097.35 195.192H1172.83M1097.35 195.192L1021.88 195.193M1097.35 195.192L1083.99 176.402M1172.83 195.192L1156.79 176.402M1172.83 195.192L1248.3 195.193M1071.54 158.896H1141.84M1071.54 158.896L1059.91 142.549M1071.54 158.896H1001.23M1071.54 158.896L1083.99 176.401M1141.84 158.896L1127.89 142.549M1141.84 158.896L1156.79 176.401M1141.84 158.896H1212.15M1059.91 142.549H1127.89M1059.91 142.549H991.925M1059.91 142.549L1049.02 127.249M1127.89 142.549L1114.83 127.249M1127.89 142.549H1195.87M991.925 142.549L983.219 127.25M991.925 142.549L1001.23 158.897M1195.87 142.549L1180.63 127.25M1195.87 142.549L1212.15 158.897M1195.87 142.549H1263.85M1029.22 99.412H1091.07M1029.22 99.412L1020.19 86.713M1029.22 99.412H967.377M1029.22 99.412L1038.82 112.899M1091.07 99.412L1080.23 86.713M1091.07 99.412L1102.58 112.899M1091.07 99.412H1152.91L1140.26 86.713M1020.19 86.713H1080.23M1020.19 86.713H960.15M1020.19 86.713L1011.67 74.735M1080.23 86.713L1070 74.735M1080.23 86.713H1140.26M960.15 86.713L953.334 74.735M960.15 86.713L967.377 99.413M1011.67 74.735H1070M1011.67 74.735H953.334M1011.67 74.735L1003.62 63.419M1070 74.735L1060.34 63.419M1070 74.735H1128.33M1140.26 86.713L1128.33 74.735M1140.26 86.713H1200.3M995.999 52.71H1051.2M995.999 52.71L988.78 42.561M995.999 52.71L940.799 52.709M995.999 52.71L1003.62 63.419M1051.2 52.71L1042.54 42.561M1051.2 52.71L1060.34 63.419M1051.2 52.71L1106.4 52.709M988.78 42.561H1042.54M988.78 42.561H935.023M988.78 42.561L981.928 32.929M940.799 52.709L939.326 50.121L935.023 42.561M940.799 52.709L946.894 63.419M1003.62 63.419H1060.34M1042.54 42.561L1034.31 32.929M1042.54 42.561H1096.29M1060.34 63.419H1117.06M1106.4 52.709L1096.29 42.561M1106.4 52.709L1117.06 63.42M1106.4 52.709L1161.6 52.71M935.023 42.561L929.543 32.929M981.928 32.929H1034.31M981.928 32.929H929.543M981.928 32.929L975.418 23.777M1034.31 32.929L1026.5 23.778L1019.07 15.068M1034.31 32.929H1086.7M1096.29 42.561L1086.7 32.929M1096.29 42.561H1150.05M969.223 15.069H1019.07M969.223 15.069L963.321 6.772M969.223 15.069H919.378M969.223 15.069L975.418 23.777M975.418 23.777H1026.5H1077.58M975.418 23.777H924.334M1019.07 15.068L1011.99 6.77301M1019.07 15.068H1068.91M1011.99 6.77301H963.321M1011.99 6.77301L1005.23 -1.14001M1011.99 6.77301H1060.65M1068.91 15.068L1060.65 6.77301M1068.91 15.068H1118.76M963.321 6.77301H914.657M963.321 6.77301L957.693 -1.14001M914.657 6.77301L910.154 -1.14001M914.657 6.77301L919.378 15.068M957.693 -1.14001H1005.23M957.693 -1.14001H910.154M957.693 -1.14001L952.319 -8.694M1005.23 -1.14001L998.783 -8.69501L992.619 -15.915M1005.23 -1.14001H1052.77M1060.65 6.77301L1052.77 -1.14001M1060.65 6.77301H1109.31M952.319 -8.694L948.446 -14.14L947.812 -15.03L947.183 -15.915H901.747M952.319 -8.694H998.783H1045.25M952.319 -8.694H905.856M992.619 -15.914H947.183L942.269 -22.823M901.747 -15.915L897.815 -22.823L894.05 -29.439L890.442 -35.779M901.747 -15.915L903.778 -12.345L905.856 -8.69501M992.619 -15.915L986.723 -22.822H942.269M992.619 -15.915H1038.06M1038.06 -15.915L1031.18 -22.823M1038.06 -15.915L1045.25 -8.69501M1038.06 -15.915H1083.49M942.269 -22.822H897.815H853.361M942.269 -22.822L937.563 -29.438M937.563 -29.438L936.417 -31.048L933.052 -35.779M1031.18 -22.823H986.723L981.075 -29.438L979.018 -31.847L978.341 -32.642L975.662 -35.779M1031.18 -22.823L1024.59 -29.438H1068.1H1111.61M928.724 -41.863H970.47M928.724 -41.863L924.569 -47.704M928.724 -41.863H886.979M928.724 -41.863L933.052 -35.779M970.47 -41.863L967.329 -45.541L965.483 -47.704M970.47 -41.863L975.662 -35.779M970.47 -41.863H1012.21M924.569 -47.704H965.483M924.569 -47.704H883.655M924.569 -47.704L921.067 -52.628L920.576 -53.318M886.979 -41.863L884.474 -46.266L883.655 -47.704M886.979 -41.863L888.261 -39.611L890.442 -35.779M933.052 -35.779H975.662M965.483 -47.704L960.691 -53.318M965.483 -47.704H1006.4M975.662 -35.779H1018.27M1012.21 -41.863L1006.4 -47.704M1012.21 -41.863L1018.27 -35.779M1012.21 -41.863H1053.96M883.655 -47.704L880.461 -53.318M920.576 -53.318H960.691M920.576 -53.318H880.461M920.576 -53.318L916.735 -58.716M960.691 -53.318L956.082 -58.716M960.691 -53.318H1000.81M1006.4 -47.704L1002.88 -51.239L1002.18 -51.935L1000.81 -53.318M1006.4 -47.704H1047.31M913.04 -63.912H951.648M913.04 -63.912L912.138 -65.181L909.48 -68.916M913.04 -63.912H874.432M913.04 -63.912L913.951 -62.632L915.799 -60.034L916.735 -58.716M951.648 -63.912L947.376 -68.916M951.648 -63.912L953.291 -61.986L954.4 -60.687L956.082 -58.716M951.648 -63.912H990.256M909.48 -68.916H947.376M909.48 -68.916H871.584M909.48 -68.916L906.895 -72.55L906.049 -73.738M874.432 -63.912L871.934 -68.301L871.584 -68.916M874.432 -63.912L874.795 -63.273L875.161 -62.632L875.527 -61.986L877.388 -58.716M916.735 -58.716H956.082M916.735 -58.716H877.388M947.376 -68.916L945.814 -70.745L944.785 -71.951L943.259 -73.738M947.376 -68.916H985.272M956.082 -58.716H995.43M990.256 -63.912L985.272 -68.916M990.256 -63.912L993.466 -60.687L994.118 -60.034L995.43 -58.716M990.256 -63.912H1028.86M871.584 -68.916L868.839 -73.738M906.049 -73.738H943.259M906.049 -73.738H868.839M906.049 -73.738L902.741 -78.39M943.259 -73.738L941.256 -76.085L940.761 -76.665L939.289 -78.39M943.259 -73.738H980.47M985.272 -68.916L980.47 -73.738M985.272 -68.916H1023.17M899.548 -82.878H935.458M899.548 -82.878L897.608 -85.605L896.464 -87.213M899.548 -82.878H863.638M899.548 -82.878L902.741 -78.39M935.458 -82.878L932.67 -86.143L932.213 -86.68L931.757 -87.213M935.458 -82.878L937.357 -80.654L939.289 -78.39M935.458 -82.878H971.367M896.464 -87.213H931.757M896.464 -87.213L894.962 -89.325L894.221 -90.367L893.852 -90.885L893.485 -91.401M896.464 -87.213H861.172M863.638 -82.878L861.78 -86.143L861.172 -87.213M863.638 -82.878L866.193 -78.39M902.741 -78.39H939.289M902.741 -78.39H866.193M931.757 -87.213H967.05M931.757 -87.213L928.182 -91.401M939.289 -78.39H975.837M971.367 -82.878L968.115 -86.143L967.05 -87.213M971.367 -82.878L975.27 -78.96L975.837 -78.39M971.367 -82.878H1007.28M893.485 -91.401H928.182M893.485 -91.401H858.788M861.172 -87.213L859.969 -89.325L859.081 -90.885L858.788 -91.401M967.05 -87.213H1002.34M967.05 -87.213L962.879 -91.401M928.182 -91.401H962.879M1425.13 215.415H1346.78M1425.13 215.415L1399.24 195.192M1425.13 215.415H1448.61M1425.13 215.415L1448.61 233.748M1399.24 195.192L1375.18 176.402M1399.24 195.192L1323.77 195.193M1399.24 195.192L1448.61 195.193M1448.61 215.415V195.193M1448.61 215.415V233.748M1448.61 233.748V237.241V260.87M1352.76 158.896H1423.07M1352.76 158.896L1331.83 142.549M1352.76 158.896H1282.46M1352.76 158.896L1375.18 176.401M1423.07 158.896L1399.81 142.549M1423.07 158.896L1447.98 176.401M1423.07 158.896H1448.61M1331.83 142.549H1399.81M1331.83 142.549H1263.85M1331.83 142.549L1312.24 127.249M1399.81 142.549L1378.05 127.249M1399.81 142.549H1448.61M1448.61 158.896V142.549M1448.61 158.896V176.401V176.845V195.193M1263.85 142.549L1246.44 127.25M1263.85 142.549L1282.46 158.897M1448.61 142.549V130.289V127.25H1443.85M1276.6 99.412H1338.44M1276.6 99.412L1260.34 86.713M1276.6 99.412H1214.75M1276.6 99.412L1293.87 112.899M1338.44 99.412L1320.38 86.713M1338.44 99.412L1357.63 112.899M1338.44 99.412H1400.29M1260.34 86.713H1320.38M1260.34 86.713H1200.3M1260.34 86.713L1245 74.735M1320.38 86.713L1303.33 74.735M1320.38 86.713H1380.41M1400.29 99.412L1380.41 86.713M1400.29 99.412L1421.39 112.899M1400.29 99.412H1448.61M1200.3 86.713L1186.67 74.735M1200.3 86.713L1214.75 99.413M1245 74.735H1303.33M1245 74.735H1186.67M1245 74.735L1230.51 63.419H1173.79M1303.33 74.735H1361.67M1380.41 86.713L1361.67 74.735M1380.41 86.713H1440.45M1216.8 52.71H1272M1216.8 52.71L1203.8 42.562M1216.8 52.71H1161.6M1216.8 52.71L1230.51 63.42H1287.23M1272 52.71L1257.56 42.561M1272 52.71L1287.23 63.419M1272 52.71L1327.2 52.709M1161.6 52.71L1150.05 42.561M1161.6 52.71L1173.79 63.419M1257.56 42.561H1203.8M1257.56 42.561L1243.86 32.929M1257.56 42.561H1311.32M1327.2 52.709L1311.32 42.561M1327.2 52.709L1343.96 63.42M1327.2 52.709H1382.4M1203.8 42.561H1150.05M1203.8 42.561L1191.47 32.929M1150.05 42.561L1139.09 32.929M1191.47 32.929H1243.86M1191.47 32.929H1139.09M1191.47 32.929L1179.75 23.777M1243.86 32.929L1230.84 23.778L1218.45 15.068M1243.86 32.929H1296.24M1311.32 42.561L1296.24 32.929M1311.32 42.561H1365.07M1168.6 15.069H1218.45M1168.6 15.069L1157.98 6.772M1168.6 15.069H1118.76M1168.6 15.069L1179.75 23.777M1179.75 23.777H1230.84H1281.92M1179.75 23.777H1128.67M1218.45 15.068L1206.64 6.77301M1218.45 15.068H1268.29M1206.64 6.77301H1157.98M1206.64 6.77301L1195.39 -1.14001M1206.64 6.77301H1255.31M1268.29 15.068L1255.31 6.77301M1268.29 15.068H1318.14M1157.98 6.77301H1109.31M1157.98 6.77301L1147.85 -1.14001M1109.31 6.77301L1100.31 -1.14001M1109.31 6.77301L1118.76 15.068M1147.85 -1.14001H1195.39M1147.85 -1.14001H1100.31M1147.85 -1.14001L1138.17 -8.694M1195.39 -1.14001L1184.64 -8.69501L1174.37 -15.915M1195.39 -1.14001H1242.92M1255.31 6.77301L1242.92 -1.14001M1255.31 6.77301L1303.97 6.77399M1128.93 -15.915H1174.37M1128.93 -15.915L1120.08 -22.822M1128.93 -15.915H1083.49M1128.93 -15.915L1138.17 -8.69501M1174.37 -15.915L1164.54 -22.822H1120.08M1174.37 -15.915H1219.8M1120.08 -22.822H1075.63M1120.08 -22.822L1111.61 -29.438M1083.49 -15.915L1075.63 -22.822M1083.49 -15.915L1091.71 -8.69501M1219.8 -15.915L1208.99 -22.823M1219.8 -15.915L1231.1 -8.69501M1219.8 -15.915H1265.24M1075.63 -22.822H1031.18M1111.61 -29.438L1103.49 -35.779M1155.13 -29.438L1164.54 -22.823H1208.99M1208.99 -22.823L1198.64 -29.438H1242.15H1285.66M1095.7 -41.863H1137.45M1095.7 -41.863L1088.22 -47.704M1095.7 -41.863H1053.96M1095.7 -41.863L1103.49 -35.779M1137.45 -41.863L1129.14 -47.704M1137.45 -41.863L1146.1 -35.779M1137.45 -41.863H1179.19M1088.22 -47.704H1129.14M1088.22 -47.704H1047.31M1088.22 -47.704L1081.04 -53.318M1053.96 -41.863L1047.31 -47.704M1053.96 -41.863L1060.88 -35.779M1103.49 -35.779H1146.1M1129.14 -47.704L1121.15 -53.318M1129.14 -47.704H1170.05M1146.1 -35.779L1155.13 -29.439M1146.1 -35.779H1188.71M1179.19 -41.863L1170.05 -47.704M1179.19 -41.863L1188.71 -35.779M1179.19 -41.863H1220.94M1047.31 -47.704L1040.92 -53.318M1081.04 -53.318H1121.15M1081.04 -53.318H1040.92M1081.04 -53.318L1074.12 -58.716M1121.15 -53.318L1114.41 -58.053L1113.47 -58.716M1121.15 -53.318H1161.27M1170.05 -47.704L1161.27 -53.318M1170.05 -47.704H1210.97M1067.47 -63.912H1106.08M1067.47 -63.912L1061.06 -68.916M1067.47 -63.912H1028.86M1067.47 -63.912L1069.11 -62.632L1069.94 -61.986L1074.12 -58.716M1106.08 -63.912L1098.96 -68.916M1106.08 -63.912L1113.47 -58.716M1106.08 -63.912H1144.69M1061.06 -68.916H1098.96M1061.06 -68.916H1023.17M1061.06 -68.916L1054.89 -73.738M1028.86 -63.912L1023.17 -68.916M1028.86 -63.912L1034.78 -58.716M1074.12 -58.716H1113.47M1074.12 -58.716H1034.78M1098.96 -68.916L1092.1 -73.738M1098.96 -68.916H1136.86M1113.47 -58.716H1152.82M1144.69 -63.912L1136.86 -68.916M1144.69 -63.912L1152.82 -58.716M1144.69 -63.912H1183.3M1023.17 -68.916L1017.68 -73.738M1054.89 -73.738H1092.1M1054.89 -73.738H1017.68M1054.89 -73.738L1048.93 -78.39M1092.1 -73.738L1085.48 -78.39M1092.1 -73.738H1129.31M1136.86 -68.916L1129.31 -73.738M1136.86 -68.916H1174.75M1043.19 -82.878H1079.1M1043.19 -82.878L1037.64 -87.213M1043.19 -82.878H1007.28M1043.19 -82.878L1048.93 -78.39M1079.1 -82.878L1074.45 -86.143L1073.69 -86.68L1072.93 -87.213M1079.1 -82.878L1085.48 -78.39M1079.1 -82.878H1115M1037.64 -87.213H1072.93M1037.64 -87.213L1032.93 -90.885L1032.27 -91.401M1037.64 -87.213H1002.34M1007.28 -82.878L1002.34 -87.213M1007.28 -82.878L1012.38 -78.39M1048.93 -78.39H1085.48M1048.93 -78.39H1012.38M1072.93 -87.213H1108.22M1072.93 -87.213L1066.97 -91.401M1085.48 -78.39H1122.03M1115 -82.878L1108.22 -87.213M1115 -82.878L1122.03 -78.39M1115 -82.878H1150.91M1032.27 -91.401H1066.97M1032.27 -91.401H997.576M1002.34 -87.213L998.752 -90.367L997.576 -91.401M1108.22 -87.213H1143.51M1108.22 -87.213L1101.67 -91.401M1066.97 -91.401H1101.67M1437.6 52.709L1418.83 42.561M1437.6 52.709H1382.4M1437.6 52.709L1448.61 58.662M1437.6 52.709L1448.61 52.71M1382.4 52.709L1365.07 42.561M1382.4 52.709L1400.68 63.42M1448.61 58.662V52.71M1448.61 58.662V63.419M1448.61 52.71V42.561V32.929M1418.83 42.562H1365.07M1418.83 42.562L1401.01 32.93M1418.83 42.562H1448.61M1401.01 32.93L1384.09 23.778M1401.01 32.93L1348.63 32.929M1401.01 32.93L1448.61 32.929M1367.98 15.07H1417.82M1367.98 15.07L1352.64 6.77301M1367.98 15.07H1318.14M1367.98 15.07L1384.09 23.778M1352.64 6.77301L1401.3 6.77399M1352.64 6.77301L1303.97 6.77399M1352.64 6.77301L1338 -1.14001M1384.09 23.778H1333L1318.14 15.068M1417.82 15.069L1401.3 6.77399M1417.82 15.069L1435.17 23.779M1417.82 15.069H1448.61M1401.3 6.77399L1385.54 -1.14001M1401.3 6.77399L1448.61 6.77301M1303.97 6.77399L1290.46 -1.14001M1303.97 6.77399L1318.14 15.068M1338 -1.14001H1385.54M1338 -1.14001H1290.46M1338 -1.14001L1324.03 -8.694M1385.54 -1.14001L1370.49 -8.69501L1356.11 -15.915M1385.54 -1.14001H1433.08M1448.61 6.77301V15.068M1448.61 6.77301V6.13699M1310.68 -15.915H1356.11M1310.68 -15.915L1297.9 -22.822M1310.68 -15.915H1265.24M1310.68 -15.915L1324.03 -8.69501M1356.11 -15.915L1342.35 -22.822H1297.9M1356.11 -15.915H1401.55M1297.9 -22.822H1253.44M1297.9 -22.822L1285.66 -29.438M1265.24 -15.915L1253.44 -22.822M1265.24 -15.915L1277.57 -8.69501M1401.55 -15.915L1386.81 -22.823M1401.55 -15.915L1416.96 -8.69501M1401.55 -15.915H1446.98M1253.44 -22.822H1208.99M1285.66 -29.438H1329.18M1285.66 -29.438L1273.93 -35.779M1329.18 -29.438L1342.35 -22.823H1386.81M1329.18 -29.438H1372.69M1386.81 -22.823L1372.69 -29.438M1262.68 -41.863H1304.43M1262.68 -41.863L1251.88 -47.704M1262.68 -41.863H1220.94M1262.68 -41.863L1273.93 -35.779M1304.43 -41.863L1292.79 -47.704M1304.43 -41.863L1316.55 -35.779M1304.43 -41.863H1346.17M1251.88 -47.704H1292.79M1251.88 -47.704H1210.97M1251.88 -47.704L1241.5 -53.318M1220.94 -41.863L1210.97 -47.704M1220.94 -41.863L1231.32 -35.779M1273.93 -35.779H1316.55M1273.93 -35.779H1231.32M1292.79 -47.704L1281.61 -53.318M1292.79 -47.704H1333.71M1316.55 -35.779L1329.18 -29.439M1316.55 -35.779H1359.16M1346.17 -41.863L1333.71 -47.704M1346.17 -41.863L1359.16 -35.779M1346.17 -41.863H1387.92M1210.97 -47.704L1201.38 -53.318M1241.5 -53.318H1281.61M1241.5 -53.318H1201.38M1241.5 -53.318L1231.51 -58.716M1281.61 -53.318L1270.86 -58.716M1281.61 -53.318H1321.73M1333.71 -47.704L1321.73 -53.318M1333.71 -47.704H1374.62M1221.9 -63.912H1260.51M1221.9 -63.912L1212.65 -68.916M1221.9 -63.912H1183.3M1221.9 -63.912L1231.51 -58.716M1260.51 -63.912L1250.54 -68.916M1260.51 -63.912L1270.86 -58.716M1260.51 -63.912H1299.12M1212.65 -68.916H1250.54M1212.65 -68.916H1174.75M1212.65 -68.916L1203.73 -73.738M1183.3 -63.912L1175.8 -68.301L1174.75 -68.916M1183.3 -63.912L1192.17 -58.716M1231.51 -58.716H1270.86M1231.51 -58.716H1192.17M1250.54 -68.916L1240.94 -73.738M1250.54 -68.916H1288.44M1270.86 -58.716H1310.21M1299.12 -63.912L1288.44 -68.916M1299.12 -63.912L1310.21 -58.716M1299.12 -63.912H1337.73M1174.75 -68.916L1166.52 -73.738M1203.73 -73.738H1240.94M1203.73 -73.738H1166.52M1203.73 -73.738L1195.13 -78.39M1240.94 -73.738L1231.67 -78.39M1240.94 -73.738H1278.15M1288.44 -68.916L1278.15 -73.738M1288.44 -68.916H1326.34M1186.82 -82.878H1222.73M1186.82 -82.878L1178.81 -87.213M1186.82 -82.878H1150.91M1186.82 -82.878L1195.13 -78.39M1222.73 -82.878L1214.1 -87.213M1222.73 -82.878L1231.67 -78.39M1222.73 -82.878H1258.64M1178.81 -87.213H1214.1M1178.81 -87.213L1171.06 -91.401M1178.81 -87.213H1143.51M1150.91 -82.878L1143.51 -87.213M1150.91 -82.878L1158.58 -78.39M1195.13 -78.39H1231.67M1195.13 -78.39H1158.58M1214.1 -87.213H1249.39M1214.1 -87.213L1205.76 -91.401M1231.67 -78.39H1268.22M1258.64 -82.878L1249.39 -87.213M1258.64 -82.878L1268.22 -78.39M1258.64 -82.878H1294.55M1171.06 -91.401H1205.76M1171.06 -91.401H1136.36M1143.51 -87.213L1136.36 -91.401M1249.39 -87.213H1284.69M1249.39 -87.213L1240.45 -91.401M1205.76 -91.401H1240.45M1429.66 -41.863L1415.53 -47.704M1429.66 -41.863H1387.92M1429.66 -41.863L1444.38 -35.779M1429.66 -41.863H1448.61M1415.53 -47.704H1374.62M1415.53 -47.704L1401.96 -53.318M1415.53 -47.704H1448.61M1387.92 -41.863L1374.62 -47.704M1387.92 -41.863L1401.77 -35.779M1444.38 -35.779H1401.77M1444.38 -35.779H1448.61M1444.38 -35.779L1448.61 -34.03M1448.61 -41.863V-47.704M1448.61 -41.863V-35.779M1374.62 -47.704L1361.84 -53.318M1401.96 -53.318H1442.07M1401.96 -53.318H1361.84M1401.96 -53.318L1388.9 -58.716M1448.61 -47.704V-50.766M1376.34 -63.912H1414.94M1376.34 -63.912L1364.23 -68.916M1376.34 -63.912H1337.73M1376.34 -63.912L1388.9 -58.716M1414.94 -63.912L1402.13 -68.916M1414.94 -63.912L1428.25 -58.716M1414.94 -63.912H1448.61M1364.23 -68.916H1402.13M1364.23 -68.916H1326.34M1364.23 -68.916L1352.57 -73.738M1337.73 -63.912L1326.34 -68.916M1337.73 -63.912L1349.55 -58.716M1388.9 -58.716H1428.25M1388.9 -58.716H1349.55M1402.13 -68.916L1389.78 -73.738M1402.13 -68.916H1440.02M1428.25 -58.716L1442.07 -53.318M1428.25 -58.716H1448.61M1448.61 -63.912H1448.73M1448.61 -63.912V-65.741M1448.61 -63.912V-58.716M1326.34 -68.916L1315.36 -73.738M1352.57 -73.738H1389.78M1352.57 -73.738H1315.36M1352.57 -73.738L1341.32 -78.39M1389.78 -73.738L1377.87 -78.39M1389.78 -73.738H1426.99M1440.02 -68.916L1426.99 -73.738M1440.02 -68.916L1448.61 -65.741M1440.02 -68.916H1448.61M1330.46 -82.878H1366.37M1330.46 -82.878L1319.98 -87.213M1330.46 -82.878H1294.55M1330.46 -82.878L1341.32 -78.39M1366.37 -82.878L1355.27 -87.213M1366.37 -82.878L1377.87 -78.39M1366.37 -82.878H1402.28M1319.98 -87.213H1355.27M1319.98 -87.213L1309.85 -91.401M1319.98 -87.213H1284.69M1294.55 -82.878L1284.69 -87.213M1294.55 -82.878L1304.77 -78.39M1341.32 -78.39H1377.87M1341.32 -78.39H1304.77M1355.27 -87.213H1390.56M1355.27 -87.213L1344.55 -91.401M1377.87 -78.39H1414.42M1402.28 -82.878L1390.56 -87.213M1402.28 -82.878L1414.42 -78.39M1402.28 -82.878H1438.19M1309.85 -91.401H1344.55M1309.85 -91.401H1275.15M1284.69 -87.213L1275.15 -91.401M1390.56 -87.213H1425.86M1390.56 -87.213L1379.24 -91.401M1344.55 -91.401H1379.24M1414.42 -78.39L1426.99 -73.738M1414.42 -78.39H1448.61M1438.19 -82.878L1425.86 -87.213M1438.19 -82.878L1448.61 -79.218M1438.19 -82.878H1448.61M1425.86 -87.213L1413.94 -91.401M1425.86 -87.213H1448.61M1379.24 -91.401H1413.94M1379.24 -91.401L1368.3 -95.45M1426.99 -73.738H1448.61M1448.61 -78.39V-79.218M1448.61 -78.39V-73.738M1448.61 -79.218V-82.878M1448.61 -82.878V-87.213M1413.94 -91.401L1402.42 -95.45M1413.94 -91.401H1448.61M1448.61 -87.213V-91.401M1368.3 -95.45H1402.42M1448.61 -91.401H1448.64L1448.61 -91.411M1448.61 -91.401V-91.411M1448.61 -65.741V-68.916M1448.61 -68.916V-73.738M1315.36 -73.738L1304.77 -78.39M1315.36 -73.738H1278.15M1304.77 -78.39H1268.22M1442.07 -53.318L1448.61 -50.766M1442.07 -53.318H1448.61M1448.61 -58.716V-53.318M1448.61 -50.766V-53.318M1361.84 -53.318L1349.55 -58.716M1361.84 -53.318H1321.73M1349.55 -58.716H1310.21M1268.22 -78.39L1278.15 -73.738M1240.45 -91.401H1275.15M1240.45 -91.401L1231.81 -95.45M1275.15 -91.401L1265.94 -95.45M1231.81 -95.45H1265.94M1166.52 -73.738L1158.58 -78.39M1166.52 -73.738H1129.31M1158.58 -78.39H1122.03M1310.21 -58.716L1321.73 -53.318M1201.38 -53.318L1192.17 -58.716M1201.38 -53.318H1161.27M1192.17 -58.716H1152.82M1359.16 -35.779L1372.69 -29.439M1359.16 -35.779H1401.77M1401.77 -35.779L1416.2 -29.439L1431.26 -22.823M1448.61 -35.779V-34.03M1448.61 -34.03V-29.438M1372.69 -29.438H1416.2H1448.61M1386.81 -22.822H1431.26M1431.26 -22.822L1446.98 -15.915M1431.26 -22.822H1448.61M1448.61 -29.438H1448.84M1448.61 -29.438V-22.823V-15.915M1231.32 -35.779H1188.71M1231.32 -35.779L1242.15 -29.439L1253.44 -22.823M1446.98 -15.915L1448.61 -15.202M1446.98 -15.915H1448.61M1448.61 -15.202L1449 -15.03M1448.61 -15.202V-15.915M1448.61 -15.202V-8.694M1416.96 -8.694H1370.49H1324.03M1416.96 -8.694L1433.08 -1.14001M1416.96 -8.694H1448.61M1324.03 -8.694H1277.57M1433.08 -1.14001H1448.61M1433.08 -1.14001L1448.61 6.13699M1448.61 -8.694V-1.14001M1448.61 -1.14001V6.13699M1290.46 -1.14001L1277.57 -8.694M1290.46 -1.14001H1242.92M1277.57 -8.694H1231.1M1435.17 23.777H1384.09M1435.17 23.777L1448.61 30.523M1435.17 23.777H1448.61M1448.61 30.523L1448.76 30.598M1448.61 30.523V23.778V15.068M1448.61 30.523V32.929M1448.98 15.068H1448.61M1122.03 -78.39L1129.31 -73.738M1101.67 -91.401H1136.36M1101.67 -91.401L1095.33 -95.45M1136.36 -91.401L1135.49 -91.915L1133.74 -92.935L1129.45 -95.45M1095.33 -95.45H1129.45M1017.68 -73.738L1012.38 -78.39M1017.68 -73.738H980.47M1012.38 -78.39H975.837M1152.82 -58.716L1161.27 -53.318M1040.92 -53.318L1034.78 -58.716M1040.92 -53.318H1000.81M1034.78 -58.716H995.43M1188.71 -35.779L1198.64 -29.439H1155.13M1155.13 -29.439H1111.61M1103.49 -35.78H1060.88M1231.1 -8.694H1184.64H1138.17M1231.1 -8.694L1242.92 -1.14001M1138.17 -8.694H1091.71M1100.31 -1.14001L1091.71 -8.694M1100.31 -1.14001H1052.77M1091.71 -8.694H1045.25M1268.29 15.069L1281.92 23.777M1281.92 23.777L1296.24 32.929M1281.92 23.777H1333L1348.63 32.929M1296.24 32.929H1348.63M1348.63 32.929L1365.07 42.561M1139.09 32.929L1128.67 23.777M1139.09 32.929H1086.7M1128.67 23.777H1077.58M1343.96 63.42H1287.23M1343.96 63.42L1361.67 74.736M1343.96 63.42H1400.68M1400.68 63.42L1420 74.735M1287.23 63.42L1303.33 74.736M1420 74.735H1361.67M1420 74.735L1440.45 86.713M1420 74.735H1448.61M1400.68 63.419H1448.61M1448.61 63.419V74.735M1440.45 86.713H1448.61M1440.45 86.713L1448.61 91.491M1186.67 74.735L1173.79 63.419M1186.67 74.735H1128.33M1448.61 74.735V86.713M1173.79 63.419H1117.06M1448.61 99.412V91.491M1448.61 99.412V112.899V127.249M1448.61 86.713V91.491M1357.63 112.9L1378.05 127.25M1357.63 112.9H1421.39M1357.63 112.9H1293.87M1378.05 127.25H1443.85M1378.05 127.25H1312.24M1421.39 112.9L1443.85 127.25M1421.39 112.9H1448.61M1293.87 112.9L1312.24 127.25M1293.87 112.9H1230.1M1443.85 127.25L1448.61 130.29M1312.24 127.25H1246.44M1246.44 127.25L1230.1 112.9M1246.44 127.25H1180.63M1230.1 112.9L1214.75 99.413M1230.1 112.9H1166.34M1447.98 176.402H1375.18M1447.98 176.402H1448.61M1447.98 176.402L1448.61 176.846M1375.18 176.402H1302.38M1302.38 176.402L1282.46 158.897M1302.38 176.402H1229.58M1302.38 176.402L1323.77 195.193M975.837 -78.39L976.98 -77.243L980.47 -73.738M962.879 -91.401H997.576M962.879 -91.401L958.847 -95.45M997.576 -91.401L995.83 -92.935L992.967 -95.45M958.847 -95.45H992.967M868.839 -73.738L868.169 -74.917L866.193 -78.39M868.839 -73.738H831.63M866.193 -78.39H829.645M995.43 -58.716L1000.81 -53.318M880.461 -53.318L880.071 -54.004L879.681 -54.687L877.388 -58.716M880.461 -53.318H840.345M877.388 -58.716H838.041M1018.27 -35.779L1024.59 -29.439H981.075H937.563M1018.27 -35.779H1060.88M1060.88 -35.779L1068.1 -29.439L1075.63 -22.823M933.052 -35.78H890.442M1045.25 -8.694L1052.77 -1.14001M910.154 -1.14001L905.856 -8.694M910.154 -1.14001H862.616M905.856 -8.694H859.392M1068.91 15.069L1077.58 23.777M1077.58 23.777L1086.7 32.929M1118.76 15.068L1128.67 23.778M929.543 32.929L924.334 23.777M929.543 32.929H877.157M924.334 23.777H873.25M1117.06 63.419L1128.33 74.735M953.334 74.735L946.894 63.419M953.334 74.735H895M1003.62 63.42H946.894M1166.34 112.9L1152.91 99.413H1214.75M1166.34 112.9H1102.58M1166.34 112.9L1180.63 127.25M1102.58 112.9L1114.83 127.25M1102.58 112.9H1038.82M1114.83 127.25H1180.63M1114.83 127.25H1049.02M1038.82 112.9L1049.02 127.25M1038.82 112.9H975.052M1049.02 127.25H983.219M1212.15 158.897L1229.58 176.402M1212.15 158.897H1282.46M983.219 127.25L975.052 112.9M983.219 127.25H917.414M975.052 112.9L967.377 99.413M975.052 112.9H911.289M1229.58 176.402H1156.79M1229.58 176.402L1248.3 195.193M1156.79 176.402H1083.99M1083.99 176.402H1011.19M1248.3 195.193L1268.44 215.416M1248.3 195.193H1323.77M1323.77 195.193L1346.78 215.416M1268.44 215.416L1290.17 237.242M1268.44 215.416H1346.78M1290.17 237.242L1313.7 260.87M1290.17 237.242H1371.63M1346.78 215.416L1371.63 237.242M1021.88 195.193L1011.19 176.402M1021.88 195.193H946.413M1021.88 195.193L1033.39 215.416M1011.19 176.402L1001.23 158.897M1011.19 176.402H938.393M1313.7 260.87L1339.26 286.532M1313.7 260.87H1398.52M1371.63 237.242L1398.52 260.87M1371.63 237.242H1448.61M1398.52 260.87L1427.73 286.532M1398.52 260.87H1448.61M1339.26 286.532H1427.73M1427.73 286.532H1448.61M1427.73 286.532L1448.61 304.878M1448.61 260.87V286.532M1397.6 345.108L1431.09 378.74M1397.6 345.108H1448.61M1448.61 314.503V304.877V286.532M1448.61 314.503V345.107V378.74M1073.86 286.532L1059.26 260.87M1073.86 286.532H985.398M1059.26 260.87L1045.81 237.242M1059.26 260.87H974.445M1431.09 378.74L1448.61 396.33M1431.09 378.74H1448.61M1361.2 415.869H1254.33M1361.2 415.869H1448.61M1448.61 396.33V378.74M1448.61 396.33V415.869M1254.33 415.869H1147.47M1448.61 415.869V416H-8.608V415.869M1147.47 415.869L1126.34 378.74M1147.47 415.869H1040.6M1126.34 378.74L1107.2 345.108M1126.34 378.74H1024.75M829.645 -78.39L829.888 -77.817L830.134 -77.243L830.38 -76.665L830.628 -76.085L831.63 -73.738M824.091 -91.401L823.872 -91.915L823.436 -92.935L823.004 -93.948L822.79 -94.451L822.362 -95.45M824.091 -91.401H858.788M858.788 -91.401L856.768 -94.952L856.483 -95.45M822.362 -95.45H856.483M720 -73.738V-78.39M720 -73.738H682.79M720 -78.39H683.452M838.041 -58.716L840.345 -53.318M720 -53.318V-58.716M720 -53.318H679.885M720 -58.716H680.653M890.442 -35.779H847.831M847.831 -35.779L850.538 -29.439H807.025H763.512M762.611 -35.78H720M859.392 -8.694H812.928H766.464M859.392 -8.694L862.616 -1.14001M856.31 -15.914H901.747M766.464 -8.694H720M720 -1.14001V-8.694M720 -1.14001H672.461M720 -8.694H673.536M869.534 15.069L873.25 23.777M873.25 23.777L877.157 32.929M919.378 15.068L924.334 23.778M720 32.929V23.777M720 32.929H667.615M720 23.777H668.916M946.894 63.419H890.17M890.17 63.419L895 74.735M720 74.735V63.419M720 74.735H661.667M776.724 63.42H720M911.289 112.9L905.532 99.413H967.377M911.289 112.9H847.526M911.289 112.9L917.414 127.25M847.526 112.9L851.609 127.25M847.526 112.9H783.763M851.609 127.25H917.414M851.609 127.25H785.805M783.763 112.9L785.805 127.25M783.763 112.9H720M785.805 127.25H720M930.921 158.897L938.393 176.402M930.921 158.897H1001.23M720 127.25V112.9M720 127.25H654.195M720 112.9V99.413M720 112.9H656.237M938.393 176.402H865.595M938.393 176.402L946.413 195.193M865.595 176.402H792.798M792.798 176.402H720M946.413 195.193L955.044 215.416M955.044 215.416L964.36 237.242M955.044 215.416H1033.39M964.36 237.242L974.445 260.87M964.36 237.242H1045.81M1033.39 215.416L1045.81 237.242M720 195.193V176.402M720 195.193H644.529M720 176.402V158.897M720 176.402H647.202M974.445 260.87L985.398 286.532M1010.4 345.108L1024.75 378.74M1010.4 345.108H1107.2M720 286.532V260.87M720 286.532L631.534 286.531M720 260.87L635.185 260.869M1024.75 378.74L1040.6 415.869M933.733 415.869H1040.6M933.733 415.869H826.867M826.867 415.869H720M720 415.869V378.74M720 415.869L613.133 415.868M720 378.74L618.415 378.739M683.452 -78.39L683.37 -77.817L683.289 -77.243L683.206 -76.665L682.79 -73.738M685.303 -91.401H720M685.303 -91.401L685.521 -92.935L685.594 -93.443L685.879 -95.45M720 -91.401V-95.45M685.879 -95.45H720M571.161 -73.738L571.831 -74.917L573.807 -78.39M571.161 -73.738H533.951M573.807 -78.39H537.259M680.653 -58.716L679.885 -53.318M559.539 -53.318L562.612 -58.716M559.539 -53.318H519.424M562.612 -58.716H523.265M720 -35.779H677.389M720 -35.779V-29.439M677.389 -35.779L677.168 -34.219L676.717 -31.049L676.488 -29.439H632.975H589.462M720 -29.44V-22.824M673.536 -8.694L672.461 -1.14001M529.846 -1.14001L534.144 -8.694M529.846 -1.14001H482.307M534.144 -8.694H487.681M670.156 15.069L668.916 23.777M668.916 23.777L667.615 32.929M720 15.068V23.778M510.457 32.929L515.666 23.777M510.457 32.929H458.072M515.666 23.777H464.582M720 63.419H663.276M663.276 63.419L661.667 74.735M486.666 74.735L493.106 63.419M486.666 74.735H428.333M549.83 63.42H493.106M656.237 112.9L658.156 99.413H720M656.237 112.9H592.474M656.237 112.9L654.195 127.25M592.474 112.9L588.391 127.25M592.474 112.9H528.711M588.391 127.25H654.195M588.391 127.25H522.586M528.711 112.9L522.586 127.25M528.711 112.9H464.948M522.586 127.25H456.781M649.693 158.897L647.202 176.402M649.693 158.897H720M456.781 127.25L464.948 112.9M456.781 127.25H390.977M464.948 112.9L472.623 99.413M464.948 112.9H401.185M647.202 176.402H574.405M647.202 176.402L644.529 195.193M644.529 195.193L641.652 215.416M641.652 215.416L638.547 237.242M641.652 215.416H720M418.117 195.193L428.81 176.402M418.117 195.193H342.646M418.117 195.193L406.608 215.416M635.185 260.869L631.534 286.531M366.137 286.531L380.741 260.869M366.137 286.531L277.671 286.532M380.741 260.869L394.186 237.242M380.741 260.869L295.925 260.87M618.415 378.739L613.133 415.868M506.267 415.868H613.133M506.267 415.868H399.4M399.4 415.868H292.533M292.533 415.868L313.662 378.739M292.533 415.868L185.667 415.869M313.662 378.739L332.802 345.108M313.662 378.739L212.079 378.74M537.259 -78.39L533.951 -73.738M546.515 -91.401H581.212M546.515 -91.401L548.684 -94.451L549.395 -95.45M581.212 -91.401L581.504 -91.915L582.085 -92.935L583.516 -95.45M549.395 -95.45H583.516M422.321 -73.738L427.614 -78.39M422.321 -73.738H385.111M427.614 -78.39H391.066M523.265 -58.716L519.424 -53.318M399.079 -53.318L404.468 -58.053L405.223 -58.716M399.079 -53.318H358.964M405.223 -58.716H365.875M506.948 -35.779L502.437 -29.439H458.925H415.412M497.731 -22.822H542.185M421.727 -35.78H379.117M487.681 -8.694H441.217H394.753M487.681 -8.694L482.307 -1.14001M492.817 -15.914H538.253M394.753 -8.694H348.289M339.691 -1.14001L348.289 -8.694M339.691 -1.14001H292.153M348.289 -8.694H301.826M470.777 15.069L464.582 23.777M464.582 23.777L458.072 32.929M520.622 15.068L515.666 23.778M300.915 32.929L311.332 23.777M300.915 32.929H248.529M311.332 23.777H260.248M493.106 63.419H436.383M436.383 63.419L428.333 74.735M253.333 74.735L266.213 63.419M253.333 74.735H195M322.936 63.42H266.213M401.185 112.9L410.779 99.413H472.623M401.185 112.9H337.422M401.185 112.9L390.977 127.25M337.422 112.9L325.172 127.25M337.422 112.9H273.659M325.172 127.25H390.977M325.172 127.25H259.367M273.659 112.9L259.367 127.25M273.659 112.9H209.896M259.367 127.25H193.563M368.464 158.897L356.013 176.402M368.464 158.897H438.772M193.563 127.25L209.896 112.9M209.896 112.9H146.133M356.013 176.402H283.215M356.013 176.402L342.646 195.193M356.013 176.402H428.81M438.772 158.897L428.81 176.402M283.215 176.402H210.417M210.417 176.402H137.619M342.646 195.193L328.26 215.416M328.26 215.416L312.733 237.242M328.26 215.416H406.608M312.733 237.242L295.925 260.87M312.733 237.242H394.186M406.608 215.416L394.186 237.242M116.233 195.193L137.619 176.402M116.233 195.193H40.762M137.619 176.402L157.543 158.897M137.619 176.402H64.822M295.925 260.87L277.671 286.532M236.002 345.108L212.079 378.74M236.002 345.108H332.802M12.273 286.532L41.482 260.869H-8.608M12.273 286.532L-8.607 286.531M12.273 286.532L-8.607 304.877M212.079 378.74L185.667 415.869M78.799 415.869H185.667M78.799 415.869H-8.608M-8.608 415.869V396.33V378.739M-8.608 378.739V345.109V314.503V304.878V286.532V260.869M391.066 -78.39L385.111 -73.738M407.727 -91.401L408.384 -91.915L412.912 -95.45M407.727 -91.401H442.424M442.424 -91.401L444.17 -92.935L447.033 -95.45M412.912 -95.45H447.033M273.481 -73.738L281.421 -78.39M273.481 -73.738H236.27M365.875 -58.716L358.964 -53.318M238.618 -53.318L247.834 -58.716M238.618 -53.318H198.502M247.834 -58.716L256.703 -63.912M247.834 -58.716H208.486M336.506 -35.779L328.387 -29.439H284.875M336.506 -35.779H379.117M379.117 -35.779L371.899 -29.439L364.37 -22.823M284.875 -29.439H241.362M251.286 -35.78H208.675M301.826 -8.694H255.362H208.898M301.826 -8.694L292.153 -1.14001M208.898 -8.694H162.434M149.537 -1.14001L162.434 -8.694M149.537 -1.14001H101.998M162.434 -8.694H115.97M271.399 15.069L260.248 23.777M260.248 23.777L248.529 32.929M321.243 15.068L311.332 23.778M91.372 32.929L106.997 23.778M91.372 32.929L38.986 32.93M266.213 63.419H209.49M209.49 63.419L195 74.735M19.999 74.735L39.32 63.42M19.999 74.735H-8.608M146.133 112.9L163.402 99.413H225.247M146.133 112.9H82.37H18.607M146.133 112.9L127.758 127.25M61.953 127.25H127.758M61.953 127.25H-3.852L18.607 112.9M18.607 112.9H-8.608M127.758 127.25L108.166 142.55M127.758 127.25H193.562M108.166 142.55L87.236 158.897M108.166 142.55H176.147M87.236 158.897L64.822 176.402M87.236 158.897H157.543M-8.608 127.25H-3.851L-8.608 130.29M-8.608 127.25V130.29M-8.608 127.25V112.9M-8.608 112.9V99.413V91.493V86.713M64.822 176.402H-7.975M64.822 176.402L40.762 195.193M-7.975 176.402H-8.608M-7.975 176.402L-8.608 176.846M-8.608 176.402V176.846M-8.608 176.846V195.192M40.762 195.193L14.867 215.415M40.762 195.193L-8.608 195.192M14.867 215.415H-8.608M14.867 215.415L-8.608 233.748M-8.608 233.748V237.242V260.869M-8.608 233.748V215.416V195.192M199.06 -73.738H236.27M199.06 -73.738H161.851M244.873 -78.39L253.175 -82.878M244.873 -78.39L236.27 -73.738M244.873 -78.39H281.421M253.175 -82.878L261.192 -87.213M253.175 -82.878H289.085M261.192 -87.213L268.938 -91.401M289.085 -82.878L281.421 -78.39M268.938 -91.401H234.241M268.938 -91.401L269.887 -91.915L276.426 -95.45M268.938 -91.401H303.635M234.241 -91.401L242.306 -95.45M303.635 -91.401H338.332L344.668 -95.45M303.635 -91.401L304.511 -91.915L310.547 -95.45M161.851 -73.738H124.641L135.228 -78.39M135.228 -78.39H98.681M208.486 -58.716L198.502 -53.318M158.387 -53.318H198.502M198.502 -53.318L188.12 -47.704M188.12 -47.704L177.316 -41.863M188.12 -47.704H229.034M78.157 -53.318L90.446 -58.716M78.157 -53.318H38.042M90.446 -58.716H51.099M166.065 -35.779L154.337 -29.439H110.824M166.065 -35.779H208.675M208.675 -35.779L197.849 -29.439L186.555 -22.823M110.824 -29.439H67.312M23.799 -29.438L38.235 -35.78H80.845M115.97 -8.694L101.998 -1.14001M72.02 15.069L55.914 23.777L38.986 32.93M121.865 15.068L106.997 23.778M106.997 23.778H55.914H4.83M4.83 23.778H-8.608M4.83 23.778L-8.608 30.523M-8.608 30.523L-8.756 30.598M-8.608 30.523V32.929M38.986 32.93L21.172 42.562M38.986 32.93L-8.608 32.929M21.173 42.561L2.403 52.709M21.173 42.561H-8.607M-8.607 42.561L-8.608 52.71M-8.607 42.561L-8.608 32.929M2.402 52.71H-8.608M2.402 52.71L-8.608 58.663M-8.608 52.71V58.663M-8.608 58.663V63.42V74.736V86.713M39.32 63.419H-8.608M62.133 -78.39L50.223 -73.738M62.133 -78.39H98.681M50.223 -73.738H87.431M50.223 -73.738H13.012M98.681 -78.39L87.431 -73.738M130.15 -91.401H164.846M130.15 -91.401L139.943 -95.45M164.846 -91.401L174.064 -95.45M13.012 -73.738H-8.608M51.099 -58.716L38.042 -53.318M-2.073 -53.318H38.042M-2.073 -53.318L-8.608 -50.766M-2.073 -53.318H-8.608M38.042 -53.318L24.466 -47.704M24.466 -47.704L10.338 -41.863M24.466 -47.704H-8.608M10.338 -41.863L-4.375 -35.779M10.338 -41.863H-8.608M-8.608 -50.766V-53.318M-4.375 -35.779L-8.608 -34.03M-4.376 -35.78H-8.608M23.8 -29.439H-8.608H-8.835M-8.608 -15.916H-6.985L-8.608 -15.203M-9 -15.03L-8.608 -15.202M-8.608 -82.878V-87.212V-91.4M26.06 -91.401L37.58 -95.45M26.06 -91.401H-8.608M37.58 -95.45H3.46M310.548 -95.45H276.427M174.065 -95.45H139.944M3.46 -95.45L-8.608 -91.411M3.46 -95.45H-8.608M1448.61 -91.411V-95.45M-8.608 6.772V15.07M-8.608 -91.4H-8.638L-8.608 -91.41M-8.608 -91.4V-91.41M-8.608 -91.41V-95.449V-99.366" stroke="url(#paint0_linear_3040_138127)" stroke-width="1.012" stroke-miterlimit="10" stroke-linecap="round" stroke-linejoin="round"/>
<defs>
<linearGradient id="paint0_linear_3040_138127" x1="720" y1="-103.158" x2="720" y2="260.836" gradientUnits="userSpaceOnUse">
<stop stop-color="#CED2DF" stop-opacity="0"/>
<stop offset="1" stop-color="#CED2DF"/>
</linearGradient>
</defs>
</svg>
