<svg width="1440" height="876" viewBox="0 0 1440 876" fill="none" xmlns="http://www.w3.org/2000/svg">
<g clip-path="url(#clip0_5157_37037)">
<rect width="1440" height="876" fill="white"/>
<g filter="url(#filter0_d_5157_37037)">
<g clip-path="url(#clip1_5157_37037)">
<rect width="1440" height="876" rx="14.961" fill="url(#paint0_linear_5157_37037)" shape-rendering="crispEdges"/>
<path d="M707.761 1283.95C1084.96 1283.95 1390.73 968.911 1390.73 580.293C1390.73 191.674 1084.96 -123.363 707.761 -123.363C330.566 -123.363 24.7891 191.674 24.7891 580.293C24.7891 968.911 330.566 1283.95 707.761 1283.95Z" stroke="white" stroke-opacity="0.25" stroke-width="2.44325" stroke-miterlimit="10" style="mix-blend-mode:soft-light"/>
<path d="M707.758 1256.76C1070.38 1256.76 1364.34 953.895 1364.34 580.294C1364.34 206.693 1070.38 -96.1699 707.758 -96.1699C345.14 -96.1699 51.1797 206.693 51.1797 580.294C51.1797 953.895 345.14 1256.76 707.758 1256.76Z" stroke="white" stroke-opacity="0.25" stroke-width="2.44325" stroke-miterlimit="10" style="mix-blend-mode:soft-light"/>
<path d="M707.764 1229.56C1055.8 1229.56 1337.94 938.871 1337.94 580.293C1337.94 221.715 1055.8 -68.9707 707.764 -68.9707C359.726 -68.9707 77.5859 221.715 77.5859 580.293C77.5859 938.871 359.726 1229.56 707.764 1229.56Z" stroke="white" stroke-opacity="0.25" stroke-width="2.44325" stroke-miterlimit="10" style="mix-blend-mode:soft-light"/>
<path d="M707.761 1202.36C1041.22 1202.36 1311.55 923.854 1311.55 580.294C1311.55 236.733 1041.22 -41.7773 707.761 -41.7773C374.3 -41.7773 103.977 236.733 103.977 580.294C103.977 923.854 374.3 1202.36 707.761 1202.36Z" stroke="white" stroke-opacity="0.25" stroke-width="2.44325" stroke-miterlimit="10" style="mix-blend-mode:soft-light"/>
<path d="M707.759 1175.17C1026.64 1175.17 1285.15 908.835 1285.15 580.293C1285.15 251.75 1026.64 -14.5859 707.759 -14.5859C388.874 -14.5859 130.367 251.75 130.367 580.293C130.367 908.835 388.874 1175.17 707.759 1175.17Z" stroke="white" stroke-opacity="0.25" stroke-width="2.44325" stroke-miterlimit="10" style="mix-blend-mode:soft-light"/>
<path d="M707.764 1147.98C1012.07 1147.98 1258.76 893.818 1258.76 580.294C1258.76 266.769 1012.07 12.6074 707.764 12.6074C403.456 12.6074 156.766 266.769 156.766 580.294C156.766 893.818 403.456 1147.98 707.764 1147.98Z" stroke="white" stroke-opacity="0.25" stroke-width="2.44325" stroke-miterlimit="10" style="mix-blend-mode:soft-light"/>
<path d="M707.762 1120.78C997.49 1120.78 1232.36 878.795 1232.36 580.293C1232.36 281.791 997.49 39.8066 707.762 39.8066C418.035 39.8066 183.164 281.791 183.164 580.293C183.164 878.795 418.035 1120.78 707.762 1120.78Z" stroke="white" stroke-opacity="0.25" stroke-width="2.44325" stroke-miterlimit="10" style="mix-blend-mode:soft-light"/>
<path d="M707.76 1093.59C982.911 1093.59 1205.96 863.778 1205.96 580.294C1205.96 296.809 982.911 67 707.76 67C432.609 67 209.555 296.809 209.555 580.294C209.555 863.778 432.609 1093.59 707.76 1093.59Z" stroke="white" stroke-opacity="0.25" stroke-width="2.44325" stroke-miterlimit="10" style="mix-blend-mode:soft-light"/>
<path d="M707.765 1066.39C968.339 1066.39 1179.58 848.759 1179.58 580.293C1179.58 311.826 968.339 94.1914 707.765 94.1914C447.19 94.1914 235.953 311.826 235.953 580.293C235.953 848.759 447.19 1066.39 707.765 1066.39Z" stroke="white" stroke-opacity="0.25" stroke-width="2.44325" stroke-miterlimit="10" style="mix-blend-mode:soft-light"/>
<path d="M707.763 1039.2C953.76 1039.2 1153.18 833.742 1153.18 580.294C1153.18 326.845 953.76 121.385 707.763 121.385C461.764 121.385 262.344 326.845 262.344 580.294C262.344 833.742 461.764 1039.2 707.763 1039.2Z" stroke="white" stroke-opacity="0.25" stroke-width="2.44325" stroke-miterlimit="10" style="mix-blend-mode:soft-light"/>
<path d="M707.76 1012C939.178 1012 1126.78 818.719 1126.78 580.293C1126.78 341.867 939.178 148.584 707.76 148.584C476.343 148.584 288.742 341.867 288.742 580.293C288.742 818.719 476.343 1012 707.76 1012Z" stroke="white" stroke-opacity="0.25" stroke-width="2.44325" stroke-miterlimit="10" style="mix-blend-mode:soft-light"/>
<path d="M707.766 984.808C924.607 984.808 1100.39 803.7 1100.39 580.292C1100.39 356.884 924.607 175.775 707.766 175.775C490.925 175.775 315.141 356.884 315.141 580.292C315.141 803.7 490.925 984.808 707.766 984.808Z" stroke="white" stroke-opacity="0.25" stroke-width="2.44325" stroke-miterlimit="10" style="mix-blend-mode:soft-light"/>
<path d="M707.763 957.617C910.028 957.617 1074 788.683 1074 580.293C1074 371.902 910.028 202.969 707.763 202.969C505.499 202.969 341.531 371.902 341.531 580.293C341.531 788.683 505.499 957.617 707.763 957.617Z" stroke="white" stroke-opacity="0.25" stroke-width="2.44325" stroke-miterlimit="10" style="mix-blend-mode:soft-light"/>
<path d="M707.761 930.425C895.449 930.425 1047.6 773.666 1047.6 580.294C1047.6 386.921 895.449 230.162 707.761 230.162C520.073 230.162 367.922 386.921 367.922 580.294C367.922 773.666 520.073 930.425 707.761 930.425Z" stroke="white" stroke-opacity="0.25" stroke-width="2.44325" stroke-miterlimit="10" style="mix-blend-mode:soft-light"/>
<path d="M707.759 903.224C880.866 903.224 1021.2 758.643 1021.2 580.293C1021.2 401.943 880.866 257.361 707.759 257.361C534.651 257.361 394.32 401.943 394.32 580.293C394.32 758.643 534.651 903.224 707.759 903.224Z" stroke="white" stroke-opacity="0.25" stroke-width="2.44325" stroke-miterlimit="10" style="mix-blend-mode:soft-light"/>
<path d="M707.764 876.032C866.295 876.032 994.809 743.626 994.809 580.294C994.809 416.962 866.295 284.555 707.764 284.555C549.233 284.555 420.719 416.962 420.719 580.294C420.719 743.626 549.233 876.032 707.764 876.032Z" stroke="white" stroke-opacity="0.25" stroke-width="2.44325" stroke-miterlimit="10" style="mix-blend-mode:soft-light"/>
<path d="M707.762 848.839C851.716 848.839 968.414 728.607 968.414 580.293C968.414 431.978 851.716 311.746 707.762 311.746C563.807 311.746 447.109 431.978 447.109 580.293C447.109 728.607 563.807 848.839 707.762 848.839Z" stroke="white" stroke-opacity="0.25" stroke-width="2.44325" stroke-miterlimit="10" style="mix-blend-mode:soft-light"/>
<path d="M707.759 821.648C837.137 821.648 942.018 713.59 942.018 580.294C942.018 446.997 837.137 338.939 707.759 338.939C578.381 338.939 473.5 446.997 473.5 580.294C473.5 713.59 578.381 821.648 707.759 821.648Z" stroke="white" stroke-opacity="0.25" stroke-width="2.44325" stroke-miterlimit="10" style="mix-blend-mode:soft-light"/>
<path d="M707.765 794.446C822.562 794.446 915.623 698.566 915.623 580.293C915.623 462.019 822.562 366.139 707.765 366.139C592.968 366.139 499.906 462.019 499.906 580.293C499.906 698.566 592.968 794.446 707.765 794.446Z" stroke="white" stroke-opacity="0.25" stroke-width="2.44325" stroke-miterlimit="10" style="mix-blend-mode:soft-light"/>
<path d="M707.762 767.255C807.983 767.255 889.228 683.549 889.228 580.293C889.228 477.038 807.983 393.332 707.762 393.332C607.542 393.332 526.297 477.038 526.297 580.293C526.297 683.549 607.542 767.255 707.762 767.255Z" stroke="white" stroke-opacity="0.25" stroke-width="2.44325" stroke-miterlimit="10" style="mix-blend-mode:soft-light"/>
<path d="M707.76 740.061C793.404 740.061 862.832 668.53 862.832 580.292C862.832 492.054 793.404 420.523 707.76 420.523C622.116 420.523 552.688 492.054 552.688 580.292C552.688 668.53 622.116 740.061 707.76 740.061Z" stroke="white" stroke-opacity="0.25" stroke-width="2.44325" stroke-miterlimit="10" style="mix-blend-mode:soft-light"/>
<path d="M707.758 712.87C778.825 712.87 836.437 653.514 836.437 580.293C836.437 507.073 778.825 447.717 707.758 447.717C636.69 447.717 579.078 507.073 579.078 580.293C579.078 653.514 636.69 712.87 707.758 712.87Z" stroke="white" stroke-opacity="0.25" stroke-width="2.44325" stroke-miterlimit="10" style="mix-blend-mode:soft-light"/>
<path d="M707.763 685.669C764.25 685.669 810.042 638.49 810.042 580.292C810.042 522.095 764.25 474.916 707.763 474.916C651.276 474.916 605.484 522.095 605.484 580.292C605.484 638.49 651.276 685.669 707.763 685.669Z" stroke="white" stroke-opacity="0.25" stroke-width="2.44325" stroke-miterlimit="10" style="mix-blend-mode:soft-light"/>
<path d="M707.761 658.477C749.671 658.477 783.646 623.473 783.646 580.293C783.646 537.114 749.671 502.109 707.761 502.109C665.85 502.109 631.875 537.114 631.875 580.293C631.875 623.473 665.85 658.477 707.761 658.477Z" stroke="white" stroke-opacity="0.25" stroke-width="2.44325" stroke-miterlimit="10" style="mix-blend-mode:soft-light"/>
</g>
</g>
</g>
<defs>
<filter id="filter0_d_5157_37037" x="-69.7417" y="0" width="1579.48" height="1060.32" filterUnits="userSpaceOnUse" color-interpolation-filters="sRGB">
<feFlood flood-opacity="0" result="BackgroundImageFix"/>
<feColorMatrix in="SourceAlpha" type="matrix" values="0 0 0 0 0 0 0 0 0 0 0 0 0 0 0 0 0 0 127 0" result="hardAlpha"/>
<feMorphology radius="79.7048" operator="erode" in="SourceAlpha" result="effect1_dropShadow_5157_37037"/>
<feOffset dy="114.576"/>
<feGaussianBlur stdDeviation="74.7233"/>
<feComposite in2="hardAlpha" operator="out"/>
<feColorMatrix type="matrix" values="0 0 0 0 0.102499 0 0 0 0 0.180837 0 0 0 0 0.533359 0 0 0 0.5 0"/>
<feBlend mode="normal" in2="BackgroundImageFix" result="effect1_dropShadow_5157_37037"/>
<feBlend mode="normal" in="SourceGraphic" in2="effect1_dropShadow_5157_37037" result="shape"/>
</filter>
<linearGradient id="paint0_linear_5157_37037" x1="-48.96" y1="613.503" x2="1430.9" y2="-75.8181" gradientUnits="userSpaceOnUse">
<stop stop-color="#001C64" stop-opacity="0.4"/>
<stop offset="1" stop-color="#001C64"/>
</linearGradient>
<clipPath id="clip0_5157_37037">
<rect width="1440" height="876" fill="white"/>
</clipPath>
<clipPath id="clip1_5157_37037">
<rect width="1440" height="876" rx="14.961" fill="white"/>
</clipPath>
</defs>
</svg>
