<svg width="134" height="48" viewBox="0 0 134 48" fill="none" xmlns="http://www.w3.org/2000/svg">
<g clip-path="url(#clip0_95_158316)">
<g clip-path="url(#clip1_95_158316)">
<g clip-path="url(#clip2_95_158316)">
<mask id="mask0_95_158316" style="mask-type:luminance" maskUnits="userSpaceOnUse" x="0" y="0" width="134" height="48">
<path d="M134 0.651367H0V47.3084H134V0.651367Z" fill="white"/>
</mask>
<g mask="url(#mask0_95_158316)">
<path d="M115.716 15.3903L121.923 26.4666H115.716V15.3903ZM112.009 9.0459V38.8391H115.716V30.7691H124.422L129.245 38.8391H133.693L116.456 9.0459H112.009Z" fill="#00AB4E"/>
<path d="M5.44048 8.02734C3.49165 10.3875 2.01532 13.2176 1.11674 16.3158C0.377681 18.7535 0.000114149 21.3191 9.11917e-05 23.9035C-0.00857255 27.2492 0.600189 30.5585 1.78543 33.6084C2.70615 35.9212 3.94015 38.0481 5.44048 39.9077V8.02734Z" fill="#00AB4E"/>
<path d="M14.614 23.8815L31.3118 4.59215C28.8831 2.71529 26.1337 1.46959 23.2517 0.940293C20.3698 0.410995 17.4233 0.610591 14.614 1.52542V46.471C16.3334 47.0818 18.1273 47.3618 19.9246 47.3003C23.9674 47.3136 27.9229 45.9373 31.2923 43.3444L14.614 23.8815Z" fill="#00AB4E"/>
<path d="M24.7093 18.7212L38.1349 34.3034C39.5291 30.9708 40.2382 27.3082 40.2059 23.6038C40.1918 21.7433 39.9738 19.8924 39.5565 18.0958C38.6627 14.1169 36.8853 10.4797 34.4019 7.54688L24.7093 18.7212Z" fill="#00AB4E"/>
<path d="M99.8628 23.8821L111.179 38.8391H106.082L95.143 23.8821L106.082 9.0459H111.179L99.8628 23.8821Z" fill="#00AB4E"/>
<path d="M59.6439 23.8821L71.0504 38.8391H65.8566L54.9174 23.8821L65.8566 9.0459H71.0504L59.6439 23.8821Z" fill="#00AB4E"/>
<path d="M83.0481 27.288C82.744 27.4506 82.4232 27.5671 82.0938 27.6345L90.04 38.8617H85.3138L75.0367 23.8821H79.7565C80.9619 23.8821 82.1176 23.3265 82.9698 22.3373C83.8221 21.3481 84.3009 20.0066 84.3009 18.6078C84.3009 17.2089 83.8221 15.8673 82.9698 14.8782C82.1176 13.889 80.9619 13.3333 79.7565 13.3333H75.0367V38.8313H71.4142V9.0459H79.7565C80.8365 9.0449 81.9062 9.29154 82.9038 9.77172C83.9015 10.2519 84.8076 10.9561 85.5701 11.8439C86.3326 12.7317 86.9368 13.7856 87.347 14.9451C87.7576 16.1044 87.9667 17.3466 87.9627 18.6001C87.9582 19.8408 87.7435 21.0684 87.3299 22.2127C86.9168 23.3568 86.3134 24.3952 85.5542 25.2685C84.8639 26.1566 84.0061 26.8477 83.0481 27.288Z" fill="#00AB4E"/>
<path d="M95.1356 9.0459H91.5261V38.8391H95.1356V9.0459Z" fill="#00AB4E"/>
<path d="M54.8261 9.0459H51.2167V38.8391H54.8261V9.0459Z" fill="#00AB4E"/>
</g>
</g>
</g>
</g>
<defs>
<clipPath id="clip0_95_158316">
<rect width="134" height="46.66" fill="white" transform="translate(0 0.649902)"/>
</clipPath>
<clipPath id="clip1_95_158316">
<rect width="134" height="46.66" fill="white" transform="translate(0 0.649902)"/>
</clipPath>
<clipPath id="clip2_95_158316">
<rect width="134" height="46.6571" fill="white" transform="translate(0 0.651367)"/>
</clipPath>
</defs>
</svg>
