<svg width="156" height="25" viewBox="0 0 156 25" fill="none" xmlns="http://www.w3.org/2000/svg">
<g clip-path="url(#clip0_95_158602)">
<g clip-path="url(#clip1_95_158602)">
<g clip-path="url(#clip2_95_158602)">
<mask id="mask0_95_158602" style="mask-type:luminance" maskUnits="userSpaceOnUse" x="0" y="0" width="156" height="25">
<path d="M156 0.5H0V24.5H156V0.5Z" fill="white"/>
</mask>
<g mask="url(#mask0_95_158602)">
<path d="M21.5998 1.7H0V11.0601H21.5998V1.7Z" fill="#002991"/>
<path d="M8.39991 13.4598H0V23.2999H8.39991V13.4598Z" fill="#008CFF"/>
<path d="M21.5997 13.4598H10.7998V23.2999H21.5997V13.4598Z" fill="#60CDFF"/>
<path d="M32.4764 20.5V5.30195H38.5408C39.708 5.30195 40.6994 5.49531 41.515 5.88203C42.3377 6.26875 42.96 6.82422 43.3818 7.54844C43.8037 8.26563 44.0146 9.10586 44.0146 10.0691C44.0146 11.0395 43.8037 11.8902 43.3818 12.6215C42.96 13.3457 42.3377 13.9082 41.515 14.309C40.6924 14.7027 39.701 14.8996 38.5408 14.8996H35.883V20.5H32.4764ZM38.235 12.2207C38.7342 12.2207 39.1631 12.1398 39.5217 11.9781C39.8873 11.8094 40.1686 11.5668 40.3654 11.2504C40.5623 10.934 40.6607 10.5402 40.6607 10.0691C40.6607 9.60508 40.5623 9.21836 40.3654 8.90899C40.1686 8.59258 39.8873 8.36055 39.5217 8.21289C39.1631 8.06524 38.7342 7.99141 38.235 7.99141H35.883V12.2207H38.235ZM45.4385 20.5V5.29141H48.7186V10.3645H48.7607C49.1264 9.7668 49.5939 9.30977 50.1635 8.99336C50.74 8.66992 51.415 8.5082 52.1885 8.5082C53.0252 8.5082 53.7424 8.68399 54.34 9.03555C54.9447 9.38711 55.4088 9.91445 55.7322 10.6176C56.0557 11.3137 56.2174 12.1715 56.2174 13.191V20.5H52.9373V13.634C52.9373 12.9098 52.7615 12.3473 52.41 11.9465C52.0654 11.5387 51.5803 11.3348 50.9545 11.3348C50.4975 11.3348 50.1002 11.4402 49.7627 11.6512C49.4252 11.8551 49.165 12.1434 48.9822 12.516C48.8064 12.8816 48.7186 13.3 48.7186 13.7711V20.5H45.4385ZM61.2693 20.6898C60.524 20.6898 59.8771 20.5492 59.3287 20.268C58.7873 19.9867 58.3725 19.593 58.0842 19.0867C57.7959 18.5805 57.6518 17.9934 57.6518 17.3254C57.6518 16.2637 57.9928 15.4445 58.6748 14.868C59.3639 14.2914 60.3061 13.9047 61.5014 13.7078L63.9588 13.3176C64.1768 13.2824 64.349 13.2367 64.4756 13.1805C64.6021 13.1172 64.6971 13.0363 64.7603 12.9379C64.8236 12.8395 64.8553 12.7164 64.8553 12.5688C64.8553 12.2523 64.7814 11.9781 64.6338 11.7461C64.4932 11.507 64.2822 11.3242 64.001 11.1977C63.7197 11.0641 63.3857 10.9973 62.999 10.9973C62.6264 10.9973 62.3029 11.0641 62.0287 11.1977C61.7615 11.3242 61.5471 11.507 61.3853 11.7461C61.2307 11.9781 61.1322 12.2559 61.09 12.5793H57.9365C58.0209 11.7355 58.2775 11.0078 58.7064 10.3961C59.1353 9.78438 59.7189 9.3168 60.4572 8.99336C61.1955 8.66992 62.0568 8.5082 63.0412 8.5082C64.0467 8.5082 64.9221 8.66289 65.6674 8.97227C66.4127 9.28164 66.9928 9.74219 67.4076 10.3539C67.8225 10.9656 68.0299 11.7039 68.0299 12.5688V20.5H64.8553V18.8547H64.8131C64.4615 19.4453 63.9764 19.8988 63.3576 20.2152C62.7459 20.5316 62.0498 20.6898 61.2693 20.6898ZM62.3768 18.2535C62.876 18.2535 63.3119 18.1305 63.6846 17.8844C64.0643 17.6313 64.3525 17.2938 64.5494 16.8719C64.7533 16.443 64.8553 15.9754 64.8553 15.4691V15.0262C64.7568 15.0895 64.6268 15.1457 64.465 15.1949C64.3103 15.2371 64.1346 15.2793 63.9377 15.3215L62.1342 15.6168C61.7475 15.6871 61.4311 15.8277 61.185 16.0387C60.9459 16.2496 60.8264 16.552 60.8264 16.9457C60.8264 17.2129 60.8861 17.4449 61.0057 17.6418C61.1252 17.8316 61.301 17.9828 61.533 18.0953C61.7721 18.2008 62.0533 18.2535 62.3768 18.2535ZM69.9072 20.5V8.76133H73.1873V10.7969H73.2084C73.5318 10.1219 73.9643 9.60156 74.5057 9.23594C75.0541 8.87031 75.701 8.6875 76.4463 8.6875C76.7697 8.6875 77.0228 8.70508 77.2057 8.74024V11.7355C77.1072 11.7145 76.9877 11.6969 76.8471 11.6828C76.7064 11.6688 76.5693 11.6617 76.4357 11.6617C75.7959 11.6617 75.2299 11.7953 74.7377 12.0625C74.2525 12.3297 73.8728 12.7094 73.5986 13.2016C73.3244 13.6938 73.1873 14.2703 73.1873 14.9313V20.5H69.9072ZM78.3869 20.5V8.76133H81.667V10.143H81.6775C81.8744 9.80547 82.1311 9.51719 82.4475 9.27813C82.7639 9.03203 83.133 8.84219 83.5549 8.70859C83.9768 8.56797 84.4443 8.49766 84.9576 8.49766C85.7311 8.49766 86.385 8.65234 86.9193 8.96172C87.4537 9.27109 87.858 9.72461 88.1322 10.3223H88.1428C88.4943 9.73867 88.9584 9.28867 89.535 8.97227C90.1115 8.65586 90.8041 8.49766 91.6127 8.49766C92.4143 8.49766 93.1103 8.65938 93.701 8.98281C94.2916 9.30625 94.7486 9.79844 95.0721 10.4594C95.3955 11.1133 95.5572 11.9254 95.5572 12.8957V20.5H92.2771V13.3598C92.2771 12.741 92.1154 12.2523 91.792 11.8938C91.4756 11.5352 91.0361 11.3559 90.4736 11.3559C90.0869 11.3559 89.7494 11.4473 89.4611 11.6301C89.1799 11.8059 88.9619 12.059 88.8072 12.3895C88.6596 12.7129 88.5857 13.0961 88.5857 13.5391V20.5H85.3584V13.3598C85.3584 12.741 85.2002 12.2523 84.8838 11.8938C84.5674 11.5281 84.1314 11.3453 83.576 11.3453C83.1893 11.3453 82.8518 11.4402 82.5635 11.6301C82.2822 11.8129 82.0607 12.0695 81.899 12.4C81.7443 12.7305 81.667 13.1102 81.667 13.5391V20.5H78.3869ZM100.609 20.6898C99.8639 20.6898 99.217 20.5492 98.6685 20.268C98.1271 19.9867 97.7123 19.593 97.424 19.0867C97.1357 18.5805 96.9916 17.9934 96.9916 17.3254C96.9916 16.2637 97.3326 15.4445 98.0146 14.868C98.7037 14.2914 99.6459 13.9047 100.841 13.7078L103.299 13.3176C103.517 13.2824 103.689 13.2367 103.815 13.1805C103.942 13.1172 104.037 13.0363 104.1 12.9379C104.163 12.8395 104.195 12.7164 104.195 12.5688C104.195 12.2523 104.121 11.9781 103.974 11.7461C103.833 11.507 103.622 11.3242 103.341 11.1977C103.06 11.0641 102.726 10.9973 102.339 10.9973C101.966 10.9973 101.643 11.0641 101.369 11.1977C101.101 11.3242 100.887 11.507 100.725 11.7461C100.57 11.9781 100.472 12.2559 100.43 12.5793H97.2764C97.3607 11.7355 97.6174 11.0078 98.0463 10.3961C98.4752 9.78438 99.0588 9.3168 99.7971 8.99336C100.535 8.66992 101.397 8.5082 102.381 8.5082C103.387 8.5082 104.262 8.66289 105.007 8.97227C105.753 9.28164 106.333 9.74219 106.747 10.3539C107.162 10.9656 107.37 11.7039 107.37 12.5688V20.5H104.195V18.8547H104.153C103.801 19.4453 103.316 19.8988 102.697 20.2152C102.086 20.5316 101.39 20.6898 100.609 20.6898ZM101.717 18.2535C102.216 18.2535 102.652 18.1305 103.024 17.8844C103.404 17.6313 103.692 17.2938 103.889 16.8719C104.093 16.443 104.195 15.9754 104.195 15.4691V15.0262C104.097 15.0895 103.967 15.1457 103.805 15.1949C103.65 15.2371 103.474 15.2793 103.278 15.3215L101.474 15.6168C101.087 15.6871 100.771 15.8277 100.525 16.0387C100.286 16.2496 100.166 16.552 100.166 16.9457C100.166 17.2129 100.226 17.4449 100.345 17.6418C100.465 17.8316 100.641 17.9828 100.873 18.0953C101.112 18.2008 101.393 18.2535 101.717 18.2535ZM114.837 20.7531C113.578 20.7531 112.503 20.5633 111.61 20.1836C110.717 19.7969 110.024 19.2238 109.532 18.4645C109.04 17.7051 108.762 16.7805 108.699 15.6906H112.253C112.274 16.1547 112.383 16.566 112.58 16.9246C112.777 17.2762 113.065 17.5539 113.445 17.7578C113.831 17.9547 114.306 18.0531 114.869 18.0531C115.347 18.0531 115.754 17.9898 116.092 17.8633C116.429 17.7367 116.693 17.5469 116.883 17.2938C117.073 17.0336 117.168 16.7207 117.168 16.3551C117.168 15.9684 117.083 15.652 116.915 15.4059C116.753 15.1598 116.493 14.9594 116.134 14.8047C115.776 14.65 115.28 14.5199 114.647 14.4145C113.431 14.2035 112.429 13.9363 111.641 13.6129C110.861 13.2895 110.256 12.8359 109.827 12.2523C109.398 11.6617 109.184 10.8988 109.184 9.96367C109.184 8.93008 109.402 8.04766 109.838 7.31641C110.281 6.57813 110.924 6.01563 111.768 5.62891C112.612 5.23516 113.628 5.03828 114.816 5.03828C115.976 5.03828 116.971 5.22461 117.801 5.59727C118.637 5.96992 119.288 6.52188 119.752 7.25313C120.223 7.97734 120.501 8.87031 120.585 9.93203H117.041C117.02 9.475 116.915 9.08477 116.725 8.76133C116.542 8.43789 116.282 8.18828 115.944 8.0125C115.607 7.82969 115.203 7.73828 114.731 7.73828C114.303 7.73828 113.93 7.80859 113.613 7.94922C113.297 8.08984 113.051 8.29375 112.875 8.56094C112.706 8.82813 112.622 9.14453 112.622 9.51016C112.622 9.84063 112.696 10.1113 112.844 10.3223C112.998 10.5332 113.248 10.7125 113.592 10.8602C113.944 11.0008 114.433 11.1309 115.058 11.2504C116.345 11.4895 117.389 11.7742 118.191 12.1047C118.999 12.4352 119.622 12.9063 120.058 13.518C120.501 14.1297 120.722 14.9383 120.722 15.9438C120.722 16.9984 120.49 17.8844 120.026 18.6016C119.562 19.3188 118.89 19.8566 118.012 20.2152C117.14 20.5738 116.081 20.7531 114.837 20.7531ZM127.672 20.7531C126.498 20.7531 125.472 20.5035 124.593 20.0043C123.721 19.498 123.049 18.7844 122.578 17.8633C122.107 16.9422 121.872 15.877 121.872 14.6676C121.872 13.4441 122.107 12.3684 122.578 11.4402C123.049 10.5121 123.721 9.79141 124.593 9.27813C125.472 8.76484 126.498 8.5082 127.672 8.5082C128.804 8.5082 129.785 8.7543 130.615 9.24649C131.452 9.73867 132.092 10.4277 132.535 11.3137C132.978 12.1996 133.199 13.2086 133.199 14.3406C133.199 14.5023 133.192 14.6887 133.178 14.8996C133.164 15.1105 133.143 15.3074 133.115 15.4902H125.067C125.138 16.102 125.285 16.6082 125.51 17.009C125.735 17.4098 126.034 17.7051 126.407 17.8949C126.779 18.0848 127.222 18.1797 127.736 18.1797C128.122 18.1797 128.46 18.127 128.748 18.0215C129.037 17.909 129.272 17.7508 129.455 17.5469C129.645 17.343 129.785 17.0969 129.877 16.8086H133.051C132.939 17.6031 132.64 18.2992 132.155 18.8969C131.67 19.4875 131.04 19.9445 130.267 20.268C129.494 20.5914 128.629 20.7531 127.672 20.7531ZM129.993 13.3598C129.951 12.8324 129.835 12.3824 129.645 12.0098C129.455 11.6301 129.191 11.3453 128.854 11.1555C128.516 10.9586 128.115 10.8602 127.651 10.8602C127.208 10.8602 126.811 10.9445 126.46 11.1133C126.108 11.275 125.813 11.5422 125.574 11.9148C125.342 12.2875 125.183 12.7691 125.099 13.3598H129.993ZM134.749 20.5V8.76133H138.029V10.7969H138.051C138.374 10.1219 138.806 9.60156 139.348 9.23594C139.896 8.87031 140.543 8.6875 141.288 8.6875C141.612 8.6875 141.865 8.70508 142.048 8.74024V11.7355C141.949 11.7145 141.83 11.6969 141.689 11.6828C141.549 11.6688 141.412 11.6617 141.278 11.6617C140.638 11.6617 140.072 11.7953 139.58 12.0625C139.095 12.3297 138.715 12.7094 138.441 13.2016C138.167 13.6938 138.029 14.2703 138.029 14.9313V20.5H134.749ZM146.984 20.5L142.596 8.76133H145.961L147.87 14.8363C147.982 15.223 148.095 15.6098 148.207 15.9965C148.327 16.3762 148.432 16.7207 148.524 17.0301H148.545C148.636 16.7207 148.735 16.3762 148.84 15.9965C148.953 15.6098 149.069 15.223 149.188 14.8363L151.055 8.76133H154.419L150.127 20.5H146.984Z" fill="#001C64"/>
</g>
</g>
</g>
</g>
<defs>
<clipPath id="clip0_95_158602">
<rect width="156" height="24" fill="white" transform="translate(0 0.5)"/>
</clipPath>
<clipPath id="clip1_95_158602">
<rect width="156" height="24" fill="white" transform="translate(0 0.5)"/>
</clipPath>
<clipPath id="clip2_95_158602">
<rect width="156" height="24" fill="white" transform="translate(0 0.5)"/>
</clipPath>
</defs>
</svg>
